# This file uses centimeters as units for non-parametric coordinates.

mtllib 0.mtl
v 15.099460 0.000000 5.968232
v 16.034639 0.000000 6.322406
v 15.099460 5.037866 5.968232
v 16.034639 5.037866 6.322406
v 15.453633 5.037866 5.033052
v 16.388815 5.037866 5.387226
v 15.453633 0.000000 5.033052
v 16.388815 0.000000 5.387226
v 15.099460 4.030293 5.968232
v 15.453633 4.030293 5.033052
v 16.388815 4.030293 5.387226
v 16.034639 4.030293 6.322406
v 15.099460 2.821205 5.968232
v 15.453633 2.821205 5.033052
v 16.388815 2.821205 5.387226
v 16.034639 2.821205 6.322406
v 15.099460 1.692723 5.968232
v 15.453633 1.692723 5.033052
v 16.388815 1.692723 5.387226
v 16.034639 1.692723 6.322406
v 15.099460 0.846362 5.968232
v 15.453633 0.846361 5.033052
v 16.388815 0.846361 5.387226
v 16.034639 0.846362 6.322406
v -14.884094 0.000000 -5.387227
v -13.948915 0.000000 -5.033052
v -14.884094 5.037866 -5.387227
v -13.948915 5.037866 -5.033052
v -14.529921 5.037866 -6.322406
v -13.594741 5.037866 -5.968232
v -14.529921 0.000000 -6.322406
v -13.594741 0.000000 -5.968232
v -14.884094 4.030293 -5.387227
v -14.529921 4.030293 -6.322406
v -13.594741 4.030293 -5.968232
v -13.948915 4.030293 -5.033052
v -14.884094 2.821205 -5.387227
v -14.529921 2.821205 -6.322406
v -13.594741 2.821205 -5.968232
v -13.948915 2.821205 -5.033052
v -14.884094 1.692723 -5.387227
v -14.529921 1.692723 -6.322406
v -13.594741 1.692723 -5.968232
v -13.948915 1.692723 -5.033052
v -14.884094 0.846362 -5.387227
v -14.529921 0.846361 -6.322406
v -13.594741 0.846361 -5.968232
v -13.948915 0.846362 -5.033052
v 15.505048 0.000000 -4.880295
v 16.443850 0.000000 -5.224750
v 15.505048 5.037866 -4.880295
v 16.443850 5.037866 -5.224750
v 15.160592 5.037866 -5.819098
v 16.099394 5.037866 -6.163553
v 15.160592 0.000000 -5.819098
v 16.099394 0.000000 -6.163553
v 15.505048 4.030293 -4.880295
v 15.160592 4.030293 -5.819098
v 16.099394 4.030293 -6.163553
v 16.443850 4.030293 -5.224750
v 15.505048 2.821205 -4.880295
v 15.160592 2.821205 -5.819098
v 16.099394 2.821205 -6.163553
v 16.443850 2.821205 -5.224750
v 15.505048 1.692723 -4.880295
v 15.160592 1.692723 -5.819098
v 16.099394 1.692723 -6.163553
v 16.443850 1.692723 -5.224750
v 15.505048 0.846362 -4.880295
v 15.160592 0.846361 -5.819098
v 16.099394 0.846361 -6.163553
v 16.443850 0.846362 -5.224750
v -14.594676 0.000000 6.163553
v -13.655872 0.000000 5.819098
v -14.594676 5.037866 6.163553
v -13.655872 5.037866 5.819098
v -14.939132 5.037866 5.224750
v -14.000328 5.037866 4.880295
v -14.939132 0.000000 5.224750
v -14.000328 0.000000 4.880295
v -14.594676 4.030293 6.163553
v -14.939132 4.030293 5.224750
v -14.000328 4.030293 4.880295
v -13.655872 4.030293 5.819098
v -14.594676 2.821205 6.163553
v -14.939132 2.821205 5.224750
v -14.000328 2.821205 4.880295
v -13.655872 2.821205 5.819098
v -14.594676 1.692723 6.163553
v -14.939132 1.692723 5.224750
v -14.000328 1.692723 4.880295
v -13.655872 1.692723 5.819098
v -14.594676 0.846362 6.163553
v -14.939132 0.846361 5.224750
v -14.000328 0.846361 4.880295
v -13.655872 0.846362 5.819098
vt 0.375000 0.000000
vt 0.625000 0.000000
vt 0.375000 0.250000
vt 0.625000 0.250000
vt 0.375000 0.500000
vt 0.625000 0.500000
vt 0.375000 0.750000
vt 0.625000 0.750000
vt 0.375000 1.000000
vt 0.625000 1.000000
vt 0.875000 0.000000
vt 0.875000 0.250000
vt 0.125000 0.000000
vt 0.125000 0.250000
vt 0.375000 0.200000
vt 0.125000 0.200000
vt 0.375000 0.550000
vt 0.625000 0.550000
vt 0.875000 0.200000
vt 0.625000 0.200000
vt 0.375000 0.140000
vt 0.125000 0.140000
vt 0.375000 0.610000
vt 0.625000 0.610000
vt 0.875000 0.140000
vt 0.625000 0.140000
vt 0.375000 0.084000
vt 0.125000 0.084000
vt 0.375000 0.666000
vt 0.625000 0.666000
vt 0.875000 0.084000
vt 0.625000 0.084000
vt 0.375000 0.042000
vt 0.125000 0.042000
vt 0.375000 0.708000
vt 0.625000 0.708000
vt 0.875000 0.042000
vt 0.625000 0.042000
vt 0.375000 0.000000
vt 0.625000 0.000000
vt 0.625000 0.042000
vt 0.375000 0.042000
vt 0.375000 0.250000
vt 0.625000 0.250000
vt 0.625000 0.500000
vt 0.375000 0.500000
vt 0.375000 0.708000
vt 0.625000 0.708000
vt 0.625000 0.750000
vt 0.375000 0.750000
vt 0.625000 1.000000
vt 0.375000 1.000000
vt 0.875000 0.000000
vt 0.875000 0.042000
vt 0.125000 0.000000
vt 0.125000 0.042000
vt 0.125000 0.200000
vt 0.375000 0.200000
vt 0.125000 0.250000
vt 0.625000 0.550000
vt 0.375000 0.550000
vt 0.625000 0.200000
vt 0.875000 0.200000
vt 0.875000 0.250000
vt 0.125000 0.140000
vt 0.375000 0.140000
vt 0.625000 0.610000
vt 0.375000 0.610000
vt 0.625000 0.140000
vt 0.875000 0.140000
vt 0.125000 0.084000
vt 0.375000 0.084000
vt 0.625000 0.666000
vt 0.375000 0.666000
vt 0.625000 0.084000
vt 0.875000 0.084000
vt 0.375000 0.000000
vt 0.625000 0.000000
vt 0.625000 0.042000
vt 0.375000 0.042000
vt 0.375000 0.250000
vt 0.625000 0.250000
vt 0.625000 0.500000
vt 0.375000 0.500000
vt 0.375000 0.708000
vt 0.625000 0.708000
vt 0.625000 0.750000
vt 0.375000 0.750000
vt 0.625000 1.000000
vt 0.375000 1.000000
vt 0.875000 0.000000
vt 0.875000 0.042000
vt 0.125000 0.000000
vt 0.125000 0.042000
vt 0.125000 0.200000
vt 0.375000 0.200000
vt 0.125000 0.250000
vt 0.625000 0.550000
vt 0.375000 0.550000
vt 0.625000 0.200000
vt 0.875000 0.200000
vt 0.875000 0.250000
vt 0.625000 0.610000
vt 0.375000 0.610000
vt 0.625000 0.140000
vt 0.875000 0.140000
vt 0.375000 0.140000
vt 0.125000 0.084000
vt 0.375000 0.084000
vt 0.125000 0.140000
vt 0.625000 0.666000
vt 0.375000 0.666000
vt 0.625000 0.084000
vt 0.875000 0.084000
vt 0.375000 0.000000
vt 0.625000 0.000000
vt 0.625000 0.042000
vt 0.375000 0.042000
vt 0.375000 0.250000
vt 0.625000 0.250000
vt 0.625000 0.500000
vt 0.375000 0.500000
vt 0.375000 0.708000
vt 0.625000 0.708000
vt 0.625000 0.750000
vt 0.375000 0.750000
vt 0.625000 1.000000
vt 0.375000 1.000000
vt 0.875000 0.000000
vt 0.875000 0.042000
vt 0.125000 0.000000
vt 0.125000 0.042000
vt 0.125000 0.200000
vt 0.375000 0.200000
vt 0.125000 0.250000
vt 0.625000 0.550000
vt 0.375000 0.550000
vt 0.625000 0.200000
vt 0.875000 0.200000
vt 0.875000 0.250000
vt 0.125000 0.140000
vt 0.375000 0.140000
vt 0.625000 0.610000
vt 0.375000 0.610000
vt 0.625000 0.140000
vt 0.125000 0.084000
vt 0.375000 0.084000
vt 0.625000 0.666000
vt 0.375000 0.666000
vt 0.625000 0.084000
vt 0.875000 0.084000
vt 0.875000 0.140000
vn -0.354174 0.000000 0.935180
vn -0.354174 0.000000 0.935180
vn -0.354174 0.000000 0.935180
vn -0.354174 0.000000 0.935180
vn 0.000000 1.000000 -0.000000
vn 0.000000 1.000000 -0.000000
vn 0.000000 1.000000 -0.000000
vn 0.000000 1.000000 -0.000000
vn 0.354173 0.000000 -0.935180
vn 0.354173 0.000000 -0.935180
vn 0.354173 0.000000 -0.935180
vn 0.354173 0.000000 -0.935180
vn 0.000000 -1.000000 0.000000
vn 0.000000 -1.000000 0.000000
vn 0.000000 -1.000000 0.000000
vn 0.000000 -1.000000 0.000000
vn 0.935179 0.000000 0.354176
vn 0.935179 0.000000 0.354176
vn 0.935179 0.000000 0.354175
vn 0.935179 0.000000 0.354175
vn -0.935180 0.000000 -0.354174
vn -0.935180 0.000000 -0.354174
vn -0.935180 0.000000 -0.354174
vn -0.935180 0.000000 -0.354174
vn -0.935180 0.000000 -0.354174
vn -0.935180 0.000000 -0.354174
vn -0.935180 0.000000 -0.354174
vn -0.935180 0.000000 -0.354174
vn 0.354173 0.000000 -0.935180
vn 0.354173 0.000000 -0.935180
vn 0.354173 0.000000 -0.935180
vn 0.354173 0.000000 -0.935180
vn 0.935179 0.000000 0.354175
vn 0.935179 0.000000 0.354175
vn 0.935179 0.000000 0.354175
vn 0.935179 0.000000 0.354175
vn -0.354174 0.000000 0.935180
vn -0.354174 0.000000 0.935180
vn -0.354174 0.000000 0.935180
vn -0.354174 0.000000 0.935180
vn 0.354173 0.000000 -0.935180
vn 0.354173 0.000000 -0.935180
vn 0.935179 0.000000 0.354175
vn 0.935179 0.000000 0.354175
vn -0.354174 0.000000 0.935180
vn -0.354174 0.000000 0.935180
vn -0.935180 0.000000 -0.354174
vn -0.935180 0.000000 -0.354174
vn -0.935180 0.000000 -0.354174
vn -0.935180 0.000000 -0.354174
vn 0.354173 0.000000 -0.935180
vn 0.354173 0.000000 -0.935180
vn 0.935179 0.000000 0.354175
vn 0.935179 0.000000 0.354175
vn -0.354174 0.000000 0.935180
vn -0.354174 0.000000 0.935180
vn -0.354174 0.000000 0.935180
vn -0.354174 0.000000 0.935180
vn -0.354174 0.000000 0.935180
vn -0.354174 0.000000 0.935180
vn 0.000000 1.000000 0.000000
vn 0.000000 1.000000 0.000000
vn 0.000000 1.000000 0.000000
vn 0.000000 1.000000 0.000000
vn 0.354174 0.000000 -0.935180
vn 0.354174 0.000000 -0.935180
vn 0.354174 0.000000 -0.935180
vn 0.354174 0.000000 -0.935180
vn 0.000000 -1.000000 0.000000
vn 0.000000 -1.000000 0.000000
vn 0.000000 -1.000000 0.000000
vn 0.000000 -1.000000 0.000000
vn 0.935180 0.000000 0.354174
vn 0.935180 0.000000 0.354174
vn 0.935180 0.000000 0.354174
vn 0.935180 0.000000 0.354174
vn -0.935180 0.000000 -0.354174
vn -0.935180 0.000000 -0.354174
vn -0.935180 0.000000 -0.354174
vn -0.935180 0.000000 -0.354174
vn -0.935180 0.000000 -0.354174
vn -0.935180 0.000000 -0.354174
vn -0.935180 0.000000 -0.354174
vn -0.935180 0.000000 -0.354174
vn 0.354174 0.000000 -0.935180
vn 0.354174 0.000000 -0.935180
vn 0.354174 0.000000 -0.935180
vn 0.354174 0.000000 -0.935180
vn 0.935180 0.000000 0.354174
vn 0.935180 0.000000 0.354174
vn 0.935180 0.000000 0.354174
vn 0.935180 0.000000 0.354174
vn -0.354174 0.000000 0.935180
vn -0.354174 0.000000 0.935180
vn -0.354174 0.000000 0.935180
vn -0.354174 0.000000 0.935180
vn -0.935180 0.000000 -0.354174
vn -0.935180 0.000000 -0.354174
vn 0.354174 0.000000 -0.935179
vn 0.354174 0.000000 -0.935179
vn -0.354174 0.000000 0.935180
vn -0.354174 0.000000 0.935180
vn -0.935180 0.000000 -0.354174
vn -0.935180 0.000000 -0.354174
vn 0.354174 0.000000 -0.935180
vn 0.354174 0.000000 -0.935180
vn 0.935180 0.000000 0.354174
vn 0.935180 0.000000 0.354174
vn 0.935180 0.000000 0.354174
vn 0.935180 0.000000 0.354174
vn -0.354174 0.000000 0.935180
vn -0.354174 0.000000 0.935180
vn 0.000000 -1.000000 0.000000
vn 0.000000 -1.000000 0.000000
vn 0.000000 -1.000000 0.000000
vn 0.000000 -1.000000 0.000000
vn -0.354174 0.000000 0.935180
vn -0.354174 0.000000 0.935180
vn -0.354174 0.000000 0.935180
vn -0.354174 0.000000 0.935180
vn 0.000000 1.000000 0.000000
vn 0.000000 1.000000 0.000000
vn 0.000000 1.000000 0.000000
vn 0.000000 1.000000 0.000000
vn 0.354174 0.000000 -0.935180
vn 0.354174 0.000000 -0.935180
vn 0.354174 0.000000 -0.935180
vn 0.354174 0.000000 -0.935180
vn -0.000000 -1.000000 0.000000
vn -0.000000 -1.000000 0.000000
vn -0.000000 -1.000000 0.000000
vn -0.000000 -1.000000 0.000000
vn -0.354174 0.000000 0.935180
vn -0.354174 0.000000 0.935180
vn -0.354174 0.000000 0.935180
vn -0.354174 0.000000 0.935180
vn 0.000000 1.000000 -0.000000
vn 0.000000 1.000000 -0.000000
vn 0.000000 1.000000 -0.000000
vn 0.000000 1.000000 -0.000000
vn 0.354174 0.000000 -0.935180
vn 0.354174 0.000000 -0.935180
vn 0.354174 0.000000 -0.935180
vn 0.354174 0.000000 -0.935180
vn 0.344455 0.000000 0.938803
vn 0.344455 0.000000 0.938803
vn 0.344455 0.000000 0.938803
vn 0.344455 0.000000 0.938803
vn 0.000000 1.000000 0.000000
vn 0.000000 1.000000 0.000000
vn 0.000000 1.000000 0.000000
vn 0.000000 1.000000 0.000000
vn -0.344455 0.000000 -0.938803
vn -0.344455 0.000000 -0.938803
vn -0.344455 0.000000 -0.938803
vn -0.344455 0.000000 -0.938803
vn 0.000000 -1.000000 0.000000
vn 0.000000 -1.000000 0.000000
vn 0.000000 -1.000000 0.000000
vn 0.000000 -1.000000 0.000000
vn 0.938803 0.000000 -0.344456
vn 0.938803 0.000000 -0.344456
vn 0.938803 0.000000 -0.344456
vn 0.938803 0.000000 -0.344456
vn -0.938803 0.000000 0.344456
vn -0.938803 0.000000 0.344456
vn -0.938803 0.000000 0.344456
vn -0.938803 0.000000 0.344456
vn -0.938803 0.000000 0.344456
vn -0.938803 0.000000 0.344456
vn -0.938803 0.000000 0.344456
vn -0.938803 0.000000 0.344456
vn -0.344455 0.000000 -0.938803
vn -0.344455 0.000000 -0.938803
vn -0.344455 0.000000 -0.938803
vn -0.344455 0.000000 -0.938803
vn 0.938803 0.000000 -0.344456
vn 0.938803 0.000000 -0.344456
vn 0.938803 0.000000 -0.344455
vn 0.938803 0.000000 -0.344455
vn 0.344455 0.000000 0.938803
vn 0.344455 0.000000 0.938803
vn 0.344455 0.000000 0.938803
vn 0.344455 0.000000 0.938803
vn -0.344455 0.000000 -0.938803
vn -0.344455 0.000000 -0.938803
vn 0.938803 0.000000 -0.344456
vn 0.938803 0.000000 -0.344456
vn 0.344455 0.000000 0.938803
vn 0.344455 0.000000 0.938803
vn -0.938803 0.000000 0.344456
vn -0.938803 0.000000 0.344456
vn -0.938803 0.000000 0.344456
vn -0.938803 0.000000 0.344456
vn -0.344455 0.000000 -0.938803
vn -0.344455 0.000000 -0.938803
vn 0.938803 0.000000 -0.344456
vn 0.938803 0.000000 -0.344456
vn 0.344455 0.000000 0.938803
vn 0.344455 0.000000 0.938803
vn 0.344454 0.000000 0.938803
vn 0.344454 0.000000 0.938803
vn 0.344454 0.000000 0.938803
vn 0.344454 0.000000 0.938803
vn 0.000000 1.000000 0.000000
vn 0.000000 1.000000 0.000000
vn 0.000000 1.000000 0.000000
vn 0.000000 1.000000 0.000000
vn -0.344455 0.000000 -0.938803
vn -0.344455 0.000000 -0.938803
vn -0.344455 0.000000 -0.938803
vn -0.344455 0.000000 -0.938803
vn 0.000000 -1.000000 0.000000
vn 0.000000 -1.000000 0.000000
vn 0.000000 -1.000000 0.000000
vn 0.000000 -1.000000 0.000000
vn 0.938803 0.000000 -0.344456
vn 0.938803 0.000000 -0.344456
vn 0.938803 0.000000 -0.344456
vn 0.938803 0.000000 -0.344456
vn -0.938803 0.000000 0.344456
vn -0.938803 0.000000 0.344456
vn -0.938803 0.000000 0.344456
vn -0.938803 0.000000 0.344456
vn -0.938803 0.000000 0.344456
vn -0.938803 0.000000 0.344456
vn -0.938803 0.000000 0.344455
vn -0.938803 0.000000 0.344455
vn -0.344454 0.000000 -0.938803
vn -0.344454 0.000000 -0.938803
vn -0.344454 0.000000 -0.938803
vn -0.344454 0.000000 -0.938803
vn 0.938803 0.000000 -0.344456
vn 0.938803 0.000000 -0.344456
vn 0.938803 0.000000 -0.344456
vn 0.938803 0.000000 -0.344456
vn 0.344455 0.000000 0.938803
vn 0.344455 0.000000 0.938803
vn 0.344455 0.000000 0.938803
vn 0.344455 0.000000 0.938803
vn -0.938803 0.000000 0.344456
vn -0.938803 0.000000 0.344456
vn -0.344454 0.000000 -0.938803
vn -0.344454 0.000000 -0.938803
vn 0.344455 0.000000 0.938803
vn 0.344455 0.000000 0.938803
vn -0.938803 0.000000 0.344456
vn -0.938803 0.000000 0.344456
vn -0.344455 0.000000 -0.938803
vn -0.344455 0.000000 -0.938803
vn 0.938803 0.000000 -0.344456
vn 0.938803 0.000000 -0.344456
vn 0.938803 0.000000 -0.344456
vn 0.938803 0.000000 -0.344456
vn 0.344454 0.000000 0.938803
vn 0.344454 0.000000 0.938803
vn 0.000000 -1.000000 0.000000
vn 0.000000 -1.000000 0.000000
vn 0.000000 -1.000000 0.000000
vn 0.000000 -1.000000 0.000000
vn 0.344455 0.000000 0.938803
vn 0.344455 0.000000 0.938803
vn 0.344455 0.000000 0.938803
vn 0.344455 0.000000 0.938803
vn 0.000000 1.000000 0.000000
vn 0.000000 1.000000 0.000000
vn 0.000000 1.000000 0.000000
vn 0.000000 1.000000 0.000000
vn -0.344455 0.000000 -0.938803
vn -0.344455 0.000000 -0.938803
vn -0.344455 0.000000 -0.938803
vn -0.344455 0.000000 -0.938803
vn 0.000000 -1.000000 0.000000
vn 0.000000 -1.000000 0.000000
vn 0.000000 -1.000000 0.000000
vn 0.000000 -1.000000 0.000000
vn 0.344455 0.000000 0.938803
vn 0.344455 0.000000 0.938803
vn 0.344455 0.000000 0.938803
vn 0.344455 0.000000 0.938803
vn -0.000000 1.000000 -0.000000
vn -0.000000 1.000000 -0.000000
vn -0.000000 1.000000 -0.000000
vn -0.000000 1.000000 -0.000000
vn -0.344455 0.000000 -0.938803
vn -0.344455 0.000000 -0.938803
vn -0.344455 0.000000 -0.938803
vn -0.344455 0.000000 -0.938803
f 1/1/1 2/2/2 24/38/3 21/33/4
f 3/3/5 4/4/6 6/6/7 5/5/8
f 22/35/9 23/36/10 8/8/11 7/7/12
f 7/7/13 8/8/14 2/10/15 1/9/16
f 2/2/17 8/11/18 23/37/19 24/38/20
f 7/13/21 1/1/22 21/33/23 22/34/24
f 10/16/25 9/15/26 3/3/27 5/14/28
f 5/5/29 6/6/30 11/18/31 10/17/32
f 12/20/33 11/19/34 6/12/35 4/4/36
f 9/15/37 12/20/38 4/4/39 3/3/40
f 10/17/32 11/18/31 15/24/41 14/23/42
f 16/26/43 15/25/44 11/19/34 12/20/33
f 13/21/45 16/26/46 12/20/38 9/15/37
f 18/28/47 17/27/48 13/21/49 14/22/50
f 14/23/42 15/24/41 19/30/51 18/29/52
f 20/32/53 19/31/54 15/25/44 16/26/43
f 17/27/55 20/32/56 16/26/46 13/21/45
f 18/29/52 19/30/51 23/36/10 22/35/9
f 24/38/20 23/37/19 19/31/54 20/32/53
f 21/33/4 24/38/3 20/32/56 17/27/55
f 25/39/57 26/40/58 48/41/59 45/42/60
f 27/43/61 28/44/62 30/45/63 29/46/64
f 46/47/65 47/48/66 32/49/67 31/50/68
f 31/50/69 32/49/70 26/51/71 25/52/72
f 26/40/73 32/53/74 47/54/75 48/41/76
f 31/55/77 25/39/78 45/42/79 46/56/80
f 34/57/81 33/58/82 27/43/83 29/59/84
f 29/46/85 30/45/86 35/60/87 34/61/88
f 36/62/89 35/63/90 30/64/91 28/44/92
f 33/58/93 36/62/94 28/44/95 27/43/96
f 38/65/97 37/66/98 33/58/82 34/57/81
f 34/61/88 35/60/87 39/67/99 38/68/100
f 37/66/101 40/69/102 36/62/94 33/58/93
f 42/71/103 41/72/104 37/66/98 38/65/97
f 38/68/100 39/67/99 43/73/105 42/74/106
f 44/75/107 43/76/108 39/70/109 40/69/110
f 41/72/111 44/75/112 40/69/102 37/66/101
f 46/56/80 45/42/79 41/72/104 42/71/103
f 42/74/106 43/73/105 47/48/66 46/47/65
f 45/42/60 48/41/59 44/75/112 41/72/111
f 14/22/113 13/21/114 40/69/115 39/70/116
f 13/21/117 9/15/118 36/62/119 40/69/120
f 9/15/121 10/16/122 35/63/123 36/62/124
f 10/17/125 14/23/126 39/67/127 35/60/128
f 22/34/129 21/33/130 48/41/131 47/54/132
f 21/33/133 17/27/134 44/75/135 48/41/136
f 17/27/137 18/28/138 43/76/139 44/75/140
f 18/29/141 22/35/142 47/48/143 43/73/144
f 49/77/145 50/78/146 72/79/147 69/80/148
f 51/81/149 52/82/150 54/83/151 53/84/152
f 70/85/153 71/86/154 56/87/155 55/88/156
f 55/88/157 56/87/158 50/89/159 49/90/160
f 50/78/161 56/91/162 71/92/163 72/79/164
f 55/93/165 49/77/166 69/80/167 70/94/168
f 58/95/169 57/96/170 51/81/171 53/97/172
f 53/84/173 54/83/174 59/98/175 58/99/176
f 60/100/177 59/101/178 54/102/179 52/82/180
f 57/96/181 60/100/182 52/82/183 51/81/184
f 58/99/176 59/98/175 63/103/185 62/104/186
f 64/105/187 63/106/188 59/101/178 60/100/177
f 61/107/189 64/105/190 60/100/182 57/96/181
f 66/108/191 65/109/192 61/107/193 62/110/194
f 62/104/186 63/103/185 67/111/195 66/112/196
f 68/113/197 67/114/198 63/106/188 64/105/187
f 65/109/199 68/113/200 64/105/190 61/107/189
f 66/112/196 67/111/195 71/86/154 70/85/153
f 72/79/164 71/92/163 67/114/198 68/113/197
f 69/80/148 72/79/147 68/113/200 65/109/199
f 73/115/201 74/116/202 96/117/203 93/118/204
f 75/119/205 76/120/206 78/121/207 77/122/208
f 94/123/209 95/124/210 80/125/211 79/126/212
f 79/126/213 80/125/214 74/127/215 73/128/216
f 74/116/217 80/129/218 95/130/219 96/117/220
f 79/131/221 73/115/222 93/118/223 94/132/224
f 82/133/225 81/134/226 75/119/227 77/135/228
f 77/122/229 78/121/230 83/136/231 82/137/232
f 84/138/233 83/139/234 78/140/235 76/120/236
f 81/134/237 84/138/238 76/120/239 75/119/240
f 86/141/241 85/142/242 81/134/226 82/133/225
f 82/137/232 83/136/231 87/143/243 86/144/244
f 85/142/245 88/145/246 84/138/238 81/134/237
f 90/146/247 89/147/248 85/142/242 86/141/241
f 86/144/244 87/143/243 91/148/249 90/149/250
f 92/150/251 91/151/252 87/152/253 88/145/254
f 89/147/255 92/150/256 88/145/246 85/142/245
f 94/132/224 93/118/223 89/147/248 90/146/247
f 90/149/250 91/148/249 95/124/210 94/123/209
f 93/118/204 96/117/203 92/150/256 89/147/255
f 62/110/257 61/107/258 88/145/259 87/152/260
f 61/107/261 57/96/262 84/138/263 88/145/264
f 57/96/265 58/95/266 83/139/267 84/138/268
f 58/99/269 62/104/270 87/143/271 83/136/272
f 70/94/273 69/80/274 96/117/275 95/130/276
f 69/80/277 65/109/278 92/150/279 96/117/280
f 65/109/281 66/108/282 91/151/283 92/150/284
f 66/112/285 70/85/286 95/124/287 91/148/288
