# This file uses centimeters as units for non-parametric coordinates.

mtllib lamp.mtl
v 1.115341 24.873920 5.641824
v 1.115341 24.873920 5.374733
v 1.115341 27.400810 5.374733
v 1.115341 27.400810 5.641824
v 0.848250 27.400810 5.374733
v 0.848250 27.400810 5.641824
v 0.848250 24.873920 5.374733
v 0.848250 24.873920 5.641824
v -0.016382 19.852844 4.500460
v -0.016382 19.852844 6.530002
v -0.428484 23.103188 4.088358
v -0.428484 23.103188 6.942104
v 2.425263 23.103188 4.088358
v 2.425263 23.103188 6.942104
v 2.013161 19.852844 4.500460
v 2.013161 19.852844 6.530002
v 0.522765 24.208599 5.039608
v 0.522765 24.208599 5.990855
v 1.474014 24.208599 5.990855
v 1.474014 24.208599 5.039607
v 0.647884 24.238190 5.164726
v 0.647884 24.238190 5.865737
v 1.348895 24.238190 5.865737
v 1.348895 24.238190 5.164726
v 0.563281 24.350304 5.080123
v 0.563281 24.350304 5.950338
v 1.433498 24.350304 5.950338
v 1.433498 24.350304 5.080123
v 0.904116 24.965405 5.420959
v 0.904116 24.965405 5.609504
v 1.092663 24.965405 5.609504
v 1.092663 24.965405 5.420958
v 1.844032 20.123703 6.564344
v 0.152747 20.123703 6.564344
v 2.187450 22.832325 6.907763
v -0.190671 22.832325 6.907763
v 1.844032 20.123703 6.363590
v 0.152747 20.123703 6.363590
v 2.187450 22.832325 6.707009
v -0.190671 22.832325 6.707009
v 1.844032 20.117783 4.466118
v 0.152747 20.117783 4.466118
v -0.190671 22.838249 4.122700
v 2.187450 22.838249 4.122700
v 1.844032 20.117783 4.680389
v 0.152747 20.117783 4.680389
v -0.190671 22.838249 4.336970
v 2.187450 22.838249 4.336970
v -0.050472 20.121719 4.669589
v -0.050472 20.121719 6.360873
v -0.393890 22.830338 6.704292
v -0.393890 22.830338 4.326171
v 0.160027 20.121719 4.669589
v 0.160027 20.121719 6.360873
v -0.183391 22.830338 6.704292
v -0.183391 22.830338 4.326171
v 2.390921 22.832325 4.326171
v 2.390921 22.832325 6.704292
v 2.047503 20.123703 6.360873
v 2.047503 20.123703 4.669589
v 2.190994 22.832325 4.326171
v 2.190994 22.832325 6.704292
v 1.847576 20.123703 6.360873
v 1.847576 20.123703 4.669590
v 1.830619 -0.014214 -5.603618
v 1.830619 -0.014214 -7.037114
v 1.830623 19.732430 -7.037115
v 1.830623 19.732430 -5.603619
v 1.830624 29.380924 -5.603619
v 1.830624 29.380924 -7.037115
v 0.071151 29.380924 -7.037114
v 0.071151 29.380924 -5.603618
v 0.071150 19.732418 -5.603618
v 0.071150 19.732418 -7.037114
v 0.071145 -0.014213 -7.037115
v 0.071145 -0.014213 -5.603620
v 0.071151 28.724533 -5.603618
v 1.830623 28.724537 -5.603618
v 0.071151 28.724533 -7.037114
v 1.830624 28.724537 -7.037115
v 0.071151 27.379177 6.630005
v 1.830623 27.379181 6.630005
v 1.830623 28.724537 6.630005
v 0.071151 28.724533 6.630005
v 0.071151 27.379177 -7.037114
v 0.071151 27.379177 -5.603618
v 1.830624 27.379181 -7.037115
v 1.830623 27.379181 -5.603618
v 1.830623 27.379181 1.306005
v 0.071151 27.379177 1.306005
v 1.830623 28.724537 1.306005
v 0.071151 28.724533 1.306005
v 1.830623 27.379181 2.781408
v 0.071151 27.379177 2.781408
v 0.071151 28.724533 2.781408
v 1.830623 28.724537 2.781408
v 0.071150 21.168957 -5.603618
v 1.830623 21.168964 -5.603619
v 0.071150 21.168957 -7.037114
v 1.830623 21.168964 -7.037115
vt 0.870184 0.533542
vt 0.868969 0.541262
vt 0.795931 0.544709
vt 0.797146 0.536989
vt 0.978789 0.528069
vt 0.980330 0.555476
vt 0.952923 0.557017
vt 0.951382 0.529610
vt 0.798239 0.560149
vt 0.796296 0.552429
vt 0.869333 0.548982
vt 0.871277 0.556702
vt 0.929368 0.520293
vt 0.936267 0.558495
vt 0.898065 0.565393
vt 0.891166 0.527192
vt 0.869819 0.525822
vt 0.796782 0.529269
vt 0.717739 0.612638
vt 0.944999 0.613448
vt 0.989838 0.980486
vt 0.670287 0.979348
vt 0.909546 0.433338
vt 0.938170 0.421682
vt 0.949826 0.450306
vt 0.921202 0.461961
vt 0.991427 0.980478
vt 0.667569 0.980510
vt 0.714301 0.608686
vt 0.944624 0.608664
vt 0.881832 0.334152
vt 0.939737 0.310574
vt 0.963315 0.368478
vt 0.905410 0.392057
vt 0.719304 0.611137
vt 0.944813 0.612080
vt 0.989080 0.976318
vt 0.671992 0.974992
vt 0.715735 0.614693
vt 0.942495 0.613545
vt 0.990401 0.980955
vt 0.671553 0.982570
vt 0.652056 0.259846
vt 0.808809 0.280830
vt 0.744751 0.345071
vt 0.698875 0.337103
vt 0.829489 0.434151
vt 0.747509 0.391656
vt 0.711148 0.499642
vt 0.594665 0.404918
vt 0.680544 0.380407
vt 0.719846 0.410253
vt 0.738152 0.350635
vt 0.702927 0.344861
vt 0.740402 0.385485
vt 0.689021 0.378215
vt 0.718446 0.400671
vt 0.480056 0.271113
vt 0.548025 0.269684
vt 0.547761 0.285601
vt 0.481386 0.287161
vt 0.625124 0.284462
vt 0.634581 0.305654
vt 0.343672 0.320525
vt 0.415256 0.290473
vt 0.418429 0.306079
vt 0.339504 0.341868
vt 0.523879 0.373421
vt 0.492206 0.378408
vt 0.549114 0.380291
vt 0.462376 0.390395
vt 0.439188 0.407350
vt 0.502164 0.237031
vt 0.374181 0.280405
vt 0.378957 0.260112
vt 0.487272 0.222945
vt 0.289488 0.076680
vt 0.308418 0.089505
vt 0.463287 0.017998
vt 0.454563 0.039808
vt 0.384531 0.249707
vt 0.477274 0.218673
vt 0.318483 0.094774
vt 0.449333 0.051093
vt 0.772343 0.248869
vt 0.637280 0.227702
vt 0.649991 0.212029
vt 0.764315 0.229634
vt 0.644735 0.004581
vt 0.656503 0.024529
vt 0.823808 0.032756
vt 0.807458 0.047999
vt 0.659950 0.204805
vt 0.756433 0.220613
vt 0.663771 0.034540
vt 0.797702 0.056293
vt 0.511248 0.218683
vt 0.625657 0.210404
vt 0.478981 0.035276
vt 0.631767 0.023742
vt 0.519340 0.209581
vt 0.616372 0.203455
vt 0.488023 0.043219
vt 0.623961 0.033878
vt 0.993369 0.100684
vt 0.974102 0.112189
vt 0.831228 0.055269
vt 0.898939 0.299283
vt 0.895195 0.278405
vt 0.787978 0.236037
vt 0.963598 0.117695
vt 0.836055 0.065979
vt 0.889720 0.268522
vt 0.798388 0.231545
vt 0.008492 0.008652
vt 0.059367 0.008368
vt 0.062941 0.650657
vt 0.012065 0.650940
vt 0.240045 0.121535
vt 0.241319 0.163232
vt 0.190141 0.164796
vt 0.188866 0.123100
vt 0.176260 0.650026
vt 0.125386 0.650309
vt 0.121811 0.008021
vt 0.172687 0.007738
vt 0.237498 0.009543
vt 0.239692 0.054441
vt 0.184584 0.057134
vt 0.182390 0.012235
vt 0.197271 0.198388
vt 0.245619 0.197864
vt 0.251010 0.695155
vt 0.202662 0.695679
vt 0.178036 0.969159
vt 0.240480 0.968813
vt 0.240609 0.992108
vt 0.178165 0.992455
vt 0.127291 0.992738
vt 0.127160 0.969443
vt 0.064716 0.969790
vt 0.064845 0.993085
vt 0.013841 0.970073
vt 0.013970 0.993369
vt 0.185869 0.068872
vt 0.241837 0.070621
vt 0.240499 0.113416
vt 0.184532 0.111667
vt 0.126895 0.921696
vt 0.177770 0.921412
vt 0.064450 0.922043
vt 0.013575 0.922326
vt 0.278976 0.822620
vt 0.278513 0.766200
vt 0.500079 0.764382
vt 0.500542 0.820802
vt 0.268421 0.965931
vt 0.268219 0.926041
vt 0.473090 0.924998
vt 0.473293 0.964888
vt 0.267953 0.873872
vt 0.472825 0.872830
vt 0.267750 0.833982
vt 0.472622 0.832940
vt 0.516368 0.832717
vt 0.516571 0.872607
vt 0.516836 0.924776
vt 0.473293 0.964888
vt 0.517039 0.964666
vt 0.516102 0.780549
vt 0.630214 0.779968
vt 0.630479 0.832137
vt 0.630682 0.872027
vt 0.630948 0.924196
vt 0.517039 0.964666
vt 0.631150 0.964086
vt 0.251613 0.934927
vt 0.187061 0.934072
vt 0.190076 0.706228
vt 0.254629 0.707083
vt 0.125669 0.701292
vt 0.176544 0.701009
vt 0.063224 0.701640
vt 0.012349 0.701923
vt 0.285511 0.652350
vt 0.290448 0.608685
vt 0.572078 0.640528
vt 0.567141 0.684193
vt 0.317449 0.585059
vt 0.547813 0.612796
vt 0.301934 0.725108
vt 0.306555 0.681408
vt 0.537297 0.705807
vt 0.532676 0.749506
vn 1.000000 0.000000 0.000000
vn 1.000000 0.000000 0.000000
vn 1.000000 0.000000 0.000000
vn 1.000000 0.000000 0.000000
vn 0.000000 1.000000 0.000000
vn 0.000000 1.000000 0.000000
vn 0.000000 1.000000 0.000000
vn 0.000000 1.000000 0.000000
vn -1.000000 0.000000 0.000000
vn -1.000000 0.000000 0.000000
vn -1.000000 0.000000 0.000000
vn -1.000000 0.000000 0.000000
vn 0.000000 -1.000000 0.000000
vn 0.000000 -1.000000 0.000000
vn 0.000000 -1.000000 0.000000
vn 0.000000 -1.000000 0.000000
vn 0.000001 0.000000 -1.000000
vn 0.000001 0.000000 -1.000000
vn 0.000001 0.000000 -1.000000
vn 0.000001 0.000000 -1.000000
vn -0.000003 0.000000 1.000000
vn -0.000003 0.000000 1.000000
vn -0.000003 0.000000 1.000000
vn -0.000003 0.000000 1.000000
vn -0.992058 -0.125780 0.000000
vn -0.992058 -0.125780 0.000000
vn -0.992058 -0.125780 0.000000
vn -0.992058 -0.125780 0.000000
vn 0.000000 1.000000 0.000000
vn 0.000000 1.000000 0.000000
vn 0.000000 1.000000 0.000000
vn 0.000000 1.000000 0.000000
vn 0.992058 -0.125780 -0.000000
vn 0.992058 -0.125780 -0.000000
vn 0.992058 -0.125780 -0.000000
vn 0.992058 -0.125780 -0.000000
vn 0.000000 -1.000000 -0.000001
vn 0.000000 -1.000000 -0.000001
vn 0.000000 -1.000000 -0.000001
vn 0.000000 -1.000000 -0.000001
vn 0.000000 -0.125780 0.992058
vn 0.000000 -0.125780 0.992058
vn 0.000000 -0.125780 0.992058
vn 0.000000 -0.125780 0.992058
vn 0.000000 -0.125241 -0.992126
vn 0.000000 -0.125241 -0.992126
vn 0.000000 -0.125241 -0.992126
vn 0.000000 -0.125241 -0.992126
vn -0.757983 0.652274 0.000000
vn -0.757983 0.652274 0.000000
vn -0.757983 0.652274 0.000000
vn -0.757983 0.652274 0.000000
vn 0.000000 0.652274 0.757984
vn 0.000000 0.652274 0.757984
vn 0.000000 0.652274 0.757984
vn 0.000000 0.652274 0.757984
vn 0.757983 0.652274 0.000000
vn 0.757983 0.652274 0.000000
vn 0.757983 0.652274 0.000000
vn 0.757983 0.652274 0.000000
vn -0.000000 0.652274 -0.757983
vn -0.000000 0.652274 -0.757983
vn -0.000000 0.652274 -0.757983
vn -0.000000 0.652274 -0.757983
vn -0.230151 0.973155 0.000000
vn -0.230151 0.973155 0.000000
vn -0.230151 0.973155 0.000000
vn -0.230151 0.973155 0.000000
vn 0.000000 0.973156 0.230147
vn 0.000000 0.973156 0.230147
vn 0.000000 0.973156 0.230147
vn 0.000000 0.973156 0.230147
vn 0.230152 0.973155 0.000000
vn 0.230152 0.973155 0.000000
vn 0.230152 0.973155 0.000000
vn 0.230152 0.973155 0.000000
vn -0.000000 0.973156 -0.230146
vn -0.000000 0.973156 -0.230146
vn -0.000000 0.973156 -0.230146
vn -0.000000 0.973156 -0.230146
vn -0.798229 -0.602355 0.000000
vn -0.798229 -0.602355 0.000000
vn -0.798229 -0.602355 0.000000
vn -0.798229 -0.602355 0.000000
vn 0.000000 -0.602346 0.798235
vn 0.000000 -0.602346 0.798235
vn 0.000000 -0.602346 0.798235
vn 0.000000 -0.602346 0.798235
vn 0.798229 -0.602355 0.000000
vn 0.798229 -0.602354 0.000000
vn 0.798229 -0.602355 0.000000
vn 0.798229 -0.602355 0.000000
vn 0.000000 -0.602355 -0.798228
vn 0.000000 -0.602355 -0.798228
vn 0.000000 -0.602355 -0.798228
vn 0.000000 -0.602355 -0.798228
vn -0.874693 0.484678 0.000000
vn -0.874693 0.484678 0.000000
vn -0.874693 0.484678 0.000000
vn -0.874693 0.484678 0.000000
vn 0.000001 0.484677 0.874693
vn 0.000001 0.484678 0.874693
vn 0.000001 0.484677 0.874693
vn 0.000001 0.484677 0.874693
vn 0.874692 0.484678 0.000000
vn 0.874692 0.484678 0.000000
vn 0.874692 0.484678 0.000000
vn 0.874692 0.484678 0.000000
vn 0.000000 0.484679 -0.874692
vn 0.000000 0.484679 -0.874692
vn 0.000000 0.484679 -0.874692
vn 0.000000 0.484679 -0.874692
vn 0.000000 -0.125782 0.992058
vn 0.000000 -0.125782 0.992058
vn 0.000000 -0.125782 0.992058
vn 0.000000 -0.125782 0.992058
vn 0.000003 -0.125781 0.992058
vn 0.000003 -0.125781 0.992058
vn 0.000003 -0.125781 0.992058
vn 0.000003 -0.125781 0.992058
vn 0.000000 -0.125777 0.992059
vn 0.000000 -0.125777 0.992059
vn 0.000000 -0.125777 0.992059
vn 0.000000 -0.125777 0.992059
vn -0.000003 -0.125781 0.992058
vn -0.000003 -0.125781 0.992058
vn -0.000003 -0.125781 0.992058
vn -0.000003 -0.125781 0.992058
vn 0.000000 1.000000 0.000000
vn 0.000000 1.000000 0.000000
vn 0.000000 1.000000 0.000000
vn 0.000000 1.000000 0.000000
vn -0.992058 0.125780 0.000000
vn -0.992058 0.125780 0.000000
vn -0.992058 0.125780 0.000000
vn -0.992058 0.125780 0.000000
vn 0.000000 -1.000000 0.000000
vn 0.000000 -1.000000 0.000000
vn 0.000000 -1.000000 0.000000
vn 0.000000 -1.000000 0.000000
vn 0.992058 0.125780 0.000000
vn 0.992058 0.125780 0.000000
vn 0.992058 0.125780 0.000000
vn 0.992058 0.125780 0.000000
vn 0.000000 -0.128547 -0.991704
vn 0.000000 -0.128547 -0.991704
vn 0.000000 -0.128547 -0.991704
vn 0.000000 -0.128547 -0.991704
vn 0.000001 -0.125535 -0.992089
vn 0.000001 -0.125535 -0.992089
vn 0.000001 -0.125535 -0.992089
vn 0.000001 -0.125535 -0.992089
vn 0.000000 -0.128547 -0.991704
vn 0.000000 -0.128547 -0.991704
vn 0.000000 -0.128547 -0.991704
vn 0.000000 -0.128547 -0.991704
vn 0.000000 -0.125535 -0.992089
vn 0.000000 -0.125535 -0.992089
vn 0.000000 -0.125535 -0.992089
vn 0.000000 -0.125535 -0.992089
vn 0.000000 1.000000 0.000000
vn 0.000000 1.000000 0.000000
vn 0.000000 1.000000 0.000000
vn 0.000000 1.000000 0.000000
vn 0.992126 0.125241 0.000000
vn 0.992126 0.125241 0.000000
vn 0.992126 0.125241 0.000000
vn 0.992126 0.125241 0.000000
vn 0.000000 -1.000000 0.000000
vn 0.000000 -1.000000 0.000000
vn 0.000000 -1.000000 0.000000
vn 0.000000 -1.000000 0.000000
vn -0.992126 0.125241 0.000000
vn -0.992126 0.125241 0.000000
vn -0.992126 0.125241 0.000000
vn -0.992126 0.125241 0.000000
vn -0.992058 -0.125781 0.000000
vn -0.992058 -0.125781 0.000000
vn -0.992058 -0.125781 0.000000
vn -0.992058 -0.125781 0.000000
vn -0.992058 -0.125780 0.000001
vn -0.992058 -0.125780 0.000001
vn -0.992058 -0.125780 0.000001
vn -0.992058 -0.125780 0.000001
vn -0.992058 -0.125780 0.000000
vn -0.992058 -0.125780 0.000000
vn -0.992058 -0.125780 0.000000
vn -0.992058 -0.125780 0.000000
vn -0.992058 -0.125780 -0.000000
vn -0.992058 -0.125780 -0.000000
vn -0.992058 -0.125780 -0.000000
vn -0.992058 -0.125780 -0.000000
vn 0.000000 1.000000 0.000000
vn 0.000000 1.000000 0.000000
vn 0.000000 1.000000 0.000000
vn 0.000000 1.000000 0.000000
vn 0.000000 0.125781 -0.992058
vn 0.000000 0.125781 -0.992058
vn 0.000000 0.125781 -0.992058
vn 0.000000 0.125781 -0.992058
vn 0.000000 -1.000000 0.000000
vn 0.000000 -1.000000 0.000000
vn 0.000000 -1.000000 0.000000
vn 0.000000 -1.000000 0.000000
vn 0.000000 0.125780 0.992058
vn 0.000000 0.125780 0.992058
vn 0.000000 0.125780 0.992058
vn 0.000000 0.125780 0.992058
vn 0.992058 -0.125780 -0.000000
vn 0.992058 -0.125780 -0.000000
vn 0.992058 -0.125780 -0.000000
vn 0.992058 -0.125780 -0.000000
vn 0.992058 -0.125780 0.000002
vn 0.992058 -0.125780 0.000002
vn 0.992058 -0.125780 0.000002
vn 0.992058 -0.125780 0.000002
vn 0.992058 -0.125784 0.000000
vn 0.992058 -0.125784 0.000000
vn 0.992058 -0.125784 0.000000
vn 0.992058 -0.125784 0.000000
vn 0.992058 -0.125780 -0.000001
vn 0.992058 -0.125780 -0.000001
vn 0.992058 -0.125780 -0.000001
vn 0.992058 -0.125780 -0.000001
vn 0.000000 -1.000000 0.000001
vn 0.000000 -1.000000 0.000001
vn 0.000000 -1.000000 0.000001
vn 0.000000 -1.000000 0.000001
vn 0.000000 0.125780 -0.992058
vn 0.000000 0.125780 -0.992058
vn 0.000000 0.125780 -0.992058
vn 0.000000 0.125780 -0.992058
vn 0.000000 1.000000 0.000000
vn 0.000000 1.000000 0.000000
vn 0.000000 1.000000 0.000000
vn 0.000000 1.000000 0.000000
vn 0.000000 0.125780 0.992058
vn 0.000000 0.125780 0.992058
vn 0.000000 0.125780 0.992058
vn 0.000000 0.125780 0.992058
vn 1.000000 -0.000000 0.000000
vn 1.000000 -0.000000 0.000000
vn 1.000000 -0.000000 0.000000
vn 1.000000 -0.000000 0.000000
vn 0.000000 1.000000 0.000000
vn 0.000000 1.000000 0.000000
vn 0.000000 1.000000 0.000000
vn 0.000000 1.000000 0.000000
vn -1.000000 0.000000 0.000000
vn -1.000000 0.000000 0.000000
vn -1.000000 0.000000 0.000000
vn -1.000000 0.000000 0.000000
vn -0.000001 -1.000000 0.000000
vn -0.000001 -1.000000 0.000000
vn -0.000001 -1.000000 0.000000
vn -0.000001 -1.000000 0.000000
vn 0.000000 0.000000 -1.000000
vn 0.000000 0.000000 -1.000000
vn 0.000000 0.000000 -1.000000
vn 0.000000 0.000000 -1.000000
vn -0.000000 -0.000000 1.000000
vn -0.000000 -0.000000 1.000000
vn -0.000000 -0.000000 1.000000
vn -0.000000 -0.000000 1.000000
vn 0.000000 0.000001 1.000000
vn 0.000000 0.000001 1.000000
vn 0.000000 0.000001 1.000000
vn 0.000000 0.000001 1.000000
vn -1.000000 0.000000 0.000000
vn -1.000000 0.000000 0.000000
vn -1.000000 0.000000 0.000000
vn -1.000000 0.000000 0.000000
vn -0.000000 0.000000 -1.000000
vn -0.000000 0.000000 -1.000000
vn -0.000000 0.000000 -1.000000
vn -0.000000 0.000000 -1.000000
vn 1.000000 -0.000001 0.000000
vn 1.000000 -0.000001 0.000000
vn 1.000000 -0.000001 0.000000
vn 1.000000 -0.000001 0.000000
vn -0.000000 0.000000 1.000000
vn -0.000000 0.000000 1.000000
vn -0.000000 0.000000 1.000000
vn -0.000000 0.000000 1.000000
vn -1.000000 0.000000 0.000000
vn -1.000000 0.000000 0.000000
vn -1.000000 0.000000 0.000000
vn -1.000000 0.000000 0.000000
vn -0.000001 0.000000 -1.000000
vn -0.000001 0.000000 -1.000000
vn -0.000001 0.000000 -1.000000
vn -0.000001 0.000000 -1.000000
vn 1.000000 0.000000 0.000001
vn 1.000000 0.000000 0.000001
vn 1.000000 0.000000 0.000001
vn 1.000000 0.000000 0.000001
vn 0.000002 -1.000000 0.000000
vn 0.000002 -1.000000 0.000000
vn 0.000002 -1.000000 0.000000
vn 0.000002 -1.000000 0.000000
vn 1.000000 0.000000 0.000000
vn 1.000000 0.000000 0.000000
vn 1.000000 0.000000 0.000000
vn 1.000000 0.000000 0.000000
vn -0.000002 1.000000 -0.000000
vn -0.000002 1.000000 -0.000000
vn -0.000002 1.000000 -0.000000
vn -0.000002 1.000000 -0.000000
vn -1.000000 0.000000 0.000000
vn -1.000000 0.000000 0.000000
vn -1.000000 0.000000 0.000000
vn -1.000000 0.000000 0.000000
vn -1.000000 0.000000 0.000000
vn -1.000000 0.000000 0.000000
vn -1.000000 0.000000 0.000000
vn -1.000000 0.000000 0.000000
vn -0.000002 1.000000 0.000000
vn -0.000002 1.000000 0.000000
vn -0.000002 1.000000 0.000000
vn -0.000002 1.000000 0.000000
vn 1.000000 0.000000 0.000000
vn 1.000000 0.000000 0.000000
vn 1.000000 0.000000 0.000000
vn 1.000000 0.000000 0.000000
vn 0.000002 -1.000000 -0.000000
vn 0.000002 -1.000000 -0.000000
vn 0.000002 -1.000000 -0.000000
vn 0.000002 -1.000000 -0.000000
vn -1.000000 0.000000 -0.000000
vn -1.000000 0.000000 -0.000000
vn -1.000000 0.000000 -0.000000
vn -1.000000 0.000000 -0.000000
vn -0.000002 1.000000 0.000000
vn -0.000002 1.000000 0.000000
vn -0.000002 1.000000 0.000000
vn -0.000002 1.000000 0.000000
vn 1.000000 0.000000 -0.000000
vn 1.000000 0.000000 -0.000000
vn 1.000000 0.000000 -0.000000
vn 1.000000 0.000000 -0.000000
vn 0.000000 -0.000000 1.000000
vn 0.000000 -0.000000 1.000000
vn 0.000000 -0.000000 1.000000
vn 0.000000 -0.000000 1.000000
vn -1.000000 0.000000 0.000000
vn -1.000000 0.000000 0.000000
vn -1.000000 0.000000 0.000000
vn -1.000000 0.000000 0.000000
vn -0.000000 -0.000000 -1.000000
vn -0.000000 -0.000000 -1.000000
vn -0.000000 -0.000000 -1.000000
vn -0.000000 -0.000000 -1.000000
vn 1.000000 -0.000000 0.000000
vn 1.000000 -0.000000 0.000000
vn 1.000000 -0.000000 0.000000
vn 1.000000 -0.000000 0.000000
vn -1.000000 0.000000 0.000000
vn -1.000000 0.000000 0.000000
vn -1.000000 0.000000 0.000000
vn -1.000000 0.000000 0.000000
vn 0.000000 0.000000 -1.000000
vn 0.000000 0.000000 -1.000000
vn 0.000000 0.000000 -1.000000
vn 0.000000 0.000000 -1.000000
vn 1.000000 0.000000 0.000000
vn 1.000000 0.000000 0.000000
vn 1.000000 0.000000 0.000000
vn 1.000000 0.000000 0.000000
vn 0.000003 -0.738886 0.673830
vn 0.000003 -0.738886 0.673830
vn 0.000003 -0.738886 0.673830
vn 0.000003 -0.738886 0.673830
vn 1.000000 0.000000 0.000000
vn 1.000000 0.000000 0.000000
vn 1.000000 0.000000 0.000000
vn 1.000000 0.000000 0.000000
vn -0.000003 0.743746 -0.668463
vn -0.000003 0.743746 -0.668463
vn -0.000003 0.743746 -0.668463
vn -0.000003 0.743746 -0.668463
vn -1.000000 0.000000 0.000000
vn -1.000000 0.000000 0.000000
vn -1.000000 0.000000 0.000000
vn -1.000000 0.000000 0.000000
f 1/1/1 2/2/2 3/3/3 4/4/4
f 4/5/5 3/6/6 5/7/7 6/8/8
f 6/9/9 5/10/10 7/11/11 8/12/12
f 8/13/13 7/14/14 2/15/15 1/16/16
f 2/2/17 7/11/18 5/10/19 3/3/20
f 8/17/21 1/1/22 4/4/23 6/18/24
f 53/19/25 54/20/26 55/21/27 56/22/28
f 29/23/29 30/24/30 31/25/31 32/26/32
f 61/27/33 62/28/34 63/29/35 64/30/36
f 15/31/37 16/32/38 10/33/39 9/34/40
f 38/35/41 37/36/42 39/37/43 40/38/44
f 45/39/45 46/40/46 47/41/47 48/42/48
f 11/43/49 12/44/50 18/45/51 17/46/52
f 12/44/53 14/47/54 19/48/55 18/45/56
f 14/49/57 13/50/58 20/51/59 19/52/60
f 13/50/61 11/43/62 17/46/63 20/51/64
f 17/46/65 18/45/66 22/53/67 21/54/68
f 18/45/69 19/48/70 23/55/71 22/53/72
f 19/52/73 20/51/74 24/56/75 23/57/76
f 20/51/77 17/46/78 21/54/79 24/56/80
f 21/58/81 22/59/82 26/60/83 25/61/84
f 22/59/85 23/62/86 27/63/87 26/60/88
f 23/64/89 24/65/90 28/66/91 27/67/92
f 24/65/93 21/58/94 25/61/95 28/66/96
f 25/61/97 26/60/98 30/68/99 29/69/100
f 26/60/101 27/63/102 31/70/103 30/68/104
f 27/67/105 28/66/106 32/71/107 31/72/108
f 28/66/109 25/61/110 29/69/111 32/71/112
f 10/73/113 16/74/114 33/75/115 34/76/116
f 16/74/117 14/77/118 35/78/119 33/75/120
f 14/77/121 12/79/122 36/80/123 35/78/124
f 12/79/125 10/73/126 34/76/127 36/80/128
f 34/76/129 33/75/130 37/81/131 38/82/132
f 33/75/133 35/78/134 39/83/135 37/81/136
f 35/78/137 36/80/138 40/84/139 39/83/140
f 36/80/141 34/76/142 38/82/143 40/84/144
f 15/85/145 9/86/146 42/87/147 41/88/148
f 9/86/149 11/89/150 43/90/151 42/87/152
f 11/89/153 13/91/154 44/92/155 43/90/156
f 13/91/157 15/85/158 41/88/159 44/92/160
f 41/88/161 42/87/162 46/93/163 45/94/164
f 42/87/165 43/90/166 47/95/167 46/93/168
f 43/90/169 44/92/170 48/96/171 47/95/172
f 44/92/173 41/88/174 45/94/175 48/96/176
f 9/86/177 10/73/178 50/97/179 49/98/180
f 10/73/181 12/79/182 51/99/183 50/97/184
f 12/79/185 11/89/186 52/100/187 51/99/188
f 11/89/189 9/86/190 49/98/191 52/100/192
f 49/98/193 50/97/194 54/101/195 53/102/196
f 50/97/197 51/99/198 55/103/199 54/101/200
f 51/99/201 52/100/202 56/104/203 55/103/204
f 52/100/205 49/98/206 53/102/207 56/104/208
f 13/91/209 14/105/210 58/106/211 57/107/212
f 14/105/213 16/108/214 59/109/215 58/106/216
f 16/108/217 15/85/218 60/110/219 59/109/220
f 15/85/221 13/91/222 57/107/223 60/110/224
f 57/107/225 58/106/226 62/111/227 61/112/228
f 58/106/229 59/109/230 63/113/231 62/111/232
f 59/109/233 60/110/234 64/114/235 63/113/236
f 60/110/237 57/107/238 61/112/239 64/114/240
f 65/115/241 66/116/242 67/117/243 68/118/244
f 69/119/245 70/120/246 71/121/247 72/122/248
f 73/123/249 74/124/250 75/125/251 76/126/252
f 76/127/253 75/128/254 66/129/255 65/130/256
f 66/116/257 75/125/258 74/124/259 67/117/260
f 76/131/261 65/132/262 68/133/263 73/134/264
f 77/135/265 78/136/266 69/137/267 72/138/268
f 72/138/269 71/139/270 79/140/271 77/135/272
f 80/141/273 79/140/274 71/139/275 70/142/276
f 78/143/277 80/141/278 70/142/279 69/144/280
f 81/145/281 82/146/282 83/147/283 84/148/284
f 77/135/285 79/140/286 85/149/287 86/150/288
f 87/151/289 85/149/290 79/140/291 80/141/292
f 88/152/293 87/151/294 80/141/295 78/143/296
f 86/153/297 88/154/298 89/155/299 90/156/300
f 88/157/301 78/158/302 91/159/303 89/160/304
f 78/158/305 77/161/306 92/162/307 91/159/308
f 77/161/309 86/163/310 90/164/311 92/162/312
f 92/162/313 90/164/314 94/165/315 95/166/316
f 91/159/317 92/162/318 95/166/319 96/167/320
f 89/168/321 91/159/322 96/167/323 93/169/324
f 94/165/325 93/170/326 82/171/327 81/172/328
f 95/166/329 94/165/330 81/172/331 84/173/332
f 96/167/333 95/166/334 84/173/335 83/174/336
f 93/175/337 96/167/338 83/174/339 82/176/340
f 97/177/341 98/178/342 88/179/343 86/180/344
f 86/150/345 85/149/346 99/181/347 97/182/348
f 100/183/349 99/181/350 85/149/351 87/151/352
f 98/184/353 100/183/354 87/151/355 88/152/356
f 97/182/357 99/181/358 74/124/359 73/123/360
f 67/117/361 74/124/362 99/181/363 100/183/364
f 68/118/365 67/117/366 100/183/367 98/184/368
f 73/185/369 68/186/370 93/187/371 94/188/372
f 68/186/373 98/189/374 89/190/375 93/187/376
f 98/191/377 97/192/378 90/193/379 89/194/380
f 97/192/381 73/185/382 94/188/383 90/193/384
