# This file uses centimeters as units for non-parametric coordinates.

mtllib alter.mtl
v 3.981210 19.791054 2.887985
v 3.899219 20.819738 -2.569157
v 3.966280 19.941380 2.916546
v 3.884290 20.970062 -2.540596
v -3.449535 19.861706 3.012946
v -3.531525 20.890390 -2.444196
v -3.460587 19.710987 2.984700
v -3.542577 20.739670 -2.472442
v -0.216183 19.491852 2.894648
v -0.067372 19.432785 2.881278
v 0.224435 19.400162 2.870744
v 0.516186 19.437267 2.873355
v 0.664773 19.500231 2.882992
v 0.664665 19.349051 2.854495
v 0.516075 19.286154 2.844872
v 0.224325 19.249073 2.842265
v -0.067478 19.281689 2.852797
v -0.216292 19.340717 2.866160
v 0.582688 20.377737 -2.602647
v 0.434093 20.314838 -2.612271
v 0.142335 20.277760 -2.614877
v -0.149477 20.310375 -2.604344
v -0.298295 20.369404 -2.590981
v 0.582783 20.528915 -2.574151
v 0.434196 20.465952 -2.583787
v 0.142445 20.428846 -2.586398
v -0.149362 20.461470 -2.575864
v -0.298174 20.520536 -2.562494
v -4.980919 0.000000 4.980918
v -3.790390 2.345325 3.790391
v -4.980919 0.000000 -4.980918
v -3.790390 2.345325 -3.790391
v 4.980919 0.000000 4.980918
v 3.790390 2.345325 3.790391
v 4.980919 0.000000 -4.980918
v 3.790390 2.345325 -3.790391
v -4.980919 1.652682 4.980918
v -4.980919 1.652682 -4.980918
v 4.980919 1.652682 -4.980918
v 4.980919 1.652682 4.980918
v -3.790390 17.288080 3.790392
v -3.790390 17.288080 -3.790390
v 3.790390 17.288080 -3.790390
v 3.790390 17.288080 3.790392
v -3.185436 18.730856 3.185438
v -3.185436 18.730856 -3.185436
v 3.185436 18.730856 -3.185436
v 3.185436 18.730856 3.185438
v 3.835618 19.860867 2.674356
v 3.759608 20.814526 -2.384780
v 3.664337 20.509472 2.799194
v 3.588327 21.463131 -2.259943
v -3.148509 20.437435 2.887974
v -3.224519 21.391094 -2.171163
v -3.326035 19.783615 2.767394
v -3.402045 20.737274 -2.291743
v -2.215584 20.724043 2.927983
v 0.225321 20.269775 2.805679
v 2.667737 20.802437 2.869391
v 2.869619 19.732197 2.664616
v 0.224674 19.381443 2.638236
v -2.433063 19.682161 2.734853
v 2.793729 20.685871 -2.394520
v 0.148664 20.335106 -2.420900
v -2.509197 20.635836 -2.324279
v 2.591726 21.756096 -2.189745
v 0.149310 21.223434 -2.253457
v -2.291594 21.677702 -2.131154
vt 0.995493 0.546562
vt 0.546546 0.431211
vt 0.959400 0.642009
vt 0.983240 0.435242
vt 0.995450 0.405481
vt 0.983863 0.732064
vt 0.995911 0.844124
vt 0.497745 0.981656
vt 0.784396 0.432318
vt 0.703358 0.641601
vt 0.976011 0.116179
vt 0.733912 0.115053
vt 0.982847 0.299319
vt 0.995548 0.992017
vt 0.758600 0.982072
vt 0.982605 0.883363
vt 0.743083 0.115095
vt 0.759854 0.115173
vt 0.776643 0.115251
vt 0.713265 0.641616
vt 0.731290 0.641645
vt 0.749297 0.641674
vt 0.995960 0.849324
vt 0.995919 0.859161
vt 0.994910 0.868697
vt 0.775168 0.432275
vt 0.758380 0.432197
vt 0.741608 0.432119
vt 0.983013 0.113576
vt 0.732437 0.432076
vt 0.983429 0.405828
vt 0.548021 0.114188
vt 0.785871 0.115294
vt 0.983455 0.546406
vt 0.974537 0.433202
vt 0.983958 0.843465
vt 0.982964 0.868038
vt 0.983973 0.858503
vt 0.984014 0.848666
vt 0.983171 0.410659
vt 0.983031 0.420322
vt 0.983112 0.430141
vt 0.958857 0.982392
vt 0.994564 0.882740
vt 0.994891 0.299321
vt 0.759143 0.641690
vt 0.498288 0.641273
vt 0.995263 0.434895
vt 0.702814 0.981983
vt 0.995900 0.732220
vt 0.748754 0.982056
vt 0.730747 0.982028
vt 0.712721 0.981999
vt 0.995188 0.410312
vt 0.995047 0.419975
vt 0.995131 0.429794
vt 0.983520 0.992275
vt 0.995056 0.113578
vt 0.996947 0.008909
vt 0.996520 0.060440
vt 0.748007 0.060440
vt 0.747941 0.009036
vt 0.500691 0.059464
vt 0.500691 0.008434
vt 0.254052 0.060440
vt 0.254052 0.008661
vt 0.006705 0.060440
vt 0.005902 0.008769
vt 0.428654 0.226948
vt 0.524203 0.226802
vt 0.524349 0.322351
vt 0.430248 0.322472
vt 0.106726 0.112355
vt 0.206546 0.112383
vt 0.206546 0.300132
vt 0.106726 0.300132
vt 0.996314 0.105982
vt 0.747875 0.106359
vt 0.500691 0.105904
vt 0.254052 0.106157
vt 0.006128 0.106067
vt 0.008992 0.300132
vt 0.106726 0.327788
vt 0.009009 0.327609
vt 0.305980 0.112531
vt 0.405747 0.112398
vt 0.405559 0.300132
vt 0.305980 0.300132
vt 0.008915 0.112478
vt 0.424049 0.114530
vt 0.520259 0.114530
vt 0.520259 0.210740
vt 0.424049 0.210739
vt 0.305980 0.327015
vt 0.206546 0.327377
vt 0.405545 0.326968
vt 0.524971 0.455998
vt 0.942380 0.455942
vt 0.942387 0.511260
vt 0.524978 0.511316
vt 0.520740 0.454609
vt 0.945365 0.456058
vt 0.945130 0.512807
vt 0.520560 0.511356
vt 0.889370 0.600621
vt 0.739516 0.588516
vt 0.732441 0.534606
vt 0.892930 0.534060
vt 0.702652 0.589906
vt 0.552193 0.600886
vt 0.546589 0.535479
vt 0.709016 0.535416
vt 0.009041 0.985349
vt 0.010732 0.652341
vt 0.078070 0.652683
vt 0.076379 0.985692
vt 0.078978 0.338282
vt 0.077286 0.640070
vt 0.020170 0.639751
vt 0.021855 0.337963
vt 0.491173 0.534297
vt 0.549784 0.534312
vt 0.553189 0.600881
vt 0.496148 0.575037
vt 0.951549 0.534188
vt 0.946473 0.574916
vt 0.492013 0.535526
vt 0.498005 0.576855
vt 0.444958 0.340325
vt 0.443273 0.642113
vt 0.390569 0.641819
vt 0.392247 0.340031
vt 0.890942 0.599818
vt 0.896554 0.534320
vt 0.951199 0.534361
vt 0.945203 0.575748
vt 0.398888 0.987329
vt 0.400579 0.654320
vt 0.463754 0.654641
vt 0.462063 0.987650
vt 0.235372 0.339155
vt 0.233687 0.640943
vt 0.710281 0.534446
vt 0.703074 0.588338
vt 0.733896 0.534274
vt 0.740275 0.588838
vt 0.238112 0.986513
vt 0.239803 0.653504
vn 0.995164 0.098160 0.003551
vn 0.995164 0.098160 0.003551
vn 0.995164 0.098160 0.003551
vn 0.995164 0.098160 0.003551
vn -0.997303 0.067925 0.027788
vn -0.997303 0.067925 0.027788
vn -0.997303 0.067925 0.027788
vn -0.997303 0.067925 0.027788
vn 0.014763 -0.185220 0.982586
vn 0.014762 -0.185218 0.982587
vn 0.014762 -0.185219 0.982587
vn 0.014763 -0.185220 0.982586
vn 0.014762 -0.185222 0.982586
vn 0.014762 -0.185222 0.982586
vn 0.014763 -0.185223 0.982586
vn 0.014763 -0.185223 0.982586
vn 0.014763 -0.185220 0.982586
vn 0.014763 -0.185220 0.982586
vn -0.131996 0.973732 0.185534
vn -0.131996 0.973732 0.185534
vn -0.144346 0.972005 0.185394
vn -0.144346 0.972005 0.185394
vn 0.143945 -0.972063 -0.185399
vn 0.143945 -0.972063 -0.185399
vn 0.131651 -0.973778 -0.185537
vn 0.131651 -0.973778 -0.185537
vn -0.014762 0.185218 -0.982587
vn -0.014762 0.185219 -0.982587
vn -0.014762 0.185219 -0.982587
vn -0.014762 0.185219 -0.982587
vn 0.014763 -0.185220 0.982586
vn 0.014763 -0.185220 0.982586
vn 0.014763 -0.185220 0.982586
vn 0.014763 -0.185220 0.982586
vn -0.118065 -0.976142 -0.182231
vn -0.118065 -0.976142 -0.182231
vn -0.130380 -0.974660 -0.181767
vn -0.130380 -0.974660 -0.181767
vn -0.014763 0.185217 -0.982587
vn -0.014763 0.185217 -0.982587
vn -0.014763 0.185217 -0.982587
vn -0.014763 0.185217 -0.982587
vn 0.130676 0.974622 0.181755
vn 0.130676 0.974622 0.181755
vn 0.118322 0.976112 0.182222
vn 0.118322 0.976112 0.182222
vn -0.209623 -0.961429 -0.178082
vn -0.209623 -0.961429 -0.178082
vn 0.005000 -0.982667 -0.185310
vn 0.005000 -0.982667 -0.185310
vn 0.222487 -0.957449 -0.183824
vn 0.222487 -0.957449 -0.183824
vn -0.014763 0.185218 -0.982587
vn -0.014763 0.185218 -0.982587
vn -0.014762 0.185221 -0.982586
vn -0.014762 0.185221 -0.982586
vn -0.014762 0.185223 -0.982586
vn -0.014762 0.185223 -0.982586
vn 0.209724 0.961408 0.178077
vn 0.209724 0.961408 0.178077
vn -0.005032 0.982667 0.185311
vn -0.005032 0.982667 0.185311
vn -0.222687 0.957403 0.183818
vn -0.222687 0.957403 0.183818
vn -1.000000 0.000000 0.000000
vn -1.000000 0.000000 0.000000
vn -1.000000 0.000000 0.000000
vn -1.000000 0.000000 0.000000
vn 0.000000 0.000000 -1.000000
vn 0.000000 0.000000 -1.000000
vn 0.000000 0.000000 -1.000000
vn 0.000000 0.000000 -1.000000
vn 1.000000 0.000000 0.000000
vn 1.000000 0.000000 0.000000
vn 1.000000 0.000000 0.000000
vn 1.000000 0.000000 0.000000
vn 0.000000 0.000000 1.000000
vn 0.000000 0.000000 1.000000
vn 0.000000 0.000000 1.000000
vn 0.000000 0.000000 1.000000
vn 0.000000 -1.000000 0.000000
vn 0.000000 -1.000000 0.000000
vn 0.000000 -1.000000 0.000000
vn 0.000000 -1.000000 0.000000
vn 1.000000 0.000000 0.000000
vn 1.000000 0.000000 0.000000
vn 1.000000 0.000000 0.000000
vn 1.000000 0.000000 0.000000
vn -0.502876 0.864359 0.000000
vn -0.502876 0.864359 0.000000
vn -0.502876 0.864359 0.000000
vn -0.502876 0.864359 0.000000
vn 0.000000 0.864359 -0.502876
vn 0.000000 0.864359 -0.502876
vn 0.000000 0.864359 -0.502876
vn 0.000000 0.864359 -0.502876
vn 0.502876 0.864359 0.000000
vn 0.502876 0.864359 0.000000
vn 0.502876 0.864359 0.000000
vn 0.502876 0.864359 0.000000
vn 0.000000 0.864359 0.502876
vn 0.000000 0.864359 0.502876
vn 0.000000 0.864359 0.502876
vn 0.000000 0.864359 0.502876
vn 0.000000 0.386702 0.922205
vn 0.000000 0.386702 0.922205
vn 0.000000 0.386702 0.922205
vn 0.000000 0.386702 0.922205
vn -1.000000 0.000000 0.000000
vn -1.000000 0.000000 0.000000
vn -1.000000 0.000000 0.000000
vn -1.000000 0.000000 0.000000
vn 0.000000 0.000000 1.000000
vn 0.000000 0.000000 1.000000
vn 0.000000 0.000000 1.000000
vn 0.000000 0.000000 1.000000
vn 0.000000 0.000000 -1.000000
vn 0.000000 0.000000 -1.000000
vn 0.000000 0.000000 -1.000000
vn 0.000000 0.000000 -1.000000
vn 0.000000 1.000000 0.000000
vn 0.000000 1.000000 0.000000
vn 0.000000 1.000000 0.000000
vn 0.000000 1.000000 0.000000
vn 0.000000 0.386702 -0.922205
vn 0.000000 0.386702 -0.922205
vn 0.000000 0.386702 -0.922205
vn 0.000000 0.386702 -0.922205
vn 0.922205 0.386702 0.000000
vn 0.922205 0.386702 0.000000
vn 0.922205 0.386702 0.000000
vn 0.922205 0.386702 0.000000
vn -0.922205 0.386702 0.000000
vn -0.922205 0.386702 0.000000
vn -0.922205 0.386702 0.000000
vn -0.922205 0.386702 0.000000
vn 0.967871 0.249344 0.032460
vn 0.967871 0.249344 0.032460
vn 0.967871 0.249344 0.032460
vn 0.967871 0.249344 0.032460
vn -0.966037 0.250901 0.061809
vn -0.966037 0.250901 0.061809
vn -0.966037 0.250901 0.061809
vn -0.966037 0.250901 0.061809
vn 0.014763 -0.185220 0.982586
vn 0.014763 -0.185220 0.982586
vn 0.014763 -0.185220 0.982586
vn 0.014763 -0.185220 0.982586
vn 0.014763 -0.185220 0.982586
vn 0.014763 -0.185220 0.982586
vn 0.288977 0.941549 0.173142
vn 0.288977 0.941549 0.173142
vn -0.067971 0.980234 0.185798
vn -0.067971 0.980234 0.185798
vn 0.131152 -0.973844 -0.185543
vn 0.131152 -0.973844 -0.185543
vn 0.131578 -0.973788 -0.185538
vn 0.131578 -0.973788 -0.185538
vn -0.014763 0.185219 -0.982586
vn -0.014763 0.185220 -0.982586
vn -0.014763 0.185220 -0.982586
vn -0.014763 0.185219 -0.982586
vn 0.014763 -0.185219 0.982586
vn 0.014763 -0.185219 0.982586
vn 0.014763 -0.185220 0.982586
vn 0.014763 -0.185220 0.982586
vn -0.117550 -0.976200 -0.182250
vn -0.117550 -0.976200 -0.182250
vn -0.117203 -0.976240 -0.182263
vn -0.117203 -0.976240 -0.182263
vn -0.014763 0.185220 -0.982586
vn -0.014763 0.185220 -0.982586
vn -0.014763 0.185220 -0.982586
vn -0.014763 0.185220 -0.982586
vn 0.053265 0.981444 0.184204
vn 0.053265 0.981444 0.184204
vn -0.295899 0.937868 0.181236
vn -0.295899 0.937868 0.181236
vn 0.006817 -0.982652 -0.185335
vn 0.006817 -0.982652 -0.185335
vn -0.014763 0.185220 -0.982586
vn -0.014763 0.185220 -0.982586
vn -0.013549 0.982566 0.185420
vn -0.013549 0.982566 0.185420
s off
usemtl initialShadingGroup
f 1/1/1 2/50/2 4/6/3 3/34/4
f 5/13/5 6/29/6 8/58/7 7/45/8
s 1
f 13/4/9 12/42/10 15/56/11 14/48/12
f 12/42/10 11/41/13 16/55/14 15/56/11
f 11/41/13 10/40/15 17/54/16 16/55/14
f 10/40/15 9/31/17 18/5/18 17/54/16
s 2
f 3/11/19 4/35/20 24/9/21 13/33/22
s 3
f 14/10/23 19/49/24 2/8/25 1/47/26
s 4
f 2/50/27 19/7/28 24/36/29 4/6/30
s 1
f 13/4/9 14/48/12 1/1/31 3/34/32
f 7/45/33 18/5/18 9/31/17 5/13/34
s 3
f 7/3/35 8/43/36 23/15/37 18/46/38
s 4
f 28/16/39 23/44/40 8/14/41 6/57/42
s 2
f 9/12/43 28/30/44 6/2/45 5/32/46
s 3
f 17/22/47 18/46/38 23/15/37 22/51/48
f 16/21/49 17/22/47 22/51/48 21/52/50
f 14/10/23 15/20/51 20/53/52 19/49/24
f 15/20/51 16/21/49 21/52/50 20/53/52
s 4
f 22/25/53 23/44/40 28/16/39 27/37/54
f 21/24/55 22/25/53 27/37/54 26/38/56
f 19/7/28 20/23/57 25/39/58 24/36/29
f 20/23/57 21/24/55 26/38/56 25/39/58
s 2
f 9/12/43 10/17/59 27/28/60 28/30/44
f 10/17/59 11/18/61 26/27/62 27/28/60
f 11/18/61 12/19/63 25/26/64 26/27/62
f 12/19/63 13/33/22 24/9/21 25/26/64
s off
f 29/59/65 37/60/66 38/61/67 31/62/68
f 31/62/69 38/61/70 39/63/71 35/64/72
f 35/64/73 39/63/74 40/65/75 33/66/76
f 33/66/77 40/65/78 37/67/79 29/68/80
f 31/69/81 35/70/82 33/71/83 29/72/84
f 34/73/85 36/74/86 43/75/87 44/76/88
f 30/77/89 32/78/90 38/61/91 37/60/92
f 32/78/93 36/79/94 39/63/95 38/61/96
f 36/79/97 34/80/98 40/65/99 39/63/100
f 34/80/101 30/81/102 37/67/103 40/65/104
f 41/82/105 44/76/106 48/83/107 45/84/108
f 32/85/109 30/86/110 41/87/111 42/88/112
f 30/89/113 34/73/114 44/76/115 41/82/116
f 36/74/117 32/85/118 42/88/119 43/75/120
f 47/90/121 46/91/122 45/92/123 48/93/124
f 43/75/125 42/88/126 46/94/127 47/95/128
f 44/76/129 43/75/130 47/95/131 48/83/132
f 42/88/133 41/87/134 45/96/135 46/94/136
f 49/97/137 50/98/138 52/99/139 51/100/140
f 53/101/141 54/102/142 56/103/143 55/104/144
s 8
f 59/105/145 58/106/146 61/107/147 60/108/148
f 58/109/146 57/110/149 62/111/150 61/112/147
s 9
f 51/113/151 52/114/152 66/115/153 59/116/154
s 10
f 60/117/155 63/118/156 50/119/157 49/120/158
s 11
f 50/121/159 63/122/160 66/123/161 52/124/162
s 8
f 59/105/145 60/108/148 49/125/163 51/126/164
f 55/127/165 62/111/150 57/110/149 53/128/166
s 10
f 55/129/167 56/130/168 65/131/169 62/132/170
s 11
f 68/133/171 65/134/172 56/135/173 54/136/174
s 9
f 57/137/175 68/138/176 54/139/177 53/140/178
s 10
f 60/117/155 61/141/179 64/142/180 63/118/156
f 61/141/179 62/132/170 65/131/169 64/142/180
s 11
f 63/122/160 64/143/181 67/144/182 66/123/161
f 64/145/181 65/134/172 68/133/171 67/146/182
s 9
f 57/137/175 58/147/183 67/148/184 68/138/176
f 58/147/183 59/116/154 66/115/153 67/148/184
