# This file uses centimeters as units for non-parametric coordinates.

v 11.000000 1.366678 -1.106705
v 10.999996 1.366678 -1.592474
v 11.000000 22.470459 -1.106705
v 10.999996 22.470459 -1.592474
v -11.000000 22.470459 -1.106705
v -11.000002 22.470459 -1.592476
v -11.000000 1.366678 -1.106705
v -11.000002 1.366678 -1.592476
v 11.000000 1.366678 -1.106705
v 10.999996 1.366678 -1.592474
v 10.999996 22.470459 -1.592474
v 11.000000 22.470459 -1.106705
v -11.000002 22.470459 -1.592476
v -11.000000 22.470459 -1.106705
v -11.000002 1.366678 -1.592476
v -11.000000 1.366678 -1.106705
v -12.500001 0.000000 -2.414231
v -12.500001 0.000000 0.000000
v -12.500001 1.753668 -2.414231
v -12.500001 1.753668 0.000000
v 12.499999 1.753668 -2.414231
v 12.499999 1.753668 0.000000
v 12.499999 0.000000 -2.414231
v 12.499999 0.000000 0.000000
v 0.000000 1.753668 -2.414231
v 0.000000 0.000000 -2.414231
v 0.000000 0.000000 0.000000
v 0.000000 1.753668 0.000000
v 9.905229 0.000000 -2.414231
v 9.905229 1.753668 -2.414231
v 9.905229 1.753668 0.000000
v 9.905229 0.000000 0.000000
v -9.905230 1.753668 -2.414231
v -9.905230 0.000000 -2.414231
v -9.905230 0.000000 0.000000
v -9.905230 1.753668 0.000000
v -12.500001 21.915018 -2.414231
v -12.500001 21.915018 0.000000
v -9.905230 21.915018 0.000000
v -9.905230 21.915018 -2.414231
v 9.905229 21.915018 -2.414231
v 9.905229 21.915018 0.000000
v 12.499999 21.915018 0.000000
v 12.499999 21.915018 -2.414231
v -12.500001 23.607927 -2.414231
v -12.500001 23.607927 0.000000
v -9.905230 23.607927 0.000000
v -9.905230 23.607927 -2.414231
v 9.905229 23.607927 -2.414231
v 9.905229 23.607927 0.000000
v 12.499999 23.607927 0.000000
v 12.499999 23.607927 -2.414231
vt 0.375000 0.000000
vt 0.625000 0.000000
vt 0.625000 0.250000
vt 0.375000 0.250000
vt 0.625000 0.500000
vt 0.375000 0.500000
vt 0.625000 0.750000
vt 0.375000 0.750000
vt 0.625000 1.000000
vt 0.375000 1.000000
vt 0.875000 0.000000
vt 0.875000 0.250000
vt 0.125000 0.000000
vt 0.125000 0.250000
vt 0.375000 0.000000
vt 0.625000 0.000000
vt 0.625000 0.250000
vt 0.375000 0.250000
vt 0.625000 0.500000
vt 0.375000 0.500000
vt 0.625000 0.750000
vt 0.375000 0.750000
vt 0.625000 1.000000
vt 0.375000 1.000000
vt 0.875000 0.000000
vt 0.875000 0.250000
vt 0.125000 0.000000
vt 0.125000 0.250000
vt 0.375000 0.000000
vt 0.625000 0.000000
vt 0.625000 0.250000
vt 0.375000 0.250000
vt 0.375000 0.250000
vt 0.625000 0.250000
vt 0.625000 0.275000
vt 0.375000 0.275000
vt 0.375000 0.500000
vt 0.625000 0.500000
vt 0.625000 0.750000
vt 0.375000 0.750000
vt 0.375000 0.975000
vt 0.625000 0.975000
vt 0.625000 1.000000
vt 0.375000 1.000000
vt 0.650000 0.000000
vt 0.650000 0.250000
vt 0.350000 0.250000
vt 0.350000 0.000000
vt 0.125000 0.000000
vt 0.150000 0.000000
vt 0.150000 0.250000
vt 0.125000 0.250000
vt 0.625000 0.775000
vt 0.375000 0.775000
vt 0.850000 0.250000
vt 0.850000 0.000000
vt 0.875000 0.000000
vt 0.875000 0.250000
vt 0.375000 0.475000
vt 0.625000 0.475000
vt 0.625000 0.500000
vt 0.375000 0.500000
vt 0.250000 0.000000
vt 0.250000 0.250000
vt 0.375000 0.375000
vt 0.625000 0.375000
vt 0.625000 0.475000
vt 0.375000 0.475000
vt 0.750000 0.250000
vt 0.750000 0.000000
vt 0.625000 0.875000
vt 0.375000 0.875000
vt 0.375000 0.275000
vt 0.625000 0.275000
vt 0.625000 0.250000
vt 0.375000 0.250000
vt 0.625000 0.275000
vt 0.375000 0.275000
vt 0.625000 0.475000
vt 0.375000 0.475000
vt 0.625000 0.500000
vt 0.375000 0.500000
vn 1.000000 0.000000 -0.000181
vn 1.000000 0.000000 -0.000181
vn 1.000000 0.000000 -0.000181
vn 1.000000 0.000000 -0.000181
vn 0.000000 1.000000 -0.000000
vn 0.000000 1.000000 -0.000000
vn 0.000000 1.000000 -0.000000
vn 0.000000 1.000000 -0.000000
vn -1.000000 0.000000 0.000183
vn -1.000000 0.000000 0.000183
vn -1.000000 0.000000 0.000183
vn -1.000000 0.000000 0.000183
vn -0.000000 -1.000000 0.000000
vn -0.000000 -1.000000 0.000000
vn -0.000000 -1.000000 0.000000
vn -0.000000 -1.000000 0.000000
vn -0.000182 0.000000 -1.000000
vn -0.000182 0.000000 -1.000000
vn -0.000182 0.000000 -1.000000
vn -0.000182 0.000000 -1.000000
vn 0.000182 0.000000 1.000000
vn 0.000182 0.000000 1.000000
vn 0.000182 0.000000 1.000000
vn 0.000182 0.000000 1.000000
vn -1.000000 0.000000 0.000181
vn -1.000000 0.000000 0.000181
vn -1.000000 0.000000 0.000181
vn -1.000000 0.000000 0.000181
vn -0.000000 -1.000000 0.000000
vn -0.000000 -1.000000 0.000000
vn -0.000000 -1.000000 0.000000
vn -0.000000 -1.000000 0.000000
vn 1.000000 0.000000 -0.000183
vn 1.000000 0.000000 -0.000183
vn 1.000000 0.000000 -0.000183
vn 1.000000 0.000000 -0.000183
vn 0.000000 1.000000 -0.000000
vn 0.000000 1.000000 -0.000000
vn 0.000000 1.000000 -0.000000
vn 0.000000 1.000000 -0.000000
vn 0.000182 0.000000 1.000000
vn 0.000182 0.000000 1.000000
vn 0.000182 0.000000 1.000000
vn 0.000182 0.000000 1.000000
vn -0.000182 0.000000 -1.000000
vn -0.000182 0.000000 -1.000000
vn -0.000182 0.000000 -1.000000
vn -0.000182 0.000000 -1.000000
vn -1.000000 0.000000 0.000000
vn -1.000000 0.000000 0.000000
vn -1.000000 0.000000 0.000000
vn -1.000000 0.000000 0.000000
vn 0.000000 1.000000 0.000000
vn 0.000000 1.000000 0.000000
vn 0.000000 1.000000 0.000000
vn 0.000000 1.000000 0.000000
vn 1.000000 0.000000 0.000000
vn 1.000000 0.000000 0.000000
vn 1.000000 0.000000 0.000000
vn 1.000000 0.000000 0.000000
vn 0.000000 -1.000000 0.000000
vn 0.000000 -1.000000 0.000000
vn 0.000000 -1.000000 0.000000
vn 0.000000 -1.000000 0.000000
vn 0.000000 0.000000 1.000000
vn 0.000000 0.000000 1.000000
vn 0.000000 0.000000 1.000000
vn 0.000000 0.000000 1.000000
vn 0.000000 0.000000 -1.000000
vn 0.000000 0.000000 -1.000000
vn 0.000000 0.000000 -1.000000
vn 0.000000 0.000000 -1.000000
vn 0.000000 0.000000 -1.000000
vn 0.000000 0.000000 -1.000000
vn 0.000000 0.000000 -1.000000
vn 0.000000 0.000000 -1.000000
vn 0.000000 -1.000000 0.000000
vn 0.000000 -1.000000 0.000000
vn 0.000000 -1.000000 0.000000
vn 0.000000 -1.000000 0.000000
vn 0.000000 0.000000 1.000000
vn 0.000000 0.000000 1.000000
vn 0.000000 0.000000 1.000000
vn 0.000000 0.000000 1.000000
vn 0.000000 1.000000 0.000000
vn 0.000000 1.000000 0.000000
vn 0.000000 1.000000 0.000000
vn 0.000000 1.000000 0.000000
vn 0.000000 0.000000 -1.000000
vn 0.000000 0.000000 -1.000000
vn 0.000000 0.000000 -1.000000
vn 0.000000 0.000000 -1.000000
vn 0.000000 1.000000 0.000000
vn 0.000000 1.000000 0.000000
vn 0.000000 1.000000 0.000000
vn 0.000000 1.000000 0.000000
vn 0.000000 0.000000 1.000000
vn 0.000000 0.000000 1.000000
vn 0.000000 0.000000 1.000000
vn 0.000000 0.000000 1.000000
vn 0.000000 -1.000000 0.000000
vn 0.000000 -1.000000 0.000000
vn 0.000000 -1.000000 0.000000
vn 0.000000 -1.000000 0.000000
vn 0.000000 0.000000 -1.000000
vn 0.000000 0.000000 -1.000000
vn 0.000000 0.000000 -1.000000
vn 0.000000 0.000000 -1.000000
vn 0.000000 -1.000000 0.000000
vn 0.000000 -1.000000 0.000000
vn 0.000000 -1.000000 0.000000
vn 0.000000 -1.000000 0.000000
vn 0.000000 0.000000 1.000000
vn 0.000000 0.000000 1.000000
vn 0.000000 0.000000 1.000000
vn 0.000000 0.000000 1.000000
vn 0.000000 1.000000 0.000000
vn 0.000000 1.000000 0.000000
vn 0.000000 1.000000 0.000000
vn 0.000000 1.000000 0.000000
vn -1.000000 0.000000 0.000000
vn -1.000000 0.000000 0.000000
vn -1.000000 0.000000 0.000000
vn -1.000000 0.000000 0.000000
vn 0.000000 0.000000 1.000000
vn 0.000000 0.000000 1.000000
vn 0.000000 0.000000 1.000000
vn 0.000000 0.000000 1.000000
vn 1.000000 0.000000 0.000000
vn 1.000000 0.000000 0.000000
vn 1.000000 0.000000 0.000000
vn 1.000000 0.000000 0.000000
vn 0.000000 0.000000 -1.000000
vn 0.000000 0.000000 -1.000000
vn 0.000000 0.000000 -1.000000
vn 0.000000 0.000000 -1.000000
vn -1.000000 0.000000 0.000000
vn -1.000000 0.000000 0.000000
vn -1.000000 0.000000 0.000000
vn -1.000000 0.000000 0.000000
vn 0.000000 0.000000 1.000000
vn 0.000000 0.000000 1.000000
vn 0.000000 0.000000 1.000000
vn 0.000000 0.000000 1.000000
vn 1.000000 0.000000 0.000000
vn 1.000000 0.000000 0.000000
vn 1.000000 0.000000 0.000000
vn 1.000000 0.000000 0.000000
vn 0.000000 0.000000 -1.000000
vn 0.000000 0.000000 -1.000000
vn 0.000000 0.000000 -1.000000
vn 0.000000 0.000000 -1.000000
vn -1.000000 0.000000 0.000000
vn -1.000000 0.000000 0.000000
vn -1.000000 0.000000 0.000000
vn -1.000000 0.000000 0.000000
vn 0.000000 0.000000 1.000000
vn 0.000000 0.000000 1.000000
vn 0.000000 0.000000 1.000000
vn 0.000000 0.000000 1.000000
vn 0.000000 0.000000 -1.000000
vn 0.000000 0.000000 -1.000000
vn 0.000000 0.000000 -1.000000
vn 0.000000 0.000000 -1.000000
vn 0.000000 0.000000 1.000000
vn 0.000000 0.000000 1.000000
vn 0.000000 0.000000 1.000000
vn 0.000000 0.000000 1.000000
vn 1.000000 0.000000 0.000000
vn 1.000000 0.000000 0.000000
vn 1.000000 0.000000 0.000000
vn 1.000000 0.000000 0.000000
vn 0.000000 0.000000 -1.000000
vn 0.000000 0.000000 -1.000000
vn 0.000000 0.000000 -1.000000
vn 0.000000 0.000000 -1.000000
vn 0.000000 0.000000 -1.000000
vn 0.000000 0.000000 -1.000000
vn 0.000000 0.000000 -1.000000
vn 0.000000 0.000000 -1.000000
vn 0.000000 1.000000 0.000000
vn 0.000000 1.000000 0.000000
vn 0.000000 1.000000 0.000000
vn 0.000000 1.000000 0.000000
vn 0.000000 0.000000 1.000000
vn 0.000000 0.000000 1.000000
vn 0.000000 0.000000 1.000000
vn 0.000000 0.000000 1.000000
vn 0.000000 -1.000000 0.000000
vn 0.000000 -1.000000 0.000000
vn 0.000000 -1.000000 0.000000
vn 0.000000 -1.000000 0.000000
f 9/1/1 10/2/2 11/3/3 12/4/4
f 12/4/5 11/3/6 13/5/7 14/6/8
f 14/6/9 13/5/10 15/7/11 16/8/12
f 16/8/13 15/7/14 10/9/15 9/10/16
f 10/2/17 15/11/18 13/12/19 11/3/20
f 16/13/21 9/1/22 12/4/23 14/14/24
f 1/15/25 3/18/26 4/17/27 2/16/28
f 3/18/29 5/20/30 6/19/31 4/17/32
f 5/20/33 7/22/34 8/21/35 6/19/36
f 7/22/37 1/24/38 2/23/39 8/21/40
f 2/16/41 4/17/42 6/26/43 8/25/44
f 7/27/45 5/28/46 3/18/47 1/15/48
f 17/29/49 18/30/50 20/31/51 19/32/52
f 45/33/53 46/34/54 47/35/55 48/36/56
f 21/37/57 22/38/58 24/39/59 23/40/60
f 34/41/61 35/42/62 18/43/63 17/44/64
f 18/30/65 35/45/66 36/46/67 20/31/68
f 33/47/69 34/48/70 17/29/71 19/32/72
f 23/49/73 29/50/74 30/51/75 21/52/76
f 23/40/77 24/39/78 32/53/79 29/54/80
f 31/55/81 32/56/82 24/57/83 22/58/84
f 49/59/85 50/60/86 51/61/87 52/62/88
f 30/51/89 29/50/90 26/63/91 25/64/92
f 25/65/93 28/66/94 31/67/95 30/68/96
f 28/69/97 27/70/98 32/56/99 31/55/100
f 29/54/101 32/53/102 27/71/103 26/72/104
f 25/64/105 26/63/106 34/48/107 33/47/108
f 26/72/109 27/71/110 35/42/111 34/41/112
f 36/46/113 35/45/114 27/70/115 28/69/116
f 33/73/117 36/74/118 28/66/119 25/65/120
f 19/32/121 20/31/122 38/75/123 37/76/124
f 20/31/125 36/74/126 39/77/127 38/75/128
f 36/74/129 33/73/130 40/78/131 39/77/132
f 33/73/133 19/32/134 37/76/135 40/78/136
f 30/68/137 31/67/138 42/79/139 41/80/140
f 31/67/141 22/38/142 43/81/143 42/79/144
f 22/38/145 21/37/146 44/82/147 43/81/148
f 21/37/149 30/68/150 41/80/151 44/82/152
f 37/76/153 38/75/154 46/34/155 45/33/156
f 38/75/157 39/77/158 47/35/159 46/34/160
f 40/78/161 37/76/162 45/33/163 48/36/164
f 42/79/165 43/81/166 51/61/167 50/60/168
f 43/81/169 44/82/170 52/62/171 51/61/172
f 44/82/173 41/80/174 49/59/175 52/62/176
f 40/78/177 48/36/178 49/59/179 41/80/180
f 48/36/181 47/35/182 50/60/183 49/59/184
f 47/35/185 39/77/186 42/79/187 50/60/188
f 39/77/189 40/78/190 41/80/191 42/79/192
