# Blender 3.3.1
# www.blender.org
mtllib grave.mtl
o Cube.001_Cube.002
v -4.937117 -0.000000 1.000000
v -4.937117 0.000000 -1.000000
v 4.937117 -0.000000 1.000000
v 4.937117 0.000000 -1.000000
v -1.223480 11.741138 1.000000
v -4.937117 7.325369 1.000000
v -2.644627 11.405006 1.000000
v -3.849417 10.447788 1.000000
v -4.654433 9.015210 1.000000
v -4.937117 7.325369 -1.000000
v -1.223480 11.741138 -0.999999
v -4.654433 9.015210 -1.000000
v -3.849417 10.447788 -1.000000
v -2.644627 11.405006 -1.000000
v 4.937117 7.325369 1.000000
v 1.223480 11.741138 1.000000
v 4.654433 9.015210 1.000000
v 3.849417 10.447788 1.000000
v 2.644627 11.405006 1.000000
v 1.223480 11.741138 -0.999999
v 4.937117 7.325369 -1.000000
v 2.644627 11.405006 -1.000000
v 3.849417 10.447788 -1.000000
v 4.654433 9.015210 -1.000000
vn -0.0000 1.0000 -0.0000
vn 1.0000 -0.0000 -0.0000
vn -1.0000 -0.0000 -0.0000
vn -0.0000 -1.0000 -0.0000
vn -0.0000 -0.0000 -1.0000
vn -0.2302 0.9732 -0.0000
vn -0.6221 0.7830 -0.0000
vn -0.8718 0.4899 -0.0000
vn -0.9863 0.1650 -0.0000
vn 0.2302 0.9732 -0.0000
vn 0.6221 0.7830 -0.0000
vn 0.8718 0.4899 -0.0000
vn 0.9863 0.1650 -0.0000
vn -0.0000 -0.0000 1.0000
vt 0.375000 0.000000
vt 0.125000 0.750000
vt 0.375000 1.000000
vt 0.125000 0.500000
vt 0.375000 0.250000
vt 0.375000 0.750000
vt 0.375000 0.500000
vt 0.780977 0.750000
vt 0.625000 0.905977
vt 0.530977 0.000000
vt 0.530977 1.000000
vt 0.816958 0.750000
vt 0.617843 0.941958
vt 0.875000 0.750000
vt 0.625000 0.000000
vt 0.597461 0.972461
vt 0.566958 0.000000
vt 0.566958 0.992843
vt 0.530977 0.250000
vt 0.625000 0.344023
vt 0.780977 0.500000
vt 0.566958 0.257157
vt 0.566958 0.250000
vt 0.597461 0.277539
vt 0.875000 0.500000
vt 0.625000 0.250000
vt 0.617843 0.308042
vt 0.816958 0.500000
vt 0.530977 0.750000
vt 0.719023 0.750000
vt 0.625000 0.844023
vt 0.566958 0.750000
vt 0.566958 0.757157
vt 0.625000 0.750000
vt 0.597461 0.777539
vt 0.683042 0.750000
vt 0.617843 0.808042
vt 0.625000 0.405977
vt 0.719023 0.500000
vt 0.530977 0.500000
vt 0.617843 0.441958
vt 0.683042 0.500000
vt 0.597461 0.472461
vt 0.625000 0.500000
vt 0.566958 0.492843
vt 0.566958 0.500000
s 0
usemtl None
f 20/39/1 11/21/1 5/8/1 16/30/1
f 4/7/2 21/40/2 15/29/2 3/6/2
f 1/1/3 6/10/3 10/19/3 2/5/3
f 2/4/4 4/7/4 3/6/4 1/2/4
f 2/5/5 10/19/5 12/22/5 13/24/5 14/27/5 11/20/5 20/38/5 22/41/5 23/43/5 24/45/5 21/40/5 4/7/5
f 5/8/6 11/21/6 14/28/6 7/12/6
f 7/12/7 14/28/7 13/25/7 8/14/7
f 8/15/8 13/26/8 12/23/8 9/17/8
f 9/17/9 12/23/9 10/19/9 6/10/9
f 20/39/10 16/30/10 19/36/10 22/42/10
f 22/42/11 19/36/11 18/34/11 23/44/11
f 23/44/12 18/34/12 17/32/12 24/46/12
f 24/46/13 17/32/13 15/29/13 21/40/13
f 3/6/14 15/29/14 17/33/14 18/35/14 19/37/14 16/31/14 5/9/14 7/13/14 8/16/14 9/18/14 6/11/14 1/3/14
