# This file uses centimeters as units for non-parametric coordinates.

mtllib grave.mtl
g default
v -4.937117 0.000000 1.000000
v -4.937117 0.000000 -1.000000
v 4.937117 0.000000 1.000000
v 4.937117 0.000000 -1.000000
v -1.223480 11.741138 1.000000
v -4.937117 7.325369 1.000000
v -2.644627 11.405006 1.000000
v -3.849417 10.447788 1.000000
v -4.654433 9.015210 1.000000
v -4.937117 7.325369 -1.000000
v -1.223480 11.741138 -0.999999
v -4.654433 9.015210 -1.000000
v -3.849417 10.447788 -1.000000
v -2.644627 11.405006 -1.000000
v 4.937117 7.325369 1.000000
v 1.223480 11.741138 1.000000
v 4.654433 9.015210 1.000000
v 3.849417 10.447788 1.000000
v 2.644627 11.405006 1.000000
v 1.223480 11.741138 -0.999999
v 4.937117 7.325369 -1.000000
v 2.644627 11.405006 -1.000000
v 3.849417 10.447788 -1.000000
v 4.654433 9.015210 -1.000000
vt 0.719023 0.500000
vt 0.780977 0.500000
vt 0.780977 0.750000
vt 0.719023 0.750000
vt 0.375000 0.500000
vt 0.530977 0.500000
vt 0.530977 0.750000
vt 0.375000 0.750000
vt 0.375000 0.000000
vt 0.530977 0.000000
vt 0.530977 0.250000
vt 0.375000 0.250000
vt 0.125000 0.500000
vt 0.125000 0.750000
vt 0.566958 0.257157
vt 0.597461 0.277539
vt 0.617843 0.308042
vt 0.625000 0.344023
vt 0.625000 0.405977
vt 0.617843 0.441958
vt 0.597461 0.472461
vt 0.566958 0.492843
vt 0.816958 0.500000
vt 0.816958 0.750000
vt 0.875000 0.500000
vt 0.875000 0.750000
vt 0.625000 0.000000
vt 0.625000 0.250000
vt 0.566958 0.250000
vt 0.566958 0.000000
vt 0.683042 0.750000
vt 0.683042 0.500000
vt 0.625000 0.750000
vt 0.625000 0.500000
vt 0.566958 0.750000
vt 0.566958 0.500000
vt 0.566958 0.757157
vt 0.597461 0.777539
vt 0.617843 0.808042
vt 0.625000 0.844023
vt 0.625000 0.905977
vt 0.617843 0.941958
vt 0.597461 0.972461
vt 0.566958 0.992843
vt 0.530977 1.000000
vt 0.375000 1.000000
vn -0.000000 1.000000 -0.000000
vn -0.000000 1.000000 -0.000000
vn -0.000000 1.000000 -0.000000
vn -0.000000 1.000000 -0.000000
vn 1.000000 0.000000 0.000000
vn 1.000000 0.000000 0.000000
vn 1.000000 0.000000 0.000000
vn 1.000000 0.000000 0.000000
vn -1.000000 0.000000 0.000000
vn -1.000000 0.000000 0.000000
vn -1.000000 0.000000 0.000000
vn -1.000000 0.000000 0.000000
vn 0.000000 -1.000000 0.000000
vn 0.000000 -1.000000 0.000000
vn 0.000000 -1.000000 0.000000
vn 0.000000 -1.000000 0.000000
vn 0.000000 0.000000 -1.000000
vn 0.000000 0.000000 -1.000000
vn 0.000000 0.000000 -1.000000
vn 0.000000 0.000000 -1.000000
vn 0.000000 0.000000 -1.000000
vn 0.000000 0.000000 -1.000000
vn 0.000000 0.000000 -1.000000
vn 0.000000 0.000000 -1.000000
vn 0.000000 0.000000 -1.000000
vn 0.000000 0.000000 -1.000000
vn 0.000000 0.000000 -1.000000
vn 0.000000 0.000000 -1.000000
vn -0.230187 0.973146 -0.000000
vn -0.230187 0.973146 -0.000000
vn -0.230187 0.973146 -0.000000
vn -0.230187 0.973146 -0.000000
vn -0.622070 0.782962 -0.000000
vn -0.622070 0.782962 -0.000000
vn -0.622070 0.782962 -0.000000
vn -0.622070 0.782962 -0.000000
vn -0.871784 0.489891 -0.000000
vn -0.871784 0.489891 -0.000000
vn -0.871784 0.489891 -0.000000
vn -0.871784 0.489891 -0.000000
vn -0.986294 0.164999 -0.000000
vn -0.986294 0.164999 -0.000000
vn -0.986294 0.164999 -0.000000
vn -0.986294 0.164999 -0.000000
vn 0.230187 0.973146 0.000000
vn 0.230187 0.973146 0.000000
vn 0.230187 0.973146 0.000000
vn 0.230187 0.973146 0.000000
vn 0.622070 0.782962 0.000000
vn 0.622070 0.782962 0.000000
vn 0.622070 0.782962 0.000000
vn 0.622070 0.782962 0.000000
vn 0.871784 0.489891 0.000000
vn 0.871784 0.489891 0.000000
vn 0.871784 0.489891 0.000000
vn 0.871784 0.489891 0.000000
vn 0.986294 0.164999 0.000000
vn 0.986294 0.164999 0.000000
vn 0.986294 0.164999 0.000000
vn 0.986294 0.164999 0.000000
vn 0.000000 0.000000 1.000000
vn 0.000000 0.000000 1.000000
vn 0.000000 0.000000 1.000000
vn 0.000000 0.000000 1.000000
vn 0.000000 0.000000 1.000000
vn 0.000000 0.000000 1.000000
vn 0.000000 0.000000 1.000000
vn 0.000000 0.000000 1.000000
vn 0.000000 0.000000 1.000000
vn 0.000000 0.000000 1.000000
vn 0.000000 0.000000 1.000000
vn 0.000000 0.000000 1.000000
s off
g Mesh
usemtl None
f 20/1/1 11/2/2 5/3/3 16/4/4
f 4/5/5 21/6/6 15/7/7 3/8/8
f 1/9/9 6/10/10 10/11/11 2/12/12
f 2/13/13 4/5/14 3/8/15 1/14/16
f 2/12/17 10/11/18 12/15/19 13/16/20 14/17/21 11/18/22 20/19/23 22/20/24 23/21/25 24/22/26 21/6/27 4/5/28
f 5/3/29 11/2/30 14/23/31 7/24/32
f 7/24/33 14/23/34 13/25/35 8/26/36
f 8/27/37 13/28/38 12/29/39 9/30/40
f 9/30/41 12/29/42 10/11/43 6/10/44
f 20/1/45 16/4/46 19/31/47 22/32/48
f 22/32/49 19/31/50 18/33/51 23/34/52
f 23/34/53 18/33/54 17/35/55 24/36/56
f 24/36/57 17/35/58 15/7/59 21/6/60
f 3/8/61 15/7/62 17/37/63 18/38/64 19/39/65 16/40/66 5/41/67 7/42/68 8/43/69 9/44/70 6/45/71 1/46/72
