# This file uses centimeters as units for non-parametric coordinates.

mtllib PortalOff.mtl
v 6.050106 12.524518 3.025055
v 12.100216 12.524518 3.025055
v 6.050106 18.574628 3.025055
v 12.100216 18.574628 3.025055
v 6.050106 18.574628 -3.025055
v 12.100216 18.574628 -3.025055
v 6.050106 12.524518 -3.025055
v 12.100216 12.524518 -3.025055
v -0.000005 18.574628 3.025055
v -0.000005 24.624739 3.025055
v 6.050106 24.624739 3.025055
v -0.000005 24.624739 -3.025055
v 6.050106 24.624739 -3.025055
v -0.000005 18.574628 -3.025055
v 6.050106 6.474407 3.025055
v 12.100216 6.474407 3.025055
v 6.050106 6.474407 -3.025055
v 12.100216 6.474407 -3.025055
v 6.050106 0.424296 3.025055
v 12.100216 0.424296 3.025055
v 6.050106 0.424296 -3.025055
v 12.100216 0.424296 -3.025055
v -0.000005 -5.625814 3.025055
v 6.050106 -5.625814 3.025055
v -0.000005 0.424296 3.025055
v -0.000005 0.424296 -3.025055
v -0.000005 -5.625814 -3.025055
v 6.050106 -5.625814 -3.025055
v -12.100226 -5.625814 3.025055
v -6.050115 -5.625814 3.025055
v -12.100226 0.424296 3.025055
v -6.050115 0.424296 3.025055
v -12.100226 0.424296 -3.025055
v -6.050115 0.424296 -3.025055
v -12.100226 -5.625814 -3.025055
v -6.050115 -5.625814 -3.025055
v -12.100226 18.574628 3.025055
v -6.050115 18.574628 3.025055
v -12.100226 24.624739 3.025055
v -6.050115 24.624739 3.025055
v -12.100226 24.624739 -3.025055
v -6.050115 24.624739 -3.025055
v -12.100226 18.574628 -3.025055
v -6.050115 18.574628 -3.025055
v 12.100216 -5.625814 3.025055
v 12.100216 -5.625814 -3.025055
v -12.100226 6.474407 3.025055
v -6.050115 6.474407 3.025055
v -12.100226 6.474407 -3.025055
v -6.050115 6.474407 -3.025055
v 12.100216 24.624739 3.025055
v 12.100216 24.624739 -3.025055
v -12.100226 12.524518 3.025055
v -6.050115 12.524518 3.025055
v -12.100226 12.524518 -3.025055
v -6.050115 12.524518 -3.025055
vt 0.018591 0.518591
vt 0.481409 0.518591
vt 0.481409 0.981409
vt 0.018591 0.981409
vt 0.018591 0.518591
vt 0.481409 0.518591
vt 0.481409 0.981409
vt 0.018591 0.981409
vt 0.018591 0.518591
vt 0.481409 0.518591
vt 0.481409 0.981409
vt 0.018591 0.981409
vt 0.018591 0.518591
vt 0.481409 0.518591
vt 0.481409 0.981409
vt 0.018591 0.981409
vt 0.018591 0.518591
vt 0.481409 0.518591
vt 0.481409 0.981409
vt 0.018591 0.981409
vt 0.018591 0.981408
vt 0.018591 0.518591
vt 0.481409 0.518591
vt 0.481409 0.981408
vt 0.018591 0.518591
vt 0.481409 0.518591
vt 0.481409 0.981409
vt 0.018591 0.981409
vt 0.018591 0.981408
vt 0.018591 0.518591
vt 0.481409 0.518591
vt 0.481409 0.981408
vt 0.018591 0.518591
vt 0.481409 0.518591
vt 0.481409 0.981409
vt 0.018591 0.981409
vt 0.018591 0.518591
vt 0.481409 0.518591
vt 0.481409 0.981409
vt 0.018591 0.981409
vt 0.018591 0.518591
vt 0.481409 0.518591
vt 0.481409 0.981409
vt 0.018591 0.981409
vt 0.018591 0.518591
vt 0.481409 0.518591
vt 0.481409 0.981409
vt 0.018591 0.981409
vt 0.018591 0.518591
vt 0.481409 0.518591
vt 0.481409 0.981409
vt 0.018591 0.981409
vt 0.018591 0.518591
vt 0.481409 0.518591
vt 0.481409 0.981409
vt 0.018591 0.981409
vt 0.018591 0.518591
vt 0.481409 0.518591
vt 0.481409 0.981409
vt 0.018591 0.981409
vt 0.018591 0.518591
vt 0.481409 0.518591
vt 0.481409 0.981408
vt 0.018591 0.981408
vt 0.018591 0.518591
vt 0.481409 0.518591
vt 0.481409 0.981409
vt 0.018591 0.981409
vt 0.018591 0.981408
vt 0.018591 0.518591
vt 0.481409 0.518591
vt 0.481409 0.981408
vt 0.018591 0.518591
vt 0.481409 0.518591
vt 0.481409 0.981408
vt 0.018591 0.981408
vt 0.018591 0.981408
vt 0.018591 0.518591
vt 0.481409 0.518591
vt 0.481409 0.981408
vt 0.018591 0.518591
vt 0.481409 0.518591
vt 0.481409 0.981409
vt 0.018591 0.981409
vt 0.018591 0.518591
vt 0.481409 0.518591
vt 0.481409 0.981408
vt 0.018591 0.981408
vt 0.018591 0.981408
vt 0.018591 0.518591
vt 0.481409 0.518591
vt 0.481409 0.981408
vt 0.018591 0.518591
vt 0.481409 0.518591
vt 0.481409 0.981409
vt 0.018591 0.981409
vt 0.018591 0.518591
vt 0.481409 0.518591
vt 0.481409 0.981409
vt 0.018591 0.981409
vt 0.018591 0.981408
vt 0.018591 0.518591
vt 0.481409 0.518591
vt 0.481409 0.981408
vt 0.018591 0.518591
vt 0.481409 0.518591
vt 0.481409 0.981409
vt 0.018591 0.981409
vt 0.018591 0.518591
vt 0.481409 0.518591
vt 0.481409 0.981409
vt 0.018591 0.981409
vt 0.018591 0.518591
vt 0.481409 0.518591
vt 0.481409 0.981409
vt 0.018591 0.981409
vt 0.018591 0.518591
vt 0.481409 0.518591
vt 0.481409 0.981408
vt 0.018591 0.981408
vt 0.018591 0.981409
vt 0.018591 0.518591
vt 0.481409 0.518591
vt 0.481409 0.981409
vt 0.018591 0.518591
vt 0.481409 0.518591
vt 0.481409 0.981409
vt 0.018591 0.981409
vt 0.018591 0.518591
vt 0.481409 0.518591
vt 0.481409 0.981409
vt 0.018591 0.981409
vt 0.018591 0.981409
vt 0.018591 0.518591
vt 0.481409 0.518591
vt 0.481409 0.981409
vt 0.018591 0.518591
vt 0.481409 0.518591
vt 0.481409 0.981408
vt 0.018591 0.981408
vt 0.018591 0.981409
vt 0.018591 0.518591
vt 0.481409 0.518591
vt 0.481409 0.981409
vt 0.018591 0.518591
vt 0.481409 0.518591
vt 0.481409 0.981409
vt 0.018591 0.981409
vt 0.018591 0.518591
vt 0.481409 0.518591
vt 0.481409 0.981409
vt 0.018591 0.981409
vt 0.018591 0.518591
vt 0.481409 0.518591
vt 0.481409 0.981408
vt 0.018591 0.981408
vt 0.018591 0.518591
vt 0.481409 0.518591
vt 0.481409 0.981409
vt 0.018591 0.981409
vt 0.018591 0.518591
vt 0.481409 0.518591
vt 0.481409 0.981409
vt 0.018591 0.981409
vt 0.018591 0.981409
vt 0.018591 0.518591
vt 0.481409 0.518591
vt 0.481409 0.981409
vt 0.018591 0.518591
vt 0.481409 0.518591
vt 0.481409 0.981409
vt 0.018591 0.981409
vt 0.018591 0.518591
vt 0.481409 0.518591
vt 0.481409 0.981409
vt 0.018591 0.981409
vt 0.018591 0.518591
vt 0.481409 0.518591
vt 0.481409 0.981409
vt 0.018591 0.981409
vt 0.018591 0.981409
vt 0.018591 0.518591
vt 0.481409 0.518591
vt 0.481409 0.981409
vt 0.018591 0.518591
vt 0.481409 0.518591
vt 0.481409 0.981409
vt 0.018591 0.981409
vt 0.018591 0.981409
vt 0.018591 0.518591
vt 0.481409 0.518591
vt 0.481409 0.981409
vt 0.018591 0.518591
vt 0.481409 0.518591
vt 0.481409 0.981409
vt 0.018591 0.981409
vt 0.018591 0.518591
vt 0.481409 0.518591
vt 0.481409 0.981409
vt 0.018591 0.981409
vt 0.018591 0.518591
vt 0.481409 0.518591
vt 0.481409 0.981409
vt 0.018591 0.981409
vt 0.018591 0.518591
vt 0.481409 0.518591
vt 0.481409 0.981409
vt 0.018591 0.981409
vt 0.018591 0.518591
vt 0.481409 0.518591
vt 0.481409 0.981409
vt 0.018591 0.981409
vt 0.018591 0.518591
vt 0.481409 0.518591
vt 0.481409 0.981409
vt 0.018591 0.981409
vt 0.018591 0.518591
vt 0.481409 0.518591
vt 0.481409 0.981409
vt 0.018591 0.981409
vt 0.018591 0.518591
vt 0.481409 0.518591
vt 0.481409 0.981408
vt 0.018591 0.981408
vn 0.000000 0.000000 1.000000
vn 0.000000 0.000000 1.000000
vn 0.000000 0.000000 1.000000
vn 0.000000 0.000000 1.000000
vn 0.000000 0.000000 -1.000000
vn 0.000000 0.000000 -1.000000
vn 0.000000 0.000000 -1.000000
vn 0.000000 0.000000 -1.000000
vn 1.000000 0.000000 0.000000
vn 1.000000 0.000000 0.000000
vn 1.000000 0.000000 0.000000
vn 1.000000 0.000000 0.000000
vn -1.000000 0.000000 0.000000
vn -1.000000 0.000000 0.000000
vn -1.000000 0.000000 0.000000
vn -1.000000 0.000000 0.000000
vn 0.000000 0.000000 1.000000
vn 0.000000 0.000000 1.000000
vn 0.000000 0.000000 1.000000
vn 0.000000 0.000000 1.000000
vn 0.000000 1.000000 0.000000
vn 0.000000 1.000000 0.000000
vn 0.000000 1.000000 0.000000
vn 0.000000 1.000000 0.000000
vn 0.000000 0.000000 -1.000000
vn 0.000000 0.000000 -1.000000
vn 0.000000 0.000000 -1.000000
vn 0.000000 0.000000 -1.000000
vn 0.000000 -1.000000 0.000000
vn 0.000000 -1.000000 0.000000
vn 0.000000 -1.000000 0.000000
vn 0.000000 -1.000000 0.000000
vn 0.000000 0.000000 1.000000
vn 0.000000 0.000000 1.000000
vn 0.000000 0.000000 1.000000
vn 0.000000 0.000000 1.000000
vn 0.000000 0.000000 -1.000000
vn 0.000000 0.000000 -1.000000
vn 0.000000 0.000000 -1.000000
vn 0.000000 0.000000 -1.000000
vn 1.000000 0.000000 0.000000
vn 1.000000 0.000000 0.000000
vn 1.000000 0.000000 0.000000
vn 1.000000 0.000000 0.000000
vn -1.000000 0.000000 0.000000
vn -1.000000 0.000000 0.000000
vn -1.000000 0.000000 0.000000
vn -1.000000 0.000000 0.000000
vn 0.000000 0.000000 1.000000
vn 0.000000 0.000000 1.000000
vn 0.000000 0.000000 1.000000
vn 0.000000 0.000000 1.000000
vn 0.000000 0.000000 -1.000000
vn 0.000000 0.000000 -1.000000
vn 0.000000 0.000000 -1.000000
vn 0.000000 0.000000 -1.000000
vn 1.000000 0.000000 0.000000
vn 1.000000 0.000000 0.000000
vn 1.000000 0.000000 0.000000
vn 1.000000 0.000000 0.000000
vn -1.000000 0.000000 0.000000
vn -1.000000 0.000000 0.000000
vn -1.000000 0.000000 0.000000
vn -1.000000 0.000000 0.000000
vn 0.000000 0.000000 1.000000
vn 0.000000 0.000000 1.000000
vn 0.000000 0.000000 1.000000
vn 0.000000 0.000000 1.000000
vn 0.000000 1.000000 0.000000
vn 0.000000 1.000000 0.000000
vn 0.000000 1.000000 0.000000
vn 0.000000 1.000000 0.000000
vn 0.000000 0.000000 -1.000000
vn 0.000000 0.000000 -1.000000
vn 0.000000 0.000000 -1.000000
vn 0.000000 0.000000 -1.000000
vn 0.000000 -1.000000 0.000000
vn 0.000000 -1.000000 0.000000
vn 0.000000 -1.000000 0.000000
vn 0.000000 -1.000000 0.000000
vn 0.000000 0.000000 1.000000
vn 0.000000 0.000000 1.000000
vn 0.000000 0.000000 1.000000
vn 0.000000 0.000000 1.000000
vn 0.000000 0.000000 -1.000000
vn 0.000000 0.000000 -1.000000
vn 0.000000 0.000000 -1.000000
vn 0.000000 0.000000 -1.000000
vn 0.000000 -1.000000 0.000000
vn 0.000000 -1.000000 0.000000
vn 0.000000 -1.000000 0.000000
vn 0.000000 -1.000000 0.000000
vn -1.000000 0.000000 0.000000
vn -1.000000 0.000000 0.000000
vn -1.000000 0.000000 0.000000
vn -1.000000 0.000000 0.000000
vn 0.000000 0.000000 1.000000
vn 0.000000 0.000000 1.000000
vn 0.000000 0.000000 1.000000
vn 0.000000 0.000000 1.000000
vn 0.000000 1.000000 0.000000
vn 0.000000 1.000000 0.000000
vn 0.000000 1.000000 0.000000
vn 0.000000 1.000000 0.000000
vn 0.000000 0.000000 -1.000000
vn 0.000000 0.000000 -1.000000
vn 0.000000 0.000000 -1.000000
vn 0.000000 0.000000 -1.000000
vn -1.000000 0.000000 0.000000
vn -1.000000 0.000000 0.000000
vn -1.000000 0.000000 0.000000
vn -1.000000 0.000000 0.000000
vn 0.000000 0.000000 1.000000
vn 0.000000 0.000000 1.000000
vn 0.000000 0.000000 1.000000
vn 0.000000 0.000000 1.000000
vn 0.000000 0.000000 -1.000000
vn 0.000000 0.000000 -1.000000
vn 0.000000 0.000000 -1.000000
vn 0.000000 0.000000 -1.000000
vn 0.000000 -1.000000 0.000000
vn 0.000000 -1.000000 0.000000
vn 0.000000 -1.000000 0.000000
vn 0.000000 -1.000000 0.000000
vn 1.000000 0.000000 0.000000
vn 1.000000 0.000000 0.000000
vn 1.000000 0.000000 0.000000
vn 1.000000 0.000000 0.000000
vn 0.000000 0.000000 1.000000
vn 0.000000 0.000000 1.000000
vn 0.000000 0.000000 1.000000
vn 0.000000 0.000000 1.000000
vn 0.000000 1.000000 0.000000
vn 0.000000 1.000000 0.000000
vn 0.000000 1.000000 0.000000
vn 0.000000 1.000000 0.000000
vn 0.000000 0.000000 -1.000000
vn 0.000000 0.000000 -1.000000
vn 0.000000 0.000000 -1.000000
vn 0.000000 0.000000 -1.000000
vn 0.000000 -1.000000 0.000000
vn 0.000000 -1.000000 0.000000
vn 0.000000 -1.000000 0.000000
vn 0.000000 -1.000000 0.000000
vn 0.000000 0.000000 1.000000
vn 0.000000 0.000000 1.000000
vn 0.000000 0.000000 1.000000
vn 0.000000 0.000000 1.000000
vn 0.000000 0.000000 -1.000000
vn 0.000000 0.000000 -1.000000
vn 0.000000 0.000000 -1.000000
vn 0.000000 0.000000 -1.000000
vn 1.000000 0.000000 0.000000
vn 1.000000 0.000000 0.000000
vn 1.000000 0.000000 0.000000
vn 1.000000 0.000000 0.000000
vn -1.000000 0.000000 0.000000
vn -1.000000 0.000000 0.000000
vn -1.000000 0.000000 0.000000
vn -1.000000 0.000000 0.000000
vn 0.000000 0.000000 1.000000
vn 0.000000 0.000000 1.000000
vn 0.000000 0.000000 1.000000
vn 0.000000 0.000000 1.000000
vn 0.000000 1.000000 0.000000
vn 0.000000 1.000000 0.000000
vn 0.000000 1.000000 0.000000
vn 0.000000 1.000000 0.000000
vn 0.000000 0.000000 -1.000000
vn 0.000000 0.000000 -1.000000
vn 0.000000 0.000000 -1.000000
vn 0.000000 0.000000 -1.000000
vn 1.000000 0.000000 0.000000
vn 1.000000 0.000000 0.000000
vn 1.000000 0.000000 0.000000
vn 1.000000 0.000000 0.000000
vn 0.000000 0.000000 1.000000
vn 0.000000 0.000000 1.000000
vn 0.000000 0.000000 1.000000
vn 0.000000 0.000000 1.000000
vn 0.000000 1.000000 0.000000
vn 0.000000 1.000000 0.000000
vn 0.000000 1.000000 0.000000
vn 0.000000 1.000000 0.000000
vn 0.000000 0.000000 -1.000000
vn 0.000000 0.000000 -1.000000
vn 0.000000 0.000000 -1.000000
vn 0.000000 0.000000 -1.000000
vn 0.000000 -1.000000 0.000000
vn 0.000000 -1.000000 0.000000
vn 0.000000 -1.000000 0.000000
vn 0.000000 -1.000000 0.000000
vn 0.000000 0.000000 1.000000
vn 0.000000 0.000000 1.000000
vn 0.000000 0.000000 1.000000
vn 0.000000 0.000000 1.000000
vn 0.000000 0.000000 -1.000000
vn 0.000000 0.000000 -1.000000
vn 0.000000 0.000000 -1.000000
vn 0.000000 0.000000 -1.000000
vn 1.000000 0.000000 0.000000
vn 1.000000 0.000000 0.000000
vn 1.000000 0.000000 0.000000
vn 1.000000 0.000000 0.000000
vn -1.000000 0.000000 0.000000
vn -1.000000 0.000000 0.000000
vn -1.000000 0.000000 0.000000
vn -1.000000 0.000000 0.000000
vn 0.000000 0.000000 1.000000
vn 0.000000 0.000000 1.000000
vn 0.000000 0.000000 1.000000
vn 0.000000 0.000000 1.000000
vn 0.000000 0.000000 -1.000000
vn 0.000000 0.000000 -1.000000
vn 0.000000 0.000000 -1.000000
vn 0.000000 0.000000 -1.000000
vn 1.000000 0.000000 0.000000
vn 1.000000 0.000000 0.000000
vn 1.000000 0.000000 0.000000
vn 1.000000 0.000000 0.000000
vn -1.000000 0.000000 0.000000
vn -1.000000 0.000000 0.000000
vn -1.000000 0.000000 0.000000
vn -1.000000 0.000000 0.000000
usemtl lambert4SG
f 1/1/1 2/2/2 4/3/3 3/4/4
f 5/5/5 6/6/6 8/7/7 7/8/8
f 2/9/9 8/10/10 6/11/11 4/12/12
f 7/13/13 1/14/14 3/15/15 5/16/16
f 9/17/17 3/18/18 11/19/19 10/20/20
f 10/21/21 11/22/22 13/23/23 12/24/24
f 12/25/25 13/26/26 5/27/27 14/28/28
f 14/29/29 5/30/30 3/31/31 9/32/32
f 15/33/33 16/34/34 2/35/35 1/36/36
f 7/37/37 8/38/38 18/39/39 17/40/40
f 16/41/41 18/42/42 8/43/43 2/44/44
f 17/45/45 15/46/46 1/47/47 7/48/48
f 19/49/49 20/50/50 16/51/51 15/52/52
f 17/53/53 18/54/54 22/55/55 21/56/56
f 20/57/57 22/58/58 18/59/59 16/60/60
f 21/61/61 19/62/62 15/63/63 17/64/64
f 23/65/65 24/66/66 19/67/67 25/68/68
f 25/69/69 19/70/70 21/71/71 26/72/72
f 26/73/73 21/74/74 28/75/75 27/76/76
f 27/77/77 28/78/78 24/79/79 23/80/80
f 29/81/81 30/82/82 32/83/83 31/84/84
f 33/85/85 34/86/86 36/87/87 35/88/88
f 35/89/89 36/90/90 30/91/91 29/92/92
f 35/93/93 29/94/94 31/95/95 33/96/96
f 37/97/97 38/98/98 40/99/99 39/100/100
f 39/101/101 40/102/102 42/103/103 41/104/104
f 41/105/105 42/106/106 44/107/107 43/108/108
f 43/109/109 37/110/110 39/111/111 41/112/112
f 24/113/113 45/114/114 20/115/115 19/116/116
f 21/117/117 22/118/118 46/119/119 28/120/120
f 28/121/121 46/122/122 45/123/123 24/124/124
f 45/125/125 46/126/126 22/127/127 20/128/128
f 30/129/129 23/130/130 25/131/131 32/132/132
f 32/133/133 25/134/134 26/135/135 34/136/136
f 34/137/137 26/138/138 27/139/139 36/140/140
f 36/141/141 27/142/142 23/143/143 30/144/144
f 31/145/145 32/146/146 48/147/147 47/148/148
f 49/149/149 50/150/150 34/151/151 33/152/152
f 32/153/153 34/154/154 50/155/155 48/156/156
f 33/157/157 31/158/158 47/159/159 49/160/160
f 3/161/161 4/162/162 51/163/163 11/164/164
f 11/165/165 51/166/166 52/167/167 13/168/168
f 13/169/169 52/170/170 6/171/171 5/172/172
f 4/173/173 6/174/174 52/175/175 51/176/176
f 38/177/177 9/178/178 10/179/179 40/180/180
f 40/181/181 10/182/182 12/183/183 42/184/184
f 42/185/185 12/186/186 14/187/187 44/188/188
f 44/189/189 14/190/190 9/191/191 38/192/192
f 47/193/193 48/194/194 54/195/195 53/196/196
f 55/197/197 56/198/198 50/199/199 49/200/200
f 48/201/201 50/202/202 56/203/203 54/204/204
f 49/205/205 47/206/206 53/207/207 55/208/208
f 53/209/209 54/210/210 38/211/211 37/212/212
f 43/213/213 44/214/214 56/215/215 55/216/216
f 54/217/217 56/218/218 44/219/219 38/220/220
f 55/221/221 53/222/222 37/223/223 43/224/224
