# This file uses centimeters as units for non-parametric coordinates.

v -15.344407 -0.130292 13.947495
v 15.344407 -0.130292 13.947495
v -15.344407 4.338381 13.947495
v 15.344407 4.338381 13.947495
v -15.344407 4.338381 -12.900524
v 15.344407 4.338381 -12.900524
v -15.344407 -0.130292 -12.900524
v 15.344407 -0.130292 -12.900524
vt 0.375000 0.000000
vt 0.625000 0.000000
vt 0.375000 0.250000
vt 0.625000 0.250000
vt 0.375000 0.500000
vt 0.625000 0.500000
vt 0.375000 0.750000
vt 0.625000 0.750000
vt 0.375000 1.000000
vt 0.625000 1.000000
vt 0.875000 0.000000
vt 0.875000 0.250000
vt 0.125000 0.000000
vt 0.125000 0.250000
vn 0.000000 0.000000 1.000000
vn 0.000000 0.000000 1.000000
vn 0.000000 0.000000 1.000000
vn 0.000000 0.000000 1.000000
vn 0.000000 1.000000 0.000000
vn 0.000000 1.000000 0.000000
vn 0.000000 1.000000 0.000000
vn 0.000000 1.000000 0.000000
vn 0.000000 0.000000 -1.000000
vn 0.000000 0.000000 -1.000000
vn 0.000000 0.000000 -1.000000
vn 0.000000 0.000000 -1.000000
vn 0.000000 -1.000000 0.000000
vn 0.000000 -1.000000 0.000000
vn 0.000000 -1.000000 0.000000
vn 0.000000 -1.000000 0.000000
vn 1.000000 0.000000 0.000000
vn 1.000000 0.000000 0.000000
vn 1.000000 0.000000 0.000000
vn 1.000000 0.000000 0.000000
vn -1.000000 0.000000 0.000000
vn -1.000000 0.000000 0.000000
vn -1.000000 0.000000 0.000000
vn -1.000000 0.000000 0.000000
s off
f 1/1/1 2/2/2 4/4/3 3/3/4
f 3/3/5 4/4/6 6/6/7 5/5/8
f 5/5/9 6/6/10 8/8/11 7/7/12
f 7/7/13 8/8/14 2/10/15 1/9/16
f 2/2/17 8/11/18 6/12/19 4/4/20
f 7/13/21 1/1/22 3/3/23 5/14/24
v -10.537218 4.414962 1.667525
v 10.537218 4.414962 1.667525
v -10.537218 7.812744 -0.272505
v 10.537218 7.812744 -0.272505
v -10.537218 2.688776 -9.246656
v 10.537218 2.688776 -9.246656
v -10.537218 -0.709006 -7.306625
v 10.537218 -0.709006 -7.306625
vt 0.375000 0.000000
vt 0.625000 0.000000
vt 0.375000 0.250000
vt 0.625000 0.250000
vt 0.375000 0.500000
vt 0.625000 0.500000
vt 0.375000 0.750000
vt 0.625000 0.750000
vt 0.375000 1.000000
vt 0.625000 1.000000
vt 0.875000 0.000000
vt 0.875000 0.250000
vt 0.125000 0.000000
vt 0.125000 0.250000
vn 0.000000 0.495839 0.868415
vn 0.000000 0.495839 0.868415
vn 0.000000 0.495839 0.868415
vn 0.000000 0.495839 0.868415
vn 0.000000 0.868415 -0.495839
vn 0.000000 0.868415 -0.495839
vn 0.000000 0.868415 -0.495839
vn 0.000000 0.868415 -0.495839
vn 0.000000 -0.495839 -0.868415
vn 0.000000 -0.495839 -0.868415
vn 0.000000 -0.495839 -0.868415
vn 0.000000 -0.495839 -0.868415
vn 0.000000 -0.868415 0.495839
vn 0.000000 -0.868415 0.495839
vn 0.000000 -0.868415 0.495839
vn 0.000000 -0.868415 0.495839
vn 1.000000 -0.000000 0.000000
vn 1.000000 -0.000000 0.000000
vn 1.000000 -0.000000 0.000000
vn 1.000000 -0.000000 0.000000
vn -1.000000 0.000000 0.000000
vn -1.000000 0.000000 0.000000
vn -1.000000 0.000000 0.000000
vn -1.000000 0.000000 0.000000
s off
f 9/15/25 10/16/26 12/18/27 11/17/28
f 11/17/29 12/18/30 14/20/31 13/19/32
f 13/19/33 14/20/34 16/22/35 15/21/36
f 15/21/37 16/22/38 10/24/39 9/23/40
f 10/16/41 16/25/42 14/26/43 12/18/44
f 15/27/45 9/15/46 11/17/47 13/28/48
v -15.586320 4.307364 2.587007
v -10.412306 4.307364 2.587007
v -15.586320 30.830042 2.587007
v -10.412306 30.830042 2.587007
v -15.586320 30.830042 -2.587007
v -10.412306 30.830042 -2.587007
v -15.586320 4.307364 -2.587007
v -10.412306 4.307364 -2.587007
vt 0.375000 0.000000
vt 0.625000 0.000000
vt 0.375000 0.250000
vt 0.625000 0.250000
vt 0.375000 0.500000
vt 0.625000 0.500000
vt 0.375000 0.750000
vt 0.625000 0.750000
vt 0.375000 1.000000
vt 0.625000 1.000000
vt 0.875000 0.000000
vt 0.875000 0.250000
vt 0.125000 0.000000
vt 0.125000 0.250000
vn 0.000000 0.000000 1.000000
vn 0.000000 0.000000 1.000000
vn 0.000000 0.000000 1.000000
vn 0.000000 0.000000 1.000000
vn 0.000000 1.000000 0.000000
vn 0.000000 1.000000 0.000000
vn 0.000000 1.000000 0.000000
vn 0.000000 1.000000 0.000000
vn 0.000000 0.000000 -1.000000
vn 0.000000 0.000000 -1.000000
vn 0.000000 0.000000 -1.000000
vn 0.000000 0.000000 -1.000000
vn 0.000000 -1.000000 0.000000
vn 0.000000 -1.000000 0.000000
vn 0.000000 -1.000000 0.000000
vn 0.000000 -1.000000 0.000000
vn 1.000000 0.000000 0.000000
vn 1.000000 0.000000 0.000000
vn 1.000000 0.000000 0.000000
vn 1.000000 0.000000 0.000000
vn -1.000000 0.000000 0.000000
vn -1.000000 0.000000 0.000000
vn -1.000000 0.000000 0.000000
vn -1.000000 0.000000 0.000000
s off
f 17/29/49 18/30/50 20/32/51 19/31/52
f 19/31/53 20/32/54 22/34/55 21/33/56
f 21/33/57 22/34/58 24/36/59 23/35/60
f 23/35/61 24/36/62 18/38/63 17/37/64
f 18/30/65 24/39/66 22/40/67 20/32/68
f 23/41/69 17/29/70 19/31/71 21/42/72
v -30.308456 -6.063098 -18.001274
v -30.280242 -6.231126 18.058149
v -31.911758 0.017994 -17.971683
v -31.883546 -0.150034 18.087740
v -15.315832 4.393531 -17.964278
v -15.287619 4.225503 18.095144
v -13.712532 -1.687562 -17.993870
v -13.684318 -1.855590 18.065553
vt 0.375000 0.000000
vt 0.625000 0.000000
vt 0.375000 0.250000
vt 0.625000 0.250000
vt 0.375000 0.500000
vt 0.625000 0.500000
vt 0.375000 0.750000
vt 0.625000 0.750000
vt 0.375000 1.000000
vt 0.625000 1.000000
vt 0.875000 0.000000
vt 0.875000 0.250000
vt 0.125000 0.000000
vt 0.125000 0.250000
vn -0.966957 -0.254940 -0.000431
vn -0.966957 -0.254940 -0.000431
vn -0.966957 -0.254940 -0.000431
vn -0.966957 -0.254940 -0.000431
vn -0.254939 0.966946 0.004705
vn -0.254939 0.966946 0.004705
vn -0.254939 0.966946 0.004705
vn -0.254939 0.966946 0.004705
vn 0.966957 0.254939 0.000431
vn 0.966957 0.254939 0.000431
vn 0.966957 0.254939 0.000431
vn 0.966957 0.254939 0.000431
vn 0.254939 -0.966946 -0.004705
vn 0.254939 -0.966946 -0.004705
vn 0.254939 -0.966946 -0.004705
vn 0.254939 -0.966946 -0.004705
vn 0.000782 -0.004660 0.999989
vn 0.000782 -0.004660 0.999989
vn 0.000782 -0.004660 0.999989
vn 0.000782 -0.004660 0.999989
vn -0.000782 0.004660 -0.999989
vn -0.000782 0.004660 -0.999989
vn -0.000782 0.004660 -0.999989
vn -0.000782 0.004660 -0.999989
s off
f 25/43/73 26/44/74 28/46/75 27/45/76
f 27/45/77 28/46/78 30/48/79 29/47/80
f 29/47/81 30/48/82 32/50/83 31/49/84
f 31/49/85 32/50/86 26/52/87 25/51/88
f 26/44/89 32/53/90 30/54/91 28/46/92
f 31/55/93 25/43/94 27/45/95 29/56/96
v 10.243505 4.307364 2.587007
v 15.417519 4.307364 2.587007
v 10.243505 30.830042 2.587007
v 15.417519 30.830042 2.587007
v 10.243505 30.830042 -2.587007
v 15.417519 30.830042 -2.587007
v 10.243505 4.307364 -2.587007
v 15.417519 4.307364 -2.587007
vt 0.375000 0.000000
vt 0.625000 0.000000
vt 0.375000 0.250000
vt 0.625000 0.250000
vt 0.375000 0.500000
vt 0.625000 0.500000
vt 0.375000 0.750000
vt 0.625000 0.750000
vt 0.375000 1.000000
vt 0.625000 1.000000
vt 0.875000 0.000000
vt 0.875000 0.250000
vt 0.125000 0.000000
vt 0.125000 0.250000
vn 0.000000 0.000000 1.000000
vn 0.000000 0.000000 1.000000
vn 0.000000 0.000000 1.000000
vn 0.000000 0.000000 1.000000
vn 0.000000 1.000000 0.000000
vn 0.000000 1.000000 0.000000
vn 0.000000 1.000000 0.000000
vn 0.000000 1.000000 0.000000
vn 0.000000 0.000000 -1.000000
vn 0.000000 0.000000 -1.000000
vn 0.000000 0.000000 -1.000000
vn 0.000000 0.000000 -1.000000
vn 0.000000 -1.000000 0.000000
vn 0.000000 -1.000000 0.000000
vn 0.000000 -1.000000 0.000000
vn 0.000000 -1.000000 0.000000
vn 1.000000 0.000000 0.000000
vn 1.000000 0.000000 0.000000
vn 1.000000 0.000000 0.000000
vn 1.000000 0.000000 0.000000
vn -1.000000 0.000000 0.000000
vn -1.000000 0.000000 0.000000
vn -1.000000 0.000000 0.000000
vn -1.000000 0.000000 0.000000
s off
f 33/57/97 34/58/98 36/60/99 35/59/100
f 35/59/101 36/60/102 38/62/103 37/61/104
f 37/61/105 38/62/106 40/64/107 39/63/108
f 39/63/109 40/64/110 34/66/111 33/65/112
f 34/58/113 40/67/114 38/68/115 36/60/116
f 39/69/117 33/57/118 35/59/119 37/70/120
v -10.537218 -0.610026 7.402775
v 10.537218 -0.610026 7.402775
v -10.537218 2.806935 9.308823
v 10.537218 2.806935 9.308823
v -10.537218 8.096514 -0.173776
v 10.537218 8.096514 -0.173776
v -10.537218 4.679552 -2.079824
v 10.537218 4.679552 -2.079824
vt 0.375000 0.000000
vt 0.625000 0.000000
vt 0.375000 0.250000
vt 0.625000 0.250000
vt 0.375000 0.500000
vt 0.625000 0.500000
vt 0.375000 0.750000
vt 0.625000 0.750000
vt 0.375000 1.000000
vt 0.625000 1.000000
vt 0.875000 0.000000
vt 0.875000 0.250000
vt 0.125000 0.000000
vt 0.125000 0.250000
vn 0.000000 -0.487153 0.873317
vn 0.000000 -0.487153 0.873317
vn 0.000000 -0.487153 0.873317
vn 0.000000 -0.487153 0.873317
vn 0.000000 0.873317 0.487153
vn 0.000000 0.873317 0.487153
vn 0.000000 0.873317 0.487153
vn 0.000000 0.873317 0.487153
vn 0.000000 0.487153 -0.873317
vn 0.000000 0.487153 -0.873317
vn 0.000000 0.487153 -0.873317
vn 0.000000 0.487153 -0.873317
vn 0.000000 -0.873317 -0.487153
vn 0.000000 -0.873317 -0.487153
vn 0.000000 -0.873317 -0.487153
vn 0.000000 -0.873317 -0.487153
vn 1.000000 0.000000 0.000000
vn 1.000000 0.000000 0.000000
vn 1.000000 0.000000 0.000000
vn 1.000000 0.000000 0.000000
vn -1.000000 0.000000 0.000000
vn -1.000000 0.000000 0.000000
vn -1.000000 0.000000 0.000000
vn -1.000000 0.000000 0.000000
s off
f 41/71/121 42/72/122 44/74/123 43/73/124
f 43/73/125 44/74/126 46/76/127 45/75/128
f 45/75/129 46/76/130 48/78/131 47/77/132
f 47/77/133 48/78/134 42/80/135 41/79/136
f 42/72/137 48/81/138 46/82/139 44/74/140
f 47/83/141 41/71/142 43/73/143 45/84/144
v -20.897158 -1.778510 -11.164889
v 20.832846 -1.778510 -11.164889
v -20.897158 4.263330 -12.910541
v 20.832846 4.263330 -12.910541
v -20.897158 -0.500679 -29.399153
v 20.832846 -0.500679 -29.399153
v -20.897158 -6.542519 -27.653500
v 20.832846 -6.542519 -27.653500
vt 0.375000 0.000000
vt 0.625000 0.000000
vt 0.375000 0.250000
vt 0.625000 0.250000
vt 0.375000 0.500000
vt 0.625000 0.500000
vt 0.375000 0.750000
vt 0.625000 0.750000
vt 0.375000 1.000000
vt 0.625000 1.000000
vt 0.875000 0.000000
vt 0.875000 0.250000
vt 0.125000 0.000000
vt 0.125000 0.250000
vn 0.000000 0.277574 0.960704
vn 0.000000 0.277574 0.960704
vn 0.000000 0.277574 0.960704
vn 0.000000 0.277574 0.960704
vn 0.000000 0.960704 -0.277574
vn 0.000000 0.960704 -0.277574
vn 0.000000 0.960704 -0.277574
vn 0.000000 0.960704 -0.277574
vn 0.000000 -0.277574 -0.960704
vn 0.000000 -0.277574 -0.960704
vn 0.000000 -0.277574 -0.960704
vn 0.000000 -0.277574 -0.960704
vn 0.000000 -0.960704 0.277574
vn 0.000000 -0.960704 0.277574
vn 0.000000 -0.960704 0.277574
vn 0.000000 -0.960704 0.277574
vn 1.000000 -0.000000 0.000000
vn 1.000000 -0.000000 0.000000
vn 1.000000 -0.000000 0.000000
vn 1.000000 -0.000000 0.000000
vn -1.000000 -0.000000 0.000000
vn -1.000000 -0.000000 0.000000
vn -1.000000 -0.000000 0.000000
vn -1.000000 -0.000000 0.000000
s off
f 49/85/145 50/86/146 52/88/147 51/87/148
f 51/87/149 52/88/150 54/90/151 53/89/152
f 53/89/153 54/90/154 56/92/155 55/91/156
f 55/91/157 56/92/158 50/94/159 49/93/160
f 50/86/161 56/95/162 54/96/163 52/88/164
f 55/97/165 49/85/166 51/87/167 53/98/168
v -20.948792 -6.605064 28.481420
v 20.933151 -6.605064 28.481420
v -20.948792 -0.571724 30.256226
v 20.933151 -0.571724 30.256226
v -20.948792 4.271845 13.790808
v 20.933151 4.271845 13.790808
v -20.948792 -1.761496 12.016003
v 20.933151 -1.761496 12.016003
vt 0.375000 0.000000
vt 0.625000 0.000000
vt 0.375000 0.250000
vt 0.625000 0.250000
vt 0.375000 0.500000
vt 0.625000 0.500000
vt 0.375000 0.750000
vt 0.625000 0.750000
vt 0.375000 1.000000
vt 0.625000 1.000000
vt 0.875000 0.000000
vt 0.875000 0.250000
vt 0.125000 0.000000
vt 0.125000 0.250000
vn 0.000000 -0.282209 0.959353
vn 0.000000 -0.282209 0.959353
vn 0.000000 -0.282209 0.959353
vn 0.000000 -0.282209 0.959353
vn 0.000000 0.959353 0.282209
vn 0.000000 0.959353 0.282209
vn 0.000000 0.959353 0.282209
vn 0.000000 0.959353 0.282209
vn 0.000000 0.282209 -0.959353
vn 0.000000 0.282209 -0.959353
vn 0.000000 0.282209 -0.959353
vn 0.000000 0.282209 -0.959353
vn 0.000000 -0.959353 -0.282209
vn 0.000000 -0.959353 -0.282209
vn 0.000000 -0.959353 -0.282209
vn 0.000000 -0.959353 -0.282209
vn 1.000000 0.000000 0.000000
vn 1.000000 0.000000 0.000000
vn 1.000000 0.000000 0.000000
vn 1.000000 0.000000 0.000000
vn -1.000000 0.000000 0.000000
vn -1.000000 0.000000 0.000000
vn -1.000000 0.000000 0.000000
vn -1.000000 0.000000 0.000000
s off
f 57/99/169 58/100/170 60/102/171 59/101/172
f 59/101/173 60/102/174 62/104/175 61/103/176
f 61/103/177 62/104/178 64/106/179 63/105/180
f 63/105/181 64/106/182 58/108/183 57/107/184
f 58/100/185 64/109/186 62/110/187 60/102/188
f 63/111/189 57/99/190 59/101/191 61/112/192
v -12.235504 28.308586 2.586296
v 12.235504 28.308586 2.586296
v -12.235504 33.481178 2.586296
v 12.235504 33.481178 2.586296
v -12.235504 33.481178 -2.586296
v 12.235504 33.481178 -2.586296
v -12.235504 28.308586 -2.586296
v 12.235504 28.308586 -2.586296
vt 0.375000 0.000000
vt 0.625000 0.000000
vt 0.375000 0.250000
vt 0.625000 0.250000
vt 0.375000 0.500000
vt 0.625000 0.500000
vt 0.375000 0.750000
vt 0.625000 0.750000
vt 0.375000 1.000000
vt 0.625000 1.000000
vt 0.875000 0.000000
vt 0.875000 0.250000
vt 0.125000 0.000000
vt 0.125000 0.250000
vn 0.000000 0.000000 1.000000
vn 0.000000 0.000000 1.000000
vn 0.000000 0.000000 1.000000
vn 0.000000 0.000000 1.000000
vn 0.000000 1.000000 0.000000
vn 0.000000 1.000000 0.000000
vn 0.000000 1.000000 0.000000
vn 0.000000 1.000000 0.000000
vn 0.000000 0.000000 -1.000000
vn 0.000000 0.000000 -1.000000
vn 0.000000 0.000000 -1.000000
vn 0.000000 0.000000 -1.000000
vn 0.000000 -1.000000 0.000000
vn 0.000000 -1.000000 0.000000
vn 0.000000 -1.000000 0.000000
vn 0.000000 -1.000000 0.000000
vn 1.000000 0.000000 0.000000
vn 1.000000 0.000000 0.000000
vn 1.000000 0.000000 0.000000
vn 1.000000 0.000000 0.000000
vn -1.000000 0.000000 0.000000
vn -1.000000 0.000000 0.000000
vn -1.000000 0.000000 0.000000
vn -1.000000 0.000000 0.000000
s off
f 65/113/193 66/114/194 68/116/195 67/115/196
f 67/115/197 68/116/198 70/118/199 69/117/200
f 69/117/201 70/118/202 72/120/203 71/119/204
f 71/119/205 72/120/206 66/122/207 65/121/208
f 66/114/209 72/123/210 70/124/211 68/116/212
f 71/125/213 65/113/214 67/115/215 69/126/216
v 13.691581 -1.795668 -18.053046
v 13.593459 -1.725149 17.959890
v 15.154154 4.320863 -18.061038
v 15.056032 4.391381 17.951898
v 31.846548 0.329476 -18.007741
v 31.748429 0.399994 18.005194
v 30.383975 -5.787055 -17.999750
v 30.285856 -5.716537 18.013186
vt 0.375000 0.000000
vt 0.625000 0.000000
vt 0.375000 0.250000
vt 0.625000 0.250000
vt 0.375000 0.500000
vt 0.625000 0.500000
vt 0.375000 0.750000
vt 0.625000 0.750000
vt 0.375000 1.000000
vt 0.625000 1.000000
vt 0.875000 0.000000
vt 0.875000 0.250000
vt 0.125000 0.000000
vt 0.125000 0.250000
vn -0.972578 0.232557 -0.003105
vn -0.972578 0.232557 -0.003105
vn -0.972578 0.232557 -0.003105
vn -0.972578 0.232557 -0.003105
vn 0.232562 0.972581 -0.001271
vn 0.232562 0.972581 -0.001271
vn 0.232562 0.972581 -0.001271
vn 0.232562 0.972581 -0.001271
vn 0.972578 -0.232557 0.003105
vn 0.972578 -0.232557 0.003105
vn 0.972578 -0.232557 0.003105
vn 0.972578 -0.232557 0.003105
vn -0.232562 -0.972581 0.001271
vn -0.232562 -0.972581 0.001271
vn -0.232562 -0.972581 0.001271
vn -0.232562 -0.972581 0.001271
vn -0.002725 0.001958 0.999994
vn -0.002725 0.001958 0.999994
vn -0.002725 0.001958 0.999994
vn -0.002725 0.001958 0.999994
vn 0.002725 -0.001958 -0.999994
vn 0.002725 -0.001958 -0.999994
vn 0.002725 -0.001958 -0.999994
vn 0.002725 -0.001958 -0.999994
s off
f 73/127/217 74/128/218 76/130/219 75/129/220
f 75/129/221 76/130/222 78/132/223 77/131/224
f 77/131/225 78/132/226 80/134/227 79/133/228
f 79/133/229 80/134/230 74/136/231 73/135/232
f 74/128/233 80/137/234 78/138/235 76/130/236
f 79/139/237 73/127/238 75/129/239 77/140/240
