# This file uses centimeters as units for non-parametric coordinates.

mtllib tempRock.mtl
v 35.186543 -86.582863 -11.432800
v 29.931461 -86.582863 -21.746477
v 21.746477 -86.582863 -29.931459
v 11.432798 -86.582863 -35.186539
v 0.000000 -86.582863 -36.997315
v -11.432798 -86.582863 -35.186535
v -21.746473 -86.582863 -29.931452
v -29.931450 -86.582863 -21.746471
v -35.186527 -86.582863 -11.432796
v -36.997303 -86.582863 -0.000000
v -35.186527 -86.582863 11.432795
v -29.931448 -86.582863 21.746469
v -21.746469 -86.582863 29.931446
v -11.432795 -86.582863 35.186523
v -0.000001 -86.582863 36.997299
v 11.432793 -86.582863 35.186523
v 21.746464 -86.582863 29.931444
v 29.931440 -86.582863 21.746466
v 35.186520 -86.582863 11.432794
v 36.997295 -86.582863 -0.000000
v 0.000000 86.582863 -0.000000
vt 0.037761 0.562457
vt 0.047396 0.562457
vt 0.057031 0.562457
vt 0.066666 0.562457
vt 0.076302 0.562457
vt 0.085937 0.562457
vt 0.095572 0.562457
vt 0.105207 0.562457
vt 0.114842 0.562457
vt 0.124478 0.562457
vt 0.134113 0.562457
vt 0.143748 0.562457
vt 0.153383 0.562457
vt 0.163019 0.562457
vt 0.172654 0.562457
vt 0.182289 0.562457
vt 0.191924 0.562457
vt 0.201559 0.562457
vt 0.211195 0.562457
vt 0.220830 0.562457
vt 0.230465 0.562457
vt 0.134113 0.755161
vn 0.930066 0.208937 -0.302196
vn 0.791161 0.208937 -0.574812
vn 0.000004 1.000000 -0.000001
vn 0.574812 0.208937 -0.791161
vn 0.302197 0.208937 -0.930066
vn -0.000000 0.208937 -0.977929
vn -0.302197 0.208937 -0.930066
vn -0.574813 0.208937 -0.791161
vn -0.791161 0.208937 -0.574812
vn -0.930066 0.208937 -0.302197
vn -0.977929 0.208937 0.000000
vn -0.930066 0.208937 0.302197
vn -0.791161 0.208937 0.574812
vn -0.574812 0.208937 0.791161
vn -0.302197 0.208937 0.930066
vn 0.000000 0.208937 0.977929
vn 0.302197 0.208937 0.930066
vn 0.574812 0.208937 0.791161
vn 0.791161 0.208937 0.574812
vn 0.930066 0.208937 0.302197
vn 0.977929 0.208937 0.000001
usemtl lambert3SG
f 1/1/1 2/2/2 21/22/3
f 2/2/2 3/3/4 21/22/3
f 3/3/4 4/4/5 21/22/3
f 4/4/5 5/5/6 21/22/3
f 5/5/6 6/6/7 21/22/3
f 6/6/7 7/7/8 21/22/3
f 7/7/8 8/8/9 21/22/3
f 8/8/9 9/9/10 21/22/3
f 9/9/10 10/10/11 21/22/3
f 10/10/11 11/11/12 21/22/3
f 11/11/12 12/12/13 21/22/3
f 12/12/13 13/13/14 21/22/3
f 13/13/14 14/14/15 21/22/3
f 14/14/15 15/15/16 21/22/3
f 15/15/16 16/16/17 21/22/3
f 16/16/17 17/17/18 21/22/3
f 17/17/18 18/18/19 21/22/3
f 18/18/19 19/19/20 21/22/3
f 19/19/20 20/20/21 21/22/3
f 20/20/21 1/21/1 21/22/3
