# Blender v3.3.0 OBJ File: ''
# www.blender.org
mtllib 4.mtl
o 4
v 7.675238 17.314835 -1.151848
v 7.410775 17.314835 -1.151848
v 7.425969 17.552822 -1.171701
v 7.695090 17.552822 -1.171701
v 6.956976 22.255526 -0.433587
v 6.869003 22.255526 -0.433587
v 6.869003 22.255526 -0.349750
v 6.956976 22.255526 -0.349750
v 7.695090 17.552822 1.122303
v 7.419322 17.552822 1.122303
v 7.404241 17.314835 1.102449
v 7.675238 17.314835 1.102449
v 7.675238 17.314835 1.102449
v 5.420939 17.314835 1.102449
v 5.420939 17.314835 0.849287
v 5.420939 17.314835 -1.151848
v 7.432727 17.314835 -1.151848
v 7.675238 17.314835 -1.151848
v 5.420939 17.314835 -1.151848
v 5.420939 17.314835 1.102449
v 5.401084 17.552822 1.122303
v 5.401084 17.552822 0.864682
v 5.401084 17.552822 -0.936523
v 5.401084 17.552822 -1.171701
v 7.695090 17.552822 -0.923148
v 7.675238 17.314835 -0.907597
v 7.991220 21.102497 -1.467829
v 7.652618 21.102497 -1.467829
v 5.104960 21.102497 -1.467829
v 5.104960 21.102497 -1.171934
v 6.139202 22.255526 -0.349750
v 6.139202 22.255526 -0.433587
v 6.869003 22.255526 0.384186
v 7.644251 21.102497 1.418429
v 7.991220 21.102497 1.418429
v 6.956976 22.255526 0.384186
v 7.991220 21.102497 -1.155105
v 5.716598 17.314835 1.102449
v 5.716598 17.314835 -1.151848
v 7.675238 17.314835 0.849287
v 5.701952 17.552822 -1.171701
v 5.483504 21.102497 -1.467829
v 6.246455 22.255526 -0.433587
v 6.246455 22.255526 -0.349750
v 6.246455 22.255526 0.384186
v 5.483504 21.102497 1.418429
v 5.701952 17.552822 1.122303
v 5.104960 21.102497 1.418429
v 6.139202 22.255526 0.384186
v 7.965826 20.798111 -1.135215
v 7.965826 20.798111 -1.442436
v 7.624963 20.798111 1.393037
v 7.965826 20.798111 1.393037
v 5.502235 20.798111 1.393037
v 5.130353 20.798111 1.393037
v 5.130353 20.798111 -1.442436
v 5.130353 20.798111 -1.151747
v 5.502235 20.798111 -1.442436
v 7.633183 20.798111 -1.442436
v 5.701952 17.564995 0.976384
v 7.419322 17.564995 0.976384
v 7.624963 20.810282 1.247117
v 5.502235 20.810282 1.247117
v 5.502235 20.812593 -1.268806
v 7.633183 20.812593 -1.268806
v 7.425969 17.567307 -0.998072
v 5.701952 17.567307 -0.998072
v 7.965826 20.798111 1.074608
v 7.991220 21.102497 1.094298
v 7.695090 17.552822 0.864682
v 5.130353 20.798111 1.074608
v 5.104960 21.102497 1.094298
v 6.139202 22.255526 0.292349
v 6.246455 22.255526 0.292349
v 6.869003 22.255526 0.292349
v 6.956976 22.255526 0.292349
v 5.319649 20.813900 -1.151747
v 5.590381 17.568613 -0.936523
v 5.590381 17.568613 0.864682
v 5.319649 20.813900 1.074608
v 6.453141 23.025969 0.079173
v 6.662318 23.025969 0.079173
v 6.662318 23.025969 -0.136574
v 6.453141 23.025969 -0.136574
v 7.717970 20.818787 1.074608
v 7.447234 17.573498 0.864682
v 7.447234 17.573502 -0.923148
v 7.717970 20.818789 -1.135215
v 6.952009 22.398438 0.377962
v 6.163449 22.398438 0.377962
v 6.952009 22.398438 -0.435363
v 6.163449 22.398438 -0.435363
v 6.687719 22.911886 -0.164457
v 6.420628 22.911886 -0.164457
v 6.420628 25.438776 -0.164457
v 6.687719 25.438776 -0.164457
v 6.420628 25.438776 0.102634
v 6.687719 25.438776 0.102634
v 6.420628 22.911886 0.102634
v 6.687719 22.911886 0.102634
v -4.557724 -0.327144 -0.879736
v -5.991220 -0.327144 -0.879736
v -5.991220 17.770395 -0.879739
v -4.557724 17.770395 -0.879739
v -4.557724 27.418892 -0.879740
v -5.991220 27.418892 -0.879740
v -5.991220 27.418892 0.879732
v -4.557724 27.418892 0.879732
v -4.557724 17.770386 0.879733
v -5.991220 17.770386 0.879733
v -5.991220 -0.327144 0.879736
v -4.557724 -0.327144 0.879736
v -4.557724 26.762501 0.879732
v -4.557724 26.762505 -0.879740
v -5.991220 26.762501 0.879732
v -5.991220 26.762505 -0.879740
v 7.675899 25.417145 0.879732
v 7.675899 25.417149 -0.879740
v 7.675899 26.762505 -0.879740
v 7.675899 26.762501 0.879732
v -5.991220 25.417145 0.879732
v -4.557724 25.417145 0.879732
v -5.991220 25.417149 -0.879740
v -4.557724 25.417149 -0.879740
v 2.351899 25.417149 -0.879740
v 2.351899 25.417145 0.879732
v 2.351899 26.762505 -0.879740
v 2.351899 26.762501 0.879732
v 3.827302 25.417149 -0.879740
v 3.827302 25.417145 0.879732
v 3.827302 26.762501 0.879732
v 3.827302 26.762505 -0.879740
v -4.557724 19.206924 0.879733
v -4.557724 19.206932 -0.879739
v -5.991220 19.206924 0.879733
v -5.991220 19.206932 -0.879739
vt 0.112463 0.815163
vt 0.116747 0.815163
vt 0.116747 0.817665
vt 0.112463 0.817665
vt 0.112463 0.854978
vt 0.116747 0.854978
vt 0.116747 0.859060
vt 0.112463 0.859060
vt 0.112463 0.932107
vt 0.116747 0.932107
vt 0.116747 0.934609
vt 0.112463 0.934609
vt 0.112463 0.934609
vt 0.152279 0.934609
vt 0.152279 0.939080
vt 0.152279 0.974424
vt 0.116747 0.974424
vt 0.112463 0.974424
vt 0.152279 0.815163
vt 0.192094 0.815163
vt 0.192094 0.817665
vt 0.187622 0.817665
vt 0.156360 0.817665
vt 0.152279 0.817665
vt 0.108382 0.817665
vt 0.108382 0.815163
vt 0.112463 0.854978
vt 0.116747 0.854978
vt 0.152279 0.854978
vt 0.152279 0.859060
vt 0.152279 0.859060
vt 0.152279 0.854978
vt 0.116747 0.894794
vt 0.116747 0.894794
vt 0.112463 0.894794
vt 0.112463 0.894794
vt 0.112463 0.859060
vt 0.147057 0.934609
vt 0.152279 0.934609
vt 0.152279 0.974424
vt 0.147057 0.974424
vt 0.116747 0.974424
vt 0.112463 0.974424
vt 0.112463 0.970342
vt 0.112463 0.939080
vt 0.147057 0.817665
vt 0.147057 0.815163
vt 0.147057 0.854978
vt 0.147057 0.854978
vt 0.147057 0.859060
vt 0.147057 0.894794
vt 0.147057 0.894794
vt 0.147057 0.932107
vt 0.152279 0.894794
vt 0.152279 0.894794
vt 0.152279 0.932107
vt 0.108382 0.854978
vt 0.108382 0.851779
vt 0.112463 0.851779
vt 0.116747 0.897993
vt 0.112463 0.897993
vt 0.147057 0.897993
vt 0.152279 0.897993
vt 0.152279 0.851779
vt 0.156360 0.851779
vt 0.156360 0.854978
vt 0.147057 0.851779
vt 0.116747 0.851779
vt 0.366185 0.915808
vt 0.335875 0.915808
vt 0.335875 0.881694
vt 0.366185 0.881694
vt 0.362235 0.851078
vt 0.331925 0.851078
vt 0.331925 0.816964
vt 0.362235 0.816964
vt 0.072648 0.851779
vt 0.077120 0.851779
vt 0.077120 0.854978
vt 0.072648 0.854978
vt 0.072648 0.817665
vt 0.077120 0.817665
vt 0.072648 0.815163
vt 0.077120 0.815163
vt 0.187622 0.851779
vt 0.192094 0.851779
vt 0.187622 0.854978
vt 0.192094 0.854978
vt 0.152279 0.890322
vt 0.152279 0.890322
vt 0.147057 0.890322
vt 0.116747 0.890322
vt 0.112463 0.890322
vt 0.112463 0.890322
vt 0.293738 0.847573
vt 0.293738 0.813459
vt 0.325000 0.813459
vt 0.325000 0.847573
vt 0.147057 0.890322
vt 0.116747 0.890322
vt 0.116747 0.859060
vt 0.147057 0.859060
vt 0.278280 0.893132
vt 0.278280 0.859018
vt 0.309542 0.859018
vt 0.309542 0.893132
vt 0.077120 0.817665
vt 0.077120 0.851779
vt 0.108382 0.817665
vt 0.108382 0.851779
vt 0.116747 0.932107
vt 0.147057 0.932107
vt 0.116747 0.897993
vt 0.147057 0.897993
vt 0.116747 0.851779
vt 0.147057 0.851779
vt 0.116747 0.817665
vt 0.147057 0.817665
vt 0.156360 0.817665
vt 0.156360 0.851779
vt 0.187622 0.817665
vt 0.187622 0.851779
vt 0.116747 0.890322
vt 0.147057 0.890322
vt 0.116747 0.859060
vt 0.147057 0.859060
vt 0.596745 0.084716
vt 0.624195 0.084716
vt 0.624195 0.112165
vt 0.596745 0.112165
vt 0.624195 0.139615
vt 0.596745 0.139615
vt 0.624195 0.167065
vt 0.596745 0.167065
vt 0.624195 0.194514
vt 0.596745 0.194514
vt 0.651644 0.084716
vt 0.651644 0.112165
vt 0.569296 0.084716
vt 0.569296 0.112165
vt 0.848208 0.300720
vt 0.894424 0.300720
vt 0.894424 0.330864
vt 0.848208 0.330864
vt 0.848208 0.346936
vt 0.894424 0.346936
vt 0.894424 0.393152
vt 0.848208 0.393152
vt 0.848208 0.409224
vt 0.894424 0.409224
vt 0.894424 0.439368
vt 0.848208 0.439368
vt 0.894424 0.485585
vt 0.848208 0.485585
vt 0.940641 0.300720
vt 0.940641 0.330864
vt 0.801992 0.300720
vt 0.801992 0.330864
vt 0.801992 0.345843
vt 0.848208 0.345843
vt 0.801992 0.346936
vt 0.894424 0.394246
vt 0.848208 0.394246
vt 0.894424 0.345843
vt 0.940641 0.345843
vt 0.940641 0.346936
vt 0.801992 0.343602
vt 0.848208 0.343602
vt 0.848208 0.345843
vt 0.801992 0.345843
vt 0.894424 0.396486
vt 0.848208 0.396486
vt 0.894424 0.343602
vt 0.940641 0.343602
vt 0.848208 0.343602
vt 0.801992 0.343602
vt 0.848208 0.343602
vt 0.801992 0.343602
vt 0.848208 0.345843
vt 0.801992 0.345843
vt 0.848208 0.343602
vt 0.801992 0.343602
vt 0.801992 0.345843
vt 0.848208 0.345843
vt 0.801992 0.333257
vt 0.848208 0.333257
vt 0.894424 0.406831
vt 0.848208 0.406831
vt 0.894424 0.333257
vt 0.940641 0.333257
vt 0.853822 0.332885
vt 0.799557 0.332884
vt 0.853929 0.334682
vt 0.799784 0.334676
vn 0.0000 -0.0831 -0.9965
vn 0.0000 1.0000 0.0000
vn 0.0000 -0.0831 0.9965
vn 0.0000 -1.0000 0.0000
vn -0.9965 -0.0831 0.0000
vn 0.9965 -0.0831 0.0000
vn 0.0000 0.6677 -0.7444
vn -0.7444 0.6677 0.0000
vn 0.0000 0.6677 0.7444
vn 0.7444 0.6677 0.0000
vn 0.0000 0.0000 0.0000
vn 0.0000 0.9991 0.0416
vn 0.6446 -0.5147 -0.5653
vn 0.0000 -0.9511 -0.3090
vn 0.2798 -0.4344 0.8562
vn 0.4608 -0.4107 0.7868
vn -0.0000 0.0000 -1.0000
vn 0.0053 0.0641 -0.9979
vn 0.0831 0.9965 0.0000
vn 0.0054 0.0648 0.9979
vn -0.0831 -0.9965 0.0000
vn 0.0000 0.9965 0.0831
vn -0.9980 0.0628 0.0052
vn 0.0000 -0.9965 -0.0831
vn 0.9981 0.0610 0.0051
vn 0.0000 -0.9965 0.0831
vn -0.9980 0.0633 -0.0053
vn 0.0000 0.9965 -0.0831
vn 0.9981 0.0610 -0.0051
vn -0.0055 0.0657 0.9978
vn -0.0831 0.9965 0.0000
vn -0.0053 0.0641 -0.9979
vn 0.0831 -0.9965 0.0000
vn 0.0000 -0.5139 0.8579
vn 0.8647 -0.5022 0.0000
vn 0.0000 -0.5139 -0.8579
vn -0.8647 -0.5023 0.0000
vn 0.0000 0.4299 0.9029
vn 0.9079 0.4191 0.0000
vn 0.0000 0.4299 -0.9029
vn -0.9079 0.4191 0.0000
vn 0.0000 0.0000 1.0000
vn -1.0000 0.0000 0.0000
vn 1.0000 0.0000 0.0000
vn 0.6738 -0.7389 -0.0000
vn -0.6685 0.7437 0.0000
usemtl lambert2SG
s 1
f 1/1/1 2/2/1 3/3/1 4/4/1
f 5/5/2 6/6/2 7/7/2 8/8/2
f 9/9/3 10/10/3 11/11/3 12/12/3
f 13/13/4 14/14/4 15/15/4 16/16/4 17/17/4 18/18/4
f 19/19/5 20/20/5 21/21/5 22/22/5 23/23/5 24/24/5
f 25/25/6 26/26/6 1/1/6 4/4/6
f 27/27/7 28/28/7 6/6/7 5/5/7
f 29/29/8 30/30/8 31/31/8 32/32/8
f 33/33/9 34/34/9 35/35/9 36/36/9
f 8/8/10 37/37/10 27/27/10 5/5/10
f 12/12/11 11/11/12 38/38/12 20/39/13 14/14/14 13/13/11
f 20/39/13 19/40/15 16/16/16 15/15/4 14/14/14
f 19/40/15 39/41/17 2/42/17 1/43/11 18/18/11 17/17/17 16/16/16
f 1/43/11 26/44/11 40/45/11 12/12/11 13/13/11 18/18/11
f 41/46/1 3/3/1 2/2/1 39/47/1
f 6/6/7 28/28/7 42/48/7 43/49/7
f 44/50/2 7/7/2 6/6/2 43/49/2
f 45/51/9 46/52/9 34/34/9 33/33/9
f 11/11/3 10/10/3 47/53/3 38/38/3
f 24/24/1 41/46/1 39/47/1 19/19/1
f 43/49/7 42/48/7 29/29/7 32/32/7
f 31/31/2 44/50/2 43/49/2 32/32/2
f 48/54/9 46/52/9 45/51/9 49/55/9
f 38/38/3 47/53/3 21/56/3 20/39/3
f 37/57/6 50/58/6 51/59/6 27/27/6
f 35/35/3 34/34/3 52/60/3 53/61/3
f 54/62/3 52/60/3 34/34/3 46/52/3
f 55/63/3 54/62/3 46/52/3 48/54/3
f 56/64/5 57/65/5 30/66/5 29/29/5
f 42/48/1 58/67/1 56/64/1 29/29/1
f 28/28/1 59/68/1 58/67/1 42/48/1
f 51/59/1 59/68/1 28/28/1 27/27/1
f 50/58/6 25/25/6 4/4/6 51/59/6
f 53/61/3 52/60/3 10/10/3 9/9/3
f 60/69/3 61/70/3 62/71/3 63/72/3
f 21/56/3 47/53/3 54/62/3 55/63/3
f 24/24/5 23/23/5 57/65/5 56/64/5
f 56/64/1 58/67/1 41/46/1 24/24/1
f 64/73/1 65/74/1 66/75/1 67/76/1
f 4/4/1 3/3/1 59/68/1 51/59/1
f 53/77/6 68/78/6 69/79/6 35/80/6
f 9/81/6 70/82/6 68/78/6 53/77/6
f 12/83/6 40/84/6 70/82/6 9/81/6
f 71/85/5 22/22/5 21/21/5 55/86/5
f 72/87/5 71/85/5 55/86/5 48/88/5
f 73/89/8 72/90/8 48/54/8 49/55/8
f 45/51/2 74/91/2 73/89/2 49/55/2
f 33/33/2 75/92/2 74/91/2 45/51/2
f 76/93/2 75/92/2 33/33/2 36/36/2
f 35/35/10 69/94/10 76/93/10 36/36/10
f 77/95/5 78/96/5 79/97/5 80/98/5
f 30/66/5 57/65/5 71/85/5 72/87/5
f 31/31/8 30/30/8 72/90/8 73/89/8
f 73/89/2 74/91/2 44/50/2 31/31/2
f 81/99/2 82/100/2 83/101/2 84/102/2
f 8/8/2 7/7/2 75/92/2 76/93/2
f 76/93/10 69/94/10 37/37/10 8/8/10
f 69/79/6 68/78/6 50/58/6 37/57/6
f 85/103/6 86/104/6 87/105/6 88/106/6
f 70/82/6 40/84/6 26/26/6 25/25/6
f 68/78/18 70/82/18 86/107/18 85/108/18
f 70/82/19 25/25/19 87/109/19 86/107/19
f 25/25/20 50/58/20 88/110/20 87/109/20
f 50/58/21 68/78/21 85/108/21 88/110/21
f 47/53/22 10/10/22 61/111/22 60/112/22
f 10/10/23 52/60/23 62/113/23 61/111/23
f 52/60/24 54/62/24 63/114/24 62/113/24
f 54/62/25 47/53/25 60/112/25 63/114/25
f 58/67/26 59/68/26 65/115/26 64/116/26
f 59/68/27 3/3/27 66/117/27 65/115/27
f 3/3/28 41/46/28 67/118/28 66/117/28
f 41/46/29 58/67/29 64/116/29 67/118/29
f 57/65/30 23/23/30 78/119/30 77/120/30
f 23/23/31 22/22/31 79/121/31 78/119/31
f 22/22/32 71/85/32 80/122/32 79/121/32
f 71/85/33 57/65/33 77/120/33 80/122/33
f 74/91/34 75/92/34 89/123/34 90/124/34
f 75/92/35 7/7/35 91/125/35 89/123/35
f 7/7/36 44/50/36 92/126/36 91/125/36
f 44/50/37 74/91/37 90/124/37 92/126/37
f 90/124/38 89/123/38 82/100/38 81/99/38
f 89/123/39 91/125/39 83/101/39 82/100/39
f 91/125/40 92/126/40 84/102/40 83/101/40
f 92/126/41 90/124/41 81/99/41 84/102/41
f 93/127/17 94/128/17 95/129/17 96/130/17
f 96/130/2 95/129/2 97/131/2 98/132/2
f 98/132/42 97/131/42 99/133/42 100/134/42
f 100/134/4 99/133/4 94/135/4 93/136/4
f 94/128/43 99/137/43 97/138/43 95/129/43
f 100/139/44 93/127/44 96/130/44 98/140/44
f 101/141/17 102/142/17 103/143/17 104/144/17
f 105/145/2 106/146/2 107/147/2 108/148/2
f 109/149/42 110/150/42 111/151/42 112/152/42
f 112/152/4 111/151/4 102/153/4 101/154/4
f 102/142/43 111/155/43 110/156/43 103/143/43
f 112/157/44 101/141/44 104/144/44 109/158/44
f 113/159/44 114/160/44 105/145/44 108/161/44
f 108/148/42 107/147/42 115/162/42 113/163/42
f 116/164/43 115/165/43 107/166/43 106/146/43
f 114/160/17 116/164/17 106/146/17 105/145/17
f 117/167/44 118/168/44 119/169/44 120/170/44
f 113/163/42 115/162/42 121/171/42 122/172/42
f 123/173/43 121/174/43 115/165/43 116/164/43
f 124/175/17 123/173/17 116/164/17 114/160/17
f 122/176/4 124/175/4 125/177/4 126/178/4
f 124/175/17 114/160/17 127/179/17 125/177/17
f 114/160/2 113/159/2 128/180/2 127/179/2
f 113/159/42 122/176/42 126/178/42 128/180/42
f 126/178/4 125/177/4 129/181/4 130/182/4
f 128/180/42 126/178/42 130/182/42 131/183/42
f 127/179/2 128/180/2 131/183/2 132/184/2
f 125/177/17 127/179/17 132/184/17 129/181/17
f 130/182/4 129/181/4 118/168/4 117/167/4
f 131/183/42 130/182/42 117/167/42 120/170/42
f 132/184/2 131/183/2 120/170/2 119/169/2
f 129/181/17 132/184/17 119/169/17 118/168/17
f 133/185/44 134/186/44 124/175/44 122/176/44
f 122/172/42 121/171/42 135/187/42 133/188/42
f 136/189/43 135/190/43 121/174/43 123/173/43
f 134/186/17 136/189/17 123/173/17 124/175/17
f 133/188/42 135/187/42 110/150/42 109/149/42
f 103/143/43 110/156/43 135/190/43 136/189/43
f 104/144/17 103/143/17 136/189/17 134/186/17
f 109/158/45 104/144/45 129/191/45 130/192/45
f 104/144/17 134/186/17 125/193/17 129/191/17
f 134/186/46 133/185/46 126/194/46 125/193/46
f 133/185/42 109/158/42 130/192/42 126/194/42
o ColliderBox
v -4.560039 -0.531992 -0.877063
v -4.560039 27.236942 -0.877063
v -4.560039 -0.531992 0.877063
v -4.560039 27.236942 0.877063
v -5.984489 -0.531992 -0.877063
v -5.984489 27.236942 -0.877063
v -5.984489 -0.531992 0.877063
v -5.984489 27.236942 0.877063
vt 0.375000 0.000000
vt 0.625000 0.000000
vt 0.625000 0.250000
vt 0.375000 0.250000
vt 0.625000 0.500000
vt 0.375000 0.500000
vt 0.625000 0.750000
vt 0.375000 0.750000
vt 0.625000 1.000000
vt 0.375000 1.000000
vt 0.125000 0.500000
vt 0.125000 0.750000
vt 0.875000 0.500000
vt 0.875000 0.750000
vn 1.0000 0.0000 0.0000
vn 0.0000 0.0000 1.0000
vn -1.0000 0.0000 0.0000
vn 0.0000 0.0000 -1.0000
vn 0.0000 -1.0000 0.0000
vn 0.0000 1.0000 0.0000
usemtl None
s off
f 137/195/47 138/196/47 140/197/47 139/198/47
f 139/198/48 140/197/48 144/199/48 143/200/48
f 143/200/49 144/199/49 142/201/49 141/202/49
f 141/202/50 142/201/50 138/203/50 137/204/50
f 139/205/51 143/200/51 141/202/51 137/206/51
f 144/199/52 140/207/52 138/208/52 142/201/52
