# This file uses centimeters as units for non-parametric coordinates.

mtllib room_piece_0.mtl
g default
v -12.500000 0.000000 12.500000
v 12.500000 0.000000 12.500000
v -12.500000 25.000000 12.500000
v 12.500000 25.000000 12.500000
v -12.500000 25.000000 -12.500000
v 12.500000 25.000000 -12.500000
v -12.500000 0.000000 -12.500000
v 12.500000 0.000000 -12.500000
vt 0.707092 0.033726
vt 0.817908 0.033726
vt 0.817908 0.144542
vt 0.707092 0.144542
vt 0.817908 0.255357
vt 0.707092 0.255357
vt 0.817908 0.366173
vt 0.707092 0.366173
vt 0.817908 0.476988
vt 0.707092 0.476988
vt 0.928723 0.033726
vt 0.928723 0.144542
vt 0.596277 0.033726
vt 0.596277 0.144542
vn 0.000000 0.000000 1.000000
vn 0.000000 0.000000 1.000000
vn 0.000000 0.000000 1.000000
vn 0.000000 0.000000 1.000000
vn 0.000000 1.000000 0.000000
vn 0.000000 1.000000 0.000000
vn 0.000000 1.000000 0.000000
vn 0.000000 1.000000 0.000000
vn 0.000000 0.000000 -1.000000
vn 0.000000 0.000000 -1.000000
vn 0.000000 0.000000 -1.000000
vn 0.000000 0.000000 -1.000000
vn 0.000000 -1.000000 0.000000
vn 0.000000 -1.000000 0.000000
vn 0.000000 -1.000000 0.000000
vn 0.000000 -1.000000 0.000000
vn 1.000000 0.000000 0.000000
vn 1.000000 0.000000 0.000000
vn 1.000000 0.000000 0.000000
vn 1.000000 0.000000 0.000000
vn -1.000000 0.000000 0.000000
vn -1.000000 0.000000 0.000000
vn -1.000000 0.000000 0.000000
vn -1.000000 0.000000 0.000000
s off
g room_piece_0_pCube2
usemtl lambert2SG
f 1/1/1 2/2/2 4/3/3 3/4/4
f 3/4/5 4/3/6 6/5/7 5/6/8
f 5/6/9 6/5/10 8/7/11 7/8/12
f 7/8/13 8/7/14 2/9/15 1/10/16
f 2/2/17 8/11/18 6/12/19 4/3/20
f 7/13/21 1/1/22 3/4/23 5/14/24
