# This file uses centimeters as units for non-parametric coordinates.

mtllib room_piece_1.mtl
g default
v 4.497017 -0.246361 -4.540817
v 5.530965 -0.302139 -4.540817
v 5.530965 -0.246361 -3.506866
v 5.476274 0.296791 -2.635208
v 4.246287 0.200417 -3.017685
v 3.714235 0.200417 -4.540817
v 6.564913 -0.246361 -4.540817
v 7.347695 0.200417 -4.540817
v 6.760952 0.296791 -3.266022
v 4.497017 1.821541 -4.540817
v 3.757667 0.787735 -4.540817
v 4.185881 0.787735 -3.506866
v 5.530965 0.787735 -3.078659
v 5.530965 1.821541 -3.506866
v 5.408126 2.054771 -4.171997
v 6.454226 1.585464 -4.456268
v 6.564913 0.787735 -3.506866
v 6.993128 0.787735 -4.540817
v 4.276238 0.787735 -5.724274
v 5.530965 1.821541 -5.214325
v 5.310186 0.787735 -6.152496
v 6.564913 0.787735 -5.574768
v 4.246287 0.200417 -6.063965
v 5.530965 0.200417 -6.694809
v 5.530965 -0.246361 -5.574768
v 6.815643 0.200417 -6.063965
v 4.687009 -0.056358 -3.696884
v 6.374909 -0.056358 -3.696884
v 4.687009 1.631538 -3.696884
v 6.190484 1.725700 -3.734726
v 4.715380 1.585442 -5.035522
v 6.180737 1.657005 -5.196777
v 4.687009 -0.056358 -5.384766
v 6.374909 -0.056358 -5.384766
v -12.500000 0.001354 12.499998
v 12.500000 0.001354 12.499998
v -12.500000 0.001354 -12.499998
v 12.500000 0.001354 -12.705474
v 2.854396 -0.060471 -8.967407
v 3.003266 -0.072754 -9.139664
v 3.175516 -0.060471 -8.990784
v 3.312854 0.059128 -8.856171
v 3.072042 0.037903 -8.706345
v 2.741690 0.037903 -8.837006
v 3.152136 -0.060471 -9.311905
v 3.264844 0.037903 -9.442322
v 3.392733 0.059128 -9.161026
v 2.854396 0.394859 -8.967407
v 2.747944 0.167229 -8.844238
v 2.981846 0.167229 -8.766708
v 3.246851 0.167229 -8.929138
v 3.175516 0.394859 -8.990784
v 3.047024 0.446213 -9.066101
v 3.150283 0.342880 -9.281296
v 3.324383 0.167229 -9.163040
v 3.213792 0.167229 -9.383255
v 2.625453 0.167229 -9.101028
v 2.891065 0.394859 -9.236633
v 2.702987 0.167229 -9.334930
v 2.979888 0.167229 -9.460785
v 2.564551 0.037903 -9.144943
v 2.644431 0.037903 -9.449799
v 2.831018 -0.060471 -9.288528
v 2.934492 0.037903 -9.572983
v 3.022349 -0.018639 -8.877548
v 3.265376 -0.018639 -9.158737
v 3.022349 0.353020 -8.877548
v 3.232514 0.373756 -9.133469
v 2.803421 0.342873 -9.075027
v 2.987547 0.358627 -9.342346
v 2.741158 -0.018639 -9.120575
v 2.984185 -0.018639 -9.401779
vt 0.327007 0.931294
vt 0.337765 0.908814
vt 0.373104 0.932512
vt 0.373544 0.911346
vt 0.293723 0.930580
vt 0.292436 0.906686
vt 0.254440 0.925588
vt 0.255429 0.905300
vt 0.213908 0.923612
vt 0.217628 0.900196
vt 0.418315 0.909806
vt 0.428093 0.935528
vt 0.340771 0.769722
vt 0.300813 0.767477
vt 0.339018 0.740144
vt 0.293190 0.743682
vt 0.250745 0.774803
vt 0.245271 0.742265
vt 0.178204 0.891249
vt 0.160935 0.919554
vt 0.330759 0.959995
vt 0.369066 0.963008
vt 0.329490 0.673239
vt 0.290552 0.672315
vt 0.322269 0.640622
vt 0.289489 0.634440
vt 0.288535 0.963727
vt 0.257095 0.642419
vt 0.251684 0.675359
vt 0.215989 0.952822
vt 0.253240 0.948832
vt 0.293560 0.871705
vt 0.298664 0.849652
vt 0.329547 0.873547
vt 0.333972 0.837348
vt 0.366525 0.864883
vt 0.230635 0.867022
vt 0.265451 0.867930
vt 0.254805 0.839558
vt 0.292795 0.813874
vt 0.326466 0.814521
vt 0.391589 0.868029
vt 0.201036 0.855483
vt 0.268284 0.811174
vt 0.291627 0.707399
vt 0.323963 0.706723
vt 0.405264 0.961700
vt 0.180103 0.948488
vt 0.258994 0.708389
vt 0.714286 0.708929
vt 0.964286 0.708929
vt 0.964286 0.958929
vt 0.714286 0.958929
vt 0.160673 0.565377
vt 0.150869 0.587196
vt 0.116413 0.565273
vt 0.116480 0.585594
vt 0.192626 0.565292
vt 0.194413 0.588190
vt 0.230434 0.569174
vt 0.229954 0.588664
vt 0.269371 0.570133
vt 0.266344 0.592687
vt 0.073557 0.588106
vt 0.063580 0.563650
vt 0.151204 0.720727
vt 0.189596 0.721956
vt 0.153570 0.749068
vt 0.197463 0.744611
vt 0.237468 0.713767
vt 0.243474 0.744860
vt 0.304379 0.600360
vt 0.320293 0.572801
vt 0.156409 0.537924
vt 0.119583 0.535920
vt 0.164263 0.813044
vt 0.201648 0.813027
vt 0.171948 0.844174
vt 0.203544 0.849346
vt 0.196837 0.533367
vt 0.234442 0.840939
vt 0.238870 0.809207
vt 0.266698 0.542152
vt 0.231046 0.546843
vt 0.194142 0.621780
vt 0.189757 0.643059
vt 0.159570 0.620844
vt 0.156161 0.655680
vt 0.124289 0.630013
vt 0.254630 0.624819
vt 0.221202 0.624752
vt 0.232073 0.651730
vt 0.196215 0.677252
vt 0.163894 0.677412
vt 0.100165 0.627574
vt 0.283297 0.635206
vt 0.219796 0.679275
vt 0.199802 0.779389
vt 0.168791 0.780788
vt 0.084881 0.538010
vt 0.301232 0.545483
vt 0.231093 0.777682
vn -0.781129 -0.534561 0.322619
vn -0.875334 0.345318 0.338446
vn -0.883504 -0.468300 -0.010745
vn -0.883504 -0.468300 -0.010745
vn -0.875334 0.345318 0.338446
vn -0.914086 0.404869 -0.022999
vn 0.009134 -0.212726 0.977069
vn 0.018523 0.513465 0.857911
vn -0.334300 -0.053590 0.940942
vn -0.334300 -0.053590 0.940942
vn 0.018523 0.513465 0.857911
vn -0.271712 0.502566 0.820731
vn 0.009134 -0.212726 0.977069
vn 0.427204 -0.235167 0.873037
vn 0.018523 0.513465 0.857911
vn 0.018523 0.513465 0.857911
vn 0.427204 -0.235167 0.873037
vn 0.350737 0.468388 0.810923
vn 0.966280 -0.257495 0.000148
vn 0.847600 0.530340 -0.017707
vn 0.882345 -0.201699 0.425188
vn 0.882345 -0.201699 0.425188
vn 0.847600 0.530340 -0.017707
vn 0.821636 0.475797 0.313896
vn -0.914086 0.404869 -0.022999
vn -0.855417 0.349333 -0.382399
vn -0.883504 -0.468300 -0.010745
vn -0.883504 -0.468300 -0.010745
vn -0.855417 0.349333 -0.382399
vn -0.830426 -0.437216 -0.345305
vn -0.325938 0.626042 -0.708404
vn -0.037979 0.658702 -0.751445
vn -0.428836 -0.350652 -0.832552
vn -0.428836 -0.350652 -0.832552
vn -0.037979 0.658702 -0.751445
vn 0.081639 -0.264802 -0.960841
vn 0.301845 0.634959 -0.711138
vn 0.462758 -0.147961 -0.874049
vn -0.037979 0.658702 -0.751445
vn -0.037979 0.658702 -0.751445
vn 0.462758 -0.147961 -0.874049
vn 0.081639 -0.264802 -0.960841
vn 0.847600 0.530340 -0.017707
vn 0.966280 -0.257495 0.000148
vn 0.795088 0.529082 -0.296492
vn 0.795088 0.529082 -0.296492
vn 0.966280 -0.257495 0.000148
vn 0.907269 -0.198757 -0.370620
vn -0.781129 -0.534561 0.322619
vn -0.883504 -0.468300 -0.010745
vn -0.405175 -0.893139 0.195284
vn -0.405175 -0.893139 0.195284
vn -0.883504 -0.468300 -0.010745
vn -0.413128 -0.910673 0.000000
vn -0.144090 -0.989565 0.000000
vn 0.000000 -1.000000 0.000000
vn -0.142617 -0.979449 0.142619
vn -0.142617 -0.979449 0.142619
vn 0.000000 -1.000000 0.000000
vn 0.000000 -0.989564 0.144092
vn 0.057961 -0.881886 0.467886
vn 0.009134 -0.212726 0.977069
vn -0.154631 -0.897310 0.413430
vn -0.154631 -0.897310 0.413430
vn 0.009134 -0.212726 0.977069
vn -0.334300 -0.053590 0.940942
vn 0.000000 -0.989564 0.144092
vn 0.000000 -1.000000 0.000000
vn 0.142618 -0.979449 0.142619
vn 0.142618 -0.979449 0.142619
vn 0.000000 -1.000000 0.000000
vn 0.144091 -0.989564 0.000000
vn 0.448029 -0.893479 0.031080
vn 0.966280 -0.257495 0.000148
vn 0.467776 -0.836776 0.284590
vn 0.467776 -0.836776 0.284590
vn 0.966280 -0.257495 0.000148
vn 0.882345 -0.201699 0.425188
vn 0.009134 -0.212726 0.977069
vn 0.057961 -0.881886 0.467886
vn 0.427204 -0.235167 0.873037
vn 0.427204 -0.235167 0.873037
vn 0.057961 -0.881886 0.467886
vn 0.266217 -0.824367 0.499547
vn 0.016693 0.975596 0.218937
vn -0.003896 0.999532 0.030327
vn -0.316405 0.894300 0.316409
vn -0.316405 0.894300 0.316409
vn -0.003896 0.999532 0.030327
vn -0.266238 0.959691 -0.090062
vn -0.914086 0.404869 -0.022999
vn -0.875334 0.345318 0.338446
vn -0.792528 0.609473 -0.021001
vn -0.792528 0.609473 -0.021001
vn -0.875334 0.345318 0.338446
vn -0.778087 0.545566 0.311349
vn -0.271712 0.502566 0.820731
vn 0.018523 0.513465 0.857911
vn -0.282181 0.367144 0.886329
vn -0.282181 0.367144 0.886329
vn 0.018523 0.513465 0.857911
vn 0.022564 0.381295 0.924178
vn 0.847600 0.530340 -0.017707
vn 0.856748 0.515498 0.015643
vn 0.821636 0.475797 0.313896
vn 0.821636 0.475797 0.313896
vn 0.856748 0.515498 0.015643
vn 0.836096 0.464108 0.292484
vn 0.336135 0.940747 -0.044813
vn -0.003896 0.999532 0.030327
vn 0.339224 0.935668 0.097224
vn 0.339224 0.935668 0.097224
vn -0.003896 0.999532 0.030327
vn 0.016693 0.975596 0.218937
vn 0.022564 0.381295 0.924178
vn 0.018523 0.513465 0.857911
vn 0.355111 0.355158 0.864730
vn 0.355111 0.355158 0.864730
vn 0.018523 0.513465 0.857911
vn 0.350737 0.468388 0.810923
vn 0.005324 0.656056 -0.754693
vn -0.037979 0.658702 -0.751445
vn -0.303406 0.691583 -0.655483
vn -0.303406 0.691583 -0.655483
vn -0.037979 0.658702 -0.751445
vn -0.325938 0.626042 -0.708404
vn -0.855417 0.349333 -0.382399
vn -0.914086 0.404869 -0.022999
vn -0.699856 0.597509 -0.391388
vn -0.699856 0.597509 -0.391388
vn -0.914086 0.404869 -0.022999
vn -0.792528 0.609473 -0.021001
vn -0.266238 0.959691 -0.090062
vn -0.003896 0.999532 0.030327
vn -0.213921 0.919993 -0.328407
vn -0.213921 0.919993 -0.328407
vn -0.003896 0.999532 0.030327
vn 0.112635 0.971087 -0.210484
vn 0.856748 0.515498 0.015643
vn 0.847600 0.530340 -0.017707
vn 0.798938 0.524201 -0.294808
vn 0.798938 0.524201 -0.294808
vn 0.847600 0.530340 -0.017707
vn 0.795088 0.529082 -0.296492
vn -0.037979 0.658702 -0.751445
vn 0.005324 0.656056 -0.754693
vn 0.301845 0.634959 -0.711138
vn 0.301845 0.634959 -0.711138
vn 0.005324 0.656056 -0.754693
vn 0.290731 0.561008 -0.775078
vn -0.003896 0.999532 0.030327
vn 0.336135 0.940747 -0.044813
vn 0.112635 0.971087 -0.210484
vn 0.112635 0.971087 -0.210484
vn 0.336135 0.940747 -0.044813
vn 0.332220 0.936408 -0.113004
vn 0.000000 -0.989564 -0.144091
vn 0.000000 -1.000000 0.000000
vn -0.142618 -0.979449 -0.142619
vn -0.142618 -0.979449 -0.142619
vn 0.000000 -1.000000 0.000000
vn -0.144090 -0.989565 0.000000
vn -0.413128 -0.910673 0.000000
vn -0.883504 -0.468300 -0.010745
vn -0.405173 -0.893140 -0.195283
vn -0.405173 -0.893140 -0.195283
vn -0.883504 -0.468300 -0.010745
vn -0.830426 -0.437216 -0.345305
vn 0.081639 -0.264802 -0.960841
vn 0.000000 -0.947548 -0.319614
vn -0.428836 -0.350652 -0.832552
vn -0.428836 -0.350652 -0.832552
vn 0.000000 -0.947548 -0.319614
vn -0.203476 -0.927725 -0.312927
vn 0.907269 -0.198757 -0.370620
vn 0.966280 -0.257495 0.000148
vn 0.405173 -0.893140 -0.195284
vn 0.405173 -0.893140 -0.195284
vn 0.966280 -0.257495 0.000148
vn 0.448029 -0.893479 0.031080
vn 0.144091 -0.989564 0.000000
vn 0.000000 -1.000000 0.000000
vn 0.142618 -0.979449 -0.142618
vn 0.142618 -0.979449 -0.142618
vn 0.000000 -1.000000 0.000000
vn 0.000000 -0.989564 -0.144091
vn 0.081639 -0.264802 -0.960841
vn 0.462758 -0.147961 -0.874049
vn 0.000000 -0.947548 -0.319614
vn 0.000000 -0.947548 -0.319614
vn 0.462758 -0.147961 -0.874049
vn 0.203477 -0.927725 -0.312927
vn 0.000000 1.000000 0.000000
vn 0.000000 1.000000 0.000000
vn 0.000000 1.000000 0.000000
vn 0.000000 1.000000 0.000000
vn -0.266690 -0.534560 0.801949
vn -0.316316 0.345318 0.883572
vn -0.585851 -0.468300 0.661418
vn -0.585851 -0.468300 0.661418
vn -0.316316 0.345318 0.883572
vn -0.615119 0.404869 0.676543
vn 0.745206 -0.212726 0.631993
vn 0.661192 0.513465 0.546972
vn 0.493305 -0.053592 0.868204
vn 0.493305 -0.053592 0.868204
vn 0.661192 0.513465 0.546972
vn 0.443279 0.502566 0.742247
vn 0.745206 -0.212726 0.631993
vn 0.939872 -0.235166 0.247665
vn 0.661192 0.513465 0.546972
vn 0.661192 0.513465 0.546972
vn 0.939872 -0.235166 0.247665
vn 0.842877 0.468387 0.264900
vn 0.631961 -0.257495 -0.730973
vn 0.540846 0.530341 -0.652858
vn 0.898653 -0.201702 -0.389537
vn 0.898653 -0.201702 -0.389537
vn 0.540846 0.530341 -0.652858
vn 0.774754 0.475797 -0.416381
vn -0.615119 0.404869 0.676543
vn -0.848672 0.349333 0.397143
vn -0.585851 -0.468300 0.661418
vn -0.585851 -0.468300 0.661418
vn -0.848672 0.349333 0.397143
vn -0.804265 -0.437217 0.402491
vn -0.749097 0.626041 -0.216624
vn -0.593366 0.658701 -0.462633
vn -0.910310 -0.350651 -0.219954
vn -0.910310 -0.350651 -0.219954
vn -0.593366 0.658701 -0.462633
vn -0.673573 -0.264801 -0.690057
vn -0.340660 0.634959 -0.693381
vn -0.358698 -0.147962 -0.921652
vn -0.593366 0.658701 -0.462633
vn -0.593366 0.658701 -0.462633
vn -0.358698 -0.147962 -0.921652
vn -0.673573 -0.264801 -0.690057
vn 0.540846 0.530341 -0.652858
vn 0.631961 -0.257495 -0.730973
vn 0.295585 0.529083 -0.795425
vn 0.295585 0.529083 -0.795425
vn 0.631961 -0.257495 -0.730973
vn 0.312856 -0.198756 -0.928772
vn -0.266690 -0.534560 0.801949
vn -0.585851 -0.468300 0.661418
vn -0.117194 -0.893140 0.434243
vn -0.117194 -0.893140 0.434243
vn -0.585851 -0.468300 0.661418
vn -0.270143 -0.910673 0.312566
vn -0.094221 -0.989564 0.109017
vn 0.000000 -1.000000 0.000000
vn 0.014644 -0.979449 0.201160
vn 0.014644 -0.979449 0.201160
vn 0.000000 -1.000000 0.000000
vn 0.109016 -0.989565 0.094221
vn 0.391894 -0.881887 0.262097
vn 0.745206 -0.212726 0.631993
vn 0.211683 -0.897310 0.387330
vn 0.211683 -0.897310 0.387330
vn 0.745206 -0.212726 0.631993
vn 0.493305 -0.053592 0.868204
vn 0.109016 -0.989565 0.094221
vn 0.000000 -1.000000 0.000000
vn 0.201161 -0.979449 -0.014645
vn 0.201161 -0.979449 -0.014645
vn 0.000000 -1.000000 0.000000
vn 0.094221 -0.989564 -0.109017
vn 0.316480 -0.893479 -0.318647
vn 0.631961 -0.257495 -0.730973
vn 0.521193 -0.836777 -0.167816
vn 0.521193 -0.836777 -0.167816
vn 0.631961 -0.257495 -0.730973
vn 0.898653 -0.201702 -0.389537
vn 0.745206 -0.212726 0.631993
vn 0.391894 -0.881887 0.262097
vn 0.939872 -0.235166 0.247665
vn 0.939872 -0.235166 0.247665
vn 0.391894 -0.881887 0.262097
vn 0.552024 -0.824369 0.125240
vn 0.176558 0.975596 0.130533
vn 0.020398 0.999532 0.022779
vn 0.032490 0.894300 0.446287
vn 0.032490 0.894300 0.446287
vn 0.020398 0.999532 0.022779
vn -0.242231 0.959691 0.142540
vn -0.615119 0.404869 0.676543
vn -0.316316 0.345318 0.883572
vn -0.534122 0.609474 0.585880
vn -0.534122 0.609474 0.585880
vn -0.316316 0.345318 0.883572
vn -0.273226 0.545566 0.792278
vn 0.443279 0.502566 0.742247
vn 0.661192 0.513465 0.546972
vn 0.486063 0.367145 0.793062
vn 0.486063 0.367145 0.793062
vn 0.661192 0.513465 0.546972
vn 0.713972 0.381295 0.587246
vn 0.540846 0.530341 -0.652858
vn 0.572060 0.515498 -0.637972
vn 0.774754 0.475797 -0.416381
vn 0.774754 0.475797 -0.416381
vn 0.572060 0.515498 -0.637972
vn 0.768009 0.464108 -0.441323
vn 0.185893 0.940747 -0.283618
vn 0.020398 0.999532 0.022779
vn 0.295375 0.935668 -0.193078
vn 0.295375 0.935668 -0.193078
vn 0.020398 0.999532 0.022779
vn 0.176558 0.975596 0.130533
vn 0.713972 0.381295 0.587246
vn 0.661192 0.513465 0.546972
vn 0.886447 0.355156 0.296775
vn 0.886447 0.355156 0.296775
vn 0.661192 0.513465 0.546972
vn 0.842877 0.468387 0.264900
vn -0.567506 0.656057 -0.497520
vn -0.593366 0.658701 -0.462633
vn -0.694326 0.691582 -0.199065
vn -0.694326 0.691582 -0.199065
vn -0.593366 0.658701 -0.462633
vn -0.749097 0.626041 -0.216624
vn -0.848672 0.349333 0.397143
vn -0.615119 0.404869 0.676543
vn -0.753753 0.597508 0.273570
vn -0.753753 0.597508 0.273570
vn -0.615119 0.404869 0.676543
vn -0.534122 0.609474 0.585880
vn -0.242231 0.959691 0.142540
vn 0.020398 0.999532 0.022779
vn -0.388348 0.919994 -0.052895
vn -0.388348 0.919994 -0.052895
vn 0.020398 0.999532 0.022779
vn -0.085596 0.971087 -0.222852
vn 0.572060 0.515498 -0.637972
vn 0.540846 0.530341 -0.652858
vn 0.299376 0.524202 -0.797237
vn 0.299376 0.524202 -0.797237
vn 0.540846 0.530341 -0.652858
vn 0.295585 0.529083 -0.795425
vn -0.593366 0.658701 -0.462633
vn -0.567506 0.656057 -0.497520
vn -0.340660 0.634959 -0.693381
vn -0.340660 0.634959 -0.693381
vn -0.567506 0.656057 -0.497520
vn -0.396301 0.561009 -0.726784
vn 0.020398 0.999532 0.022779
vn 0.185893 0.940747 -0.283618
vn -0.085596 0.971087 -0.222852
vn -0.085596 0.971087 -0.222852
vn 0.185893 0.940747 -0.283618
vn 0.131740 0.936409 -0.325244
vn -0.109017 -0.989564 -0.094221
vn 0.000000 -1.000000 0.000000
vn -0.201161 -0.979449 0.014645
vn -0.201161 -0.979449 0.014645
vn 0.000000 -1.000000 0.000000
vn -0.094221 -0.989564 0.109017
vn -0.270143 -0.910673 0.312566
vn -0.585851 -0.468300 0.661418
vn -0.412690 -0.893140 0.178853
vn -0.412690 -0.893140 0.178853
vn -0.585851 -0.468300 0.661418
vn -0.804265 -0.437217 0.402491
vn -0.673573 -0.264801 -0.690057
vn -0.241815 -0.947548 -0.208995
vn -0.910310 -0.350651 -0.219954
vn -0.910310 -0.350651 -0.219954
vn -0.241815 -0.947548 -0.208995
vn -0.369810 -0.927724 -0.050676
vn 0.312856 -0.198756 -0.928772
vn 0.631961 -0.257495 -0.730973
vn 0.117195 -0.893140 -0.434242
vn 0.117195 -0.893140 -0.434242
vn 0.631961 -0.257495 -0.730973
vn 0.316480 -0.893479 -0.318647
vn 0.094221 -0.989564 -0.109017
vn 0.000000 -1.000000 0.000000
vn -0.014645 -0.979449 -0.201161
vn -0.014645 -0.979449 -0.201161
vn 0.000000 -1.000000 0.000000
vn -0.109017 -0.989564 -0.094221
vn -0.673573 -0.264801 -0.690057
vn -0.358698 -0.147962 -0.921652
vn -0.241815 -0.947548 -0.208995
vn -0.241815 -0.947548 -0.208995
vn -0.358698 -0.147962 -0.921652
vn -0.103702 -0.927725 -0.358570
s off
g room_piece_1_stone6
usemtl lambert2SG
f 5/1/1 12/2/2 6/3/3
f 6/3/4 12/2/5 11/4/6
f 4/5/7 13/6/8 5/1/9
f 5/1/10 13/6/11 12/2/12
f 4/5/13 9/7/14 13/6/15
f 13/6/16 9/7/17 17/8/18
f 8/9/19 18/10/20 9/7/21
f 9/7/22 18/10/23 17/8/24
f 11/4/25 19/11/26 6/3/27
f 6/3/28 19/11/29 23/12/30
f 19/13/31 21/14/32 23/15/33
f 23/15/34 21/14/35 24/16/36
f 22/17/37 26/18/38 21/14/39
f 21/14/40 26/18/41 24/16/42
f 18/10/43 8/9/44 22/19/45
f 22/19/46 8/9/47 26/20/48
f 5/1/49 6/3/50 27/21/51
f 27/21/52 6/3/53 1/22/54
f 1/23/55 2/24/56 27/25/57
f 27/25/58 2/24/59 3/26/60
f 3/27/61 4/5/62 27/21/63
f 27/21/64 4/5/65 5/1/66
f 3/26/67 2/24/68 28/28/69
f 28/28/70 2/24/71 7/29/72
f 7/30/73 8/9/74 28/31/75
f 28/31/76 8/9/77 9/7/78
f 4/5/79 3/27/80 9/7/81
f 9/7/82 3/27/83 28/31/84
f 14/32/85 15/33/86 29/34/87
f 29/34/88 15/33/89 10/35/90
f 11/4/91 12/2/92 10/36/93
f 10/36/94 12/2/95 29/34/96
f 12/2/97 13/6/98 29/34/99
f 29/34/100 13/6/101 14/32/102
f 18/10/103 16/37/104 17/8/105
f 17/8/106 16/37/107 30/38/108
f 16/39/109 15/33/110 30/38/111
f 30/38/112 15/33/113 14/32/114
f 14/32/115 13/6/116 30/38/117
f 30/38/118 13/6/119 17/8/120
f 20/40/121 21/14/122 31/41/123
f 31/41/124 21/14/125 19/13/126
f 19/11/127 11/4/128 31/42/129
f 31/42/130 11/4/131 10/36/132
f 10/35/133 15/33/134 31/41/135
f 31/41/136 15/33/137 20/40/138
f 16/37/139 18/10/140 32/43/141
f 32/43/142 18/10/143 22/19/144
f 21/14/145 20/40/146 22/17/147
f 22/17/148 20/40/149 32/44/150
f 15/33/151 16/39/152 20/40/153
f 20/40/154 16/39/155 32/44/156
f 25/45/157 2/24/158 33/46/159
f 33/46/160 2/24/161 1/23/162
f 1/22/163 6/3/164 33/47/165
f 33/47/166 6/3/167 23/12/168
f 24/16/169 25/45/170 23/15/171
f 23/15/172 25/45/173 33/46/174
f 26/20/175 8/9/176 34/48/177
f 34/48/178 8/9/179 7/30/180
f 7/29/181 2/24/182 34/49/183
f 34/49/184 2/24/185 25/45/186
f 24/16/187 26/18/188 25/45/189
f 25/45/190 26/18/191 34/49/192
f 35/50/193 36/51/194 38/52/195 37/53/196
f 43/54/197 50/55/198 44/56/199
f 44/56/200 50/55/201 49/57/202
f 42/58/203 51/59/204 43/54/205
f 43/54/206 51/59/207 50/55/208
f 42/58/209 47/60/210 51/59/211
f 51/59/212 47/60/213 55/61/214
f 46/62/215 56/63/216 47/60/217
f 47/60/218 56/63/219 55/61/220
f 49/57/221 57/64/222 44/56/223
f 44/56/224 57/64/225 61/65/226
f 57/66/227 59/67/228 61/68/229
f 61/68/230 59/67/231 62/69/232
f 60/70/233 64/71/234 59/67/235
f 59/67/236 64/71/237 62/69/238
f 56/63/239 46/62/240 60/72/241
f 60/72/242 46/62/243 64/73/244
f 43/54/245 44/56/246 65/74/247
f 65/74/248 44/56/249 39/75/250
f 39/76/251 40/77/252 65/78/253
f 65/78/254 40/77/255 41/79/256
f 41/80/257 42/58/258 65/74/259
f 65/74/260 42/58/261 43/54/262
f 41/79/263 40/77/264 66/81/265
f 66/81/266 40/77/267 45/82/268
f 45/83/269 46/62/270 66/84/271
f 66/84/272 46/62/273 47/60/274
f 42/58/275 41/80/276 47/60/277
f 47/60/278 41/80/279 66/84/280
f 52/85/281 53/86/282 67/87/283
f 67/87/284 53/86/285 48/88/286
f 49/57/287 50/55/288 48/89/289
f 48/89/290 50/55/291 67/87/292
f 50/55/293 51/59/294 67/87/295
f 67/87/296 51/59/297 52/85/298
f 56/63/299 54/90/300 55/61/301
f 55/61/302 54/90/303 68/91/304
f 54/92/305 53/86/306 68/91/307
f 68/91/308 53/86/309 52/85/310
f 52/85/311 51/59/312 68/91/313
f 68/91/314 51/59/315 55/61/316
f 58/93/317 59/67/318 69/94/319
f 69/94/320 59/67/321 57/66/322
f 57/64/323 49/57/324 69/95/325
f 69/95/326 49/57/327 48/89/328
f 48/88/329 53/86/330 69/94/331
f 69/94/332 53/86/333 58/93/334
f 54/90/335 56/63/336 70/96/337
f 70/96/338 56/63/339 60/72/340
f 59/67/341 58/93/342 60/70/343
f 60/70/344 58/93/345 70/97/346
f 53/86/347 54/92/348 58/93/349
f 58/93/350 54/92/351 70/97/352
f 63/98/353 40/77/354 71/99/355
f 71/99/356 40/77/357 39/76/358
f 39/75/359 44/56/360 71/100/361
f 71/100/362 44/56/363 61/65/364
f 62/69/365 63/98/366 61/68/367
f 61/68/368 63/98/369 71/99/370
f 64/73/371 46/62/372 72/101/373
f 72/101/374 46/62/375 45/83/376
f 45/82/377 40/77/378 72/102/379
f 72/102/380 40/77/381 63/98/382
f 62/69/383 64/71/384 63/98/385
f 63/98/386 64/71/387 72/102/388
